<svg width="31" height="24" viewBox="0 0 31 24" fill="none" xmlns="http://www.w3.org/2000/svg">
<g clip-path="url(#clip0_21_10)">
<g clip-path="url(#clip1_21_10)">
<mask id="mask0_21_10" style="mask-type:luminance" maskUnits="userSpaceOnUse" x="0" y="0" width="31" height="24">
<path d="M30.3213 0H0.321289V24H30.3213V0Z" fill="white"/>
</mask>
<g mask="url(#mask0_21_10)">
<path d="M22.5441 24.0004C21.8032 24.0004 21.0691 23.817 20.4038 23.4552C19.3792 22.9001 18.64 21.9898 18.322 20.8945C18.0263 19.8809 18.1243 18.8206 18.5953 17.8803L8.41481 12.3555C7.17362 14.2377 4.60873 14.8812 2.56987 13.7759C0.453662 12.6272 -0.302741 10.0265 0.879999 7.97592C1.51263 6.88062 2.60941 6.12708 3.84716 5.88368C3.37957 4.70001 3.46209 3.35297 4.11706 2.21766C5.32043 0.132079 8.05036 -0.614795 10.201 0.552196C11.2427 1.11735 11.9957 2.04261 12.3189 3.15625C12.6266 4.21155 12.5149 5.31852 12.006 6.29046L22.049 11.7403C22.6369 10.8117 23.5515 10.1399 24.6397 9.84144C25.788 9.52635 26.9948 9.66473 28.0366 10.2299C30.1872 11.3969 30.9574 14.0426 29.754 16.1282C29.099 17.2635 27.9575 18.0371 26.6734 18.2688C27.1066 19.4191 27.0189 20.7195 26.3863 21.8148C25.8138 22.8084 24.8752 23.5252 23.7457 23.8353C23.3486 23.9454 22.9446 24.0004 22.5441 24.0004ZM7.76671 10.4216L20.6325 17.4035L20.158 18.0337C20.0755 18.1421 20.0136 18.2371 19.9586 18.3305C19.5718 19.0007 19.4772 19.7792 19.6921 20.5194C19.907 21.2596 20.4072 21.8748 21.1 22.2499C21.7928 22.625 22.5939 22.7167 23.3572 22.5083C24.1205 22.2999 24.7549 21.8148 25.1416 21.1429C25.7038 20.1693 25.6282 18.954 24.9508 18.0471L24.0363 16.8234L25.5903 16.9534C26.7817 17.0534 27.9283 16.4666 28.5111 15.4563C29.3311 14.0359 28.805 12.2338 27.3404 11.4386C26.6304 11.0534 25.8087 10.9601 25.0265 11.1735C24.2443 11.3885 23.5945 11.8853 23.1973 12.5739C23.1372 12.6789 23.0804 12.7989 23.0186 12.9506L22.7212 13.6908L9.94137 6.75225L10.4365 6.12041C10.5379 5.99204 10.6135 5.88201 10.6737 5.77531C11.0708 5.08679 11.1688 4.2899 10.947 3.53136C10.727 2.77281 10.213 2.14264 9.503 1.75753C8.03833 0.96231 6.17826 1.47245 5.35825 2.89285C4.77548 3.90313 4.85971 5.15681 5.57142 6.0904L6.49802 7.30574L4.94395 7.18904C3.79043 7.10235 2.68505 7.67584 2.12291 8.65111C1.32353 10.0365 1.83582 11.7937 3.26439 12.5705C4.69296 13.3457 6.50661 12.8489 7.30599 11.4636C7.35928 11.3719 7.40914 11.2668 7.46243 11.1435L7.76671 10.4216Z" fill="#00603A"/>
<path d="M20.1801 14.5409C20.0924 14.5409 20.0013 14.5192 19.9188 14.4742L13.2917 10.8665C13.0338 10.7265 12.9427 10.4097 13.0871 10.1613C13.2315 9.91126 13.5564 9.82291 13.8143 9.96295L20.4414 13.5723C20.6993 13.7123 20.7904 14.0291 20.646 14.2775C20.548 14.4459 20.3675 14.5409 20.1801 14.5409Z" fill="#00603A"/>
</g>
</g>
</g>
<defs>
<clipPath id="clip0_21_10">
<rect width="31" height="24" fill="white"/>
</clipPath>
<clipPath id="clip1_21_10">
<rect width="31" height="24" fill="white"/>
</clipPath>
</defs>
</svg>
