<svg width="24" height="25" viewBox="0 0 24 25" fill="none" xmlns="http://www.w3.org/2000/svg">
<path fill-rule="evenodd" clip-rule="evenodd" d="M1.19218 2.11377H2.10509V3.08428C2.10509 3.99667 2.84982 4.74192 3.76272 4.74192C4.67512 4.74192 5.42036 3.99719 5.42036 3.08428V2.11377H13.6499V3.08428C13.6499 3.99667 14.3946 4.74192 15.3075 4.74192C16.2199 4.74192 16.9652 3.99719 16.9652 3.08428V2.11377H17.8781C18.5343 2.11377 19.0697 2.64917 19.0697 3.30544V5.55762H0V3.30544C0 2.64917 0.535401 2.11377 1.19218 2.11377ZM18.8429 13.2055C19.1428 13.2368 19.3732 13.4693 19.401 13.7697L19.4781 14.6018C19.5203 15.0555 20.0531 15.2735 20.4013 14.9799L21.0396 14.4414C21.27 14.247 21.5976 14.2428 21.8326 14.4306C22.1572 14.6898 22.4534 14.9835 22.7152 15.3059C22.905 15.5399 22.9034 15.8676 22.7111 16.0995L22.1777 16.7424C21.8866 17.0932 22.1093 17.6239 22.563 17.6625L23.3956 17.733C23.696 17.7587 23.931 17.9871 23.9645 18.2869C24.0102 18.6989 24.0118 19.117 23.9691 19.5295C23.9377 19.8293 23.7053 20.0597 23.4049 20.0875L22.5727 20.1647C22.1191 20.2068 21.901 20.7397 22.1947 21.0879L22.7332 21.7261C22.9276 21.9565 22.9317 22.2841 22.744 22.5192C22.4848 22.8437 22.1911 23.14 21.8686 23.4018C21.6346 23.5915 21.307 23.59 21.0751 23.3976L20.4322 22.8643C20.0814 22.5732 19.5506 22.7959 19.5121 23.2495L19.4416 24.0822C19.4159 24.3825 19.1875 24.6176 18.8877 24.651C18.4757 24.6968 18.0576 24.6983 17.6451 24.6556C17.3452 24.6243 17.1148 24.3918 17.0871 24.0914L17.0099 23.2593C16.9677 22.8057 16.4349 22.5876 16.0867 22.8813L15.4485 23.4198C15.218 23.6142 14.8904 23.6183 14.6554 23.4306C14.3309 23.1713 14.0346 22.8777 13.7728 22.5552C13.583 22.3212 13.5846 21.9936 13.7769 21.7616L14.3103 21.1187C14.6014 20.7679 14.3787 20.2372 13.9251 20.1986L13.0924 20.1281C12.792 20.1024 12.557 19.8741 12.5236 19.5742C12.4778 19.1623 12.4762 18.7441 12.5189 18.3316C12.5503 18.0318 12.7828 17.8014 13.0831 17.7736L13.9153 17.6965C14.3689 17.6543 14.587 17.1215 14.2933 16.7733L13.7548 16.135C13.5604 15.9046 13.5563 15.577 13.744 15.3419C14.0032 15.0174 14.2969 14.7212 14.6194 14.4594C14.8534 14.2696 15.181 14.2711 15.413 14.4635L16.0559 14.9968C16.4066 15.2879 16.9374 15.0652 16.976 14.6116L17.0464 13.7789C17.0721 13.4786 17.3005 13.2435 17.6003 13.2101C18.0128 13.1643 18.4305 13.1623 18.8429 13.2055ZM18.2443 15.6973C16.4586 15.6973 15.0113 17.1451 15.0113 18.9303C15.0113 20.716 16.4591 22.1633 18.2443 22.1633C20.03 22.1633 21.4772 20.7155 21.4772 18.9303C21.4778 17.1451 20.03 15.6973 18.2443 15.6973ZM19.0687 6.07193H0V17.8765C0 18.5327 0.535401 19.0681 1.19167 19.0681H11.9753C11.9696 18.8048 11.9804 18.5405 12.0077 18.2787C12.0643 17.735 12.4912 17.3123 13.0358 17.2619L13.868 17.1847C13.9091 17.1811 13.9271 17.1369 13.9004 17.105L13.3619 16.4667C13.0096 16.0491 13.0013 15.4484 13.3423 15.021C13.6247 14.6677 13.9446 14.3452 14.2954 14.0597C14.7197 13.7152 15.3209 13.7182 15.7416 14.0675L16.3845 14.6008C16.4164 14.627 16.4601 14.609 16.4637 14.5679L16.5342 13.7352C16.5805 13.19 17.0001 12.7596 17.5438 12.6989C17.9928 12.649 18.4474 12.6469 18.8964 12.6937C18.9556 12.6999 19.0132 12.7102 19.0687 12.7251V6.07193ZM14.012 11.2984C13.7934 11.2984 13.6149 11.4769 13.6149 11.6954V13.1875C13.6149 13.4061 13.7934 13.5845 14.012 13.5845H15.5035C15.7221 13.5845 15.9005 13.4061 15.9005 13.1875V11.6954C15.9005 11.4769 15.7221 11.2984 15.5035 11.2984H14.012ZM14.012 7.40401H15.504C15.7226 7.40401 15.9011 7.58247 15.9011 7.80106V9.29308C15.9011 9.51167 15.7226 9.69013 15.504 9.69013H14.012C13.7934 9.69013 13.6149 9.51167 13.6149 9.29308V7.80106C13.6144 7.58247 13.7929 7.40401 14.012 7.40401ZM8.7886 15.1933H10.2801C10.4987 15.1933 10.6772 15.3718 10.6772 15.5903V17.0824C10.6772 17.301 10.4987 17.4794 10.2801 17.4794H8.7886C8.57002 17.4794 8.39155 17.301 8.39155 17.0824V15.5903C8.39155 15.3718 8.5695 15.1933 8.7886 15.1933ZM8.7886 11.2984H10.2801C10.4987 11.2984 10.6772 11.4769 10.6772 11.6954V13.1875C10.6772 13.4061 10.4987 13.5845 10.2801 13.5845H8.7886C8.57002 13.5845 8.39155 13.4061 8.39155 13.1875V11.6954C8.39155 11.4769 8.5695 11.2984 8.7886 11.2984ZM8.7886 7.40401H10.2801C10.4987 7.40401 10.6772 7.58247 10.6772 7.80106V9.29308C10.6772 9.51167 10.4987 9.69013 10.2801 9.69013H8.7886C8.57002 9.69013 8.39155 9.51167 8.39155 9.29308V7.80106C8.39155 7.58247 8.57002 7.40401 8.7886 7.40401ZM3.56523 7.40401H5.05674C5.27532 7.40401 5.45379 7.58247 5.45379 7.80106V9.29257C5.45379 9.51115 5.27532 9.68962 5.05674 9.68962H3.56523C3.34664 9.68962 3.16818 9.51115 3.16818 9.29257V7.80106C3.16818 7.58247 3.34664 7.40401 3.56523 7.40401ZM3.56523 15.1933H5.05674C5.27532 15.1933 5.45379 15.3718 5.45379 15.5903V17.0824C5.45379 17.301 5.27532 17.4794 5.05674 17.4794H3.56523C3.34664 17.4794 3.16818 17.301 3.16818 17.0824V15.5903C3.16818 15.3718 3.34664 15.1933 3.56523 15.1933ZM3.56523 11.2984H5.05674C5.27532 11.2984 5.45379 11.4769 5.45379 11.6954V13.1875C5.45379 13.4061 5.27532 13.5845 5.05674 13.5845H3.56523C3.34664 13.5845 3.16818 13.4061 3.16818 13.1875V11.6954C3.16818 11.4769 3.34664 11.2984 3.56523 11.2984Z" fill="white"/>
<path fill-rule="evenodd" clip-rule="evenodd" d="M4.90554 3.08434V1.14332C4.90554 0.514829 4.39122 0 3.76222 0C3.13373 0 2.6189 0.514314 2.6189 1.14332V3.08434C2.6189 3.71283 3.13321 4.22766 3.76222 4.22766C4.39122 4.22715 4.90554 3.71283 4.90554 3.08434ZM14.1637 1.14332V3.08434C14.1637 3.71283 14.678 4.22766 15.307 4.22766C15.936 4.22766 16.4503 3.71335 16.4503 3.08434V1.14332C16.4503 0.514829 15.936 0 15.307 0C14.678 0 14.1637 0.514314 14.1637 1.14332Z" fill="#FFCD69"/>
<path fill-rule="evenodd" clip-rule="evenodd" d="M17.9871 18.6094V17.3776C17.9871 17.2356 18.1023 17.1204 18.2443 17.1204C18.3862 17.1204 18.5014 17.2356 18.5014 17.3776V18.6094C18.5956 18.685 18.6557 18.8007 18.6557 18.9303C18.6557 18.9457 18.6547 18.9607 18.6532 18.9756L19.349 19.6714C19.4493 19.7717 19.4493 19.9348 19.349 20.0351C19.2487 20.1353 19.0857 20.1353 18.9854 20.0351L18.2895 19.3392C18.2746 19.3407 18.2597 19.3418 18.2443 19.3418C18.0169 19.3418 17.8328 19.1576 17.8328 18.9303C17.8328 18.8007 17.8935 18.685 17.9871 18.6094ZM20.9635 18.9308C20.9635 17.429 19.7461 16.2122 18.2448 16.2122C16.7435 16.2122 15.5261 17.4295 15.5261 18.9308C15.5261 20.4326 16.7435 21.6495 18.2448 21.6495C19.7461 21.6495 20.9635 20.4321 20.9635 18.9308ZM20.1971 18.9313C20.1971 18.7894 20.3123 18.6742 20.4543 18.6742H20.5469C20.6888 18.6742 20.804 18.7894 20.804 18.9313C20.804 19.0733 20.6888 19.1885 20.5469 19.1885H20.4543C20.3123 19.1885 20.1971 19.0733 20.1971 18.9313ZM19.6921 17.1215C19.7924 17.0217 19.9549 17.0222 20.0547 17.1225C20.1544 17.2228 20.1539 17.3853 20.0536 17.4851L19.9878 17.5509C19.8875 17.6507 19.725 17.6502 19.6252 17.5499C19.5254 17.4496 19.5259 17.2871 19.6262 17.1873L19.6921 17.1215ZM17.9871 16.6288C17.9871 16.4868 18.1023 16.3716 18.2443 16.3716C18.3862 16.3716 18.5014 16.4868 18.5014 16.6288V16.7213C18.5014 16.8633 18.3862 16.9785 18.2443 16.9785C18.1023 16.9785 17.9871 16.8633 17.9871 16.7213V16.6288ZM16.8644 17.5504C16.7641 17.6507 16.601 17.6507 16.5007 17.5504L16.4349 17.4846C16.3346 17.3843 16.3346 17.2212 16.4349 17.121C16.5352 17.0207 16.6982 17.0207 16.7985 17.121L16.8644 17.1868C16.9647 17.2871 16.9647 17.4501 16.8644 17.5504ZM16.0353 18.6737C16.1772 18.6737 16.2925 18.7889 16.2925 18.9308C16.2925 19.0728 16.1772 19.188 16.0353 19.188H15.9427C15.8008 19.188 15.6856 19.0728 15.6856 18.9308C15.6856 18.7889 15.8008 18.6737 15.9427 18.6737H16.0353ZM16.5007 20.3112C16.601 20.211 16.7641 20.211 16.8644 20.3112C16.9647 20.4115 16.9647 20.5746 16.8644 20.6749L16.7985 20.7407C16.6982 20.841 16.5352 20.841 16.4349 20.7407C16.3346 20.6404 16.3346 20.4774 16.4349 20.3771L16.5007 20.3112ZM18.2443 20.8842C18.3862 20.8842 18.5014 20.9994 18.5014 21.1413V21.2339C18.5014 21.3759 18.3862 21.4911 18.2443 21.4911C18.1023 21.4911 17.9871 21.3759 17.9871 21.2339V21.1413C17.9871 20.9994 18.1023 20.8842 18.2443 20.8842ZM19.6252 20.3123C19.7255 20.212 19.8885 20.212 19.9888 20.3123L20.0547 20.3781C20.155 20.4784 20.155 20.6414 20.0547 20.7417C19.9544 20.842 19.7913 20.842 19.691 20.7417L19.6252 20.6759C19.5249 20.5751 19.5249 20.4126 19.6252 20.3123Z" fill="#FFCD69"/>
</svg>
