<svg width="24" height="23" viewBox="0 0 24 23" fill="none" xmlns="http://www.w3.org/2000/svg">
<path d="M23.1731 17.4271C23.6985 17.1629 24 16.6741 24 16.0856V13.4448C24 10.9473 23.1332 8.58068 21.5398 6.67847V18.2505L23.1731 17.4271Z" fill="#FFCD69"/>
<path d="M13.7007 0H10.2997L9.73755 1.67827H14.2629L13.7007 0Z" fill="#FFCD69"/>
<path d="M18.2106 2.50513H5.78986C4.41001 2.50513 3.28772 3.62845 3.28772 5.00934V18.3222C3.28772 19.0246 3.57838 19.6597 4.0454 20.1148C4.0635 20.1293 4.08057 20.1458 4.09608 20.1634C4.54189 20.5746 5.13718 20.8264 5.78986 20.8264H18.2106C18.8633 20.8264 19.4586 20.5746 19.9044 20.1634C19.9199 20.1458 19.937 20.1293 19.9551 20.1148C20.4221 19.6597 20.7127 19.0246 20.7127 18.3222V5.00934C20.7127 3.62845 19.5904 2.50513 18.2106 2.50513ZM18.4061 9.19596C18.5447 10.2453 18.3471 10.943 17.8181 11.2694C17.6148 11.395 17.3779 11.4581 17.1033 11.4581C16.3891 11.4581 15.4204 11.0304 14.1326 10.1553C13.9438 10.0271 13.8947 9.77003 14.0229 9.58126C14.1512 9.39197 14.4082 9.34284 14.597 9.47162C16.6109 10.8396 17.2393 10.6549 17.3841 10.566C17.6008 10.432 17.6748 9.97225 17.5864 9.30457C17.5564 9.07804 17.7156 8.87065 17.9422 8.84065C18.1682 8.81066 18.3761 8.96995 18.4061 9.19596ZM5.59437 9.19596C5.62436 8.96995 5.83227 8.81066 6.05828 8.84065C6.28481 8.87065 6.4441 9.07804 6.41411 9.30457C6.32567 9.97225 6.39963 10.432 6.61633 10.566C6.76114 10.6549 7.38952 10.8396 9.40344 9.47162C9.59221 9.34284 9.84925 9.39197 9.97752 9.58126C10.1058 9.77003 10.0566 10.0271 9.86787 10.1553C8.58008 11.0304 7.61139 11.4581 6.89716 11.4581C6.62253 11.4581 6.38566 11.395 6.18241 11.2694C5.65333 10.943 5.45576 10.2453 5.59437 9.19596ZM9.64083 14.8943C7.91912 16.2628 6.72649 16.9124 5.9052 16.9124C5.68591 16.9124 5.49352 16.8663 5.32388 16.7753C4.55689 16.3636 4.65309 15.2522 4.68464 14.8871C4.70429 14.6595 4.90496 14.4904 5.13252 14.5106C5.35957 14.5302 5.52817 14.7309 5.50851 14.9579C5.45731 15.5522 5.53231 15.9489 5.71487 16.0471C5.87572 16.133 6.59616 16.2581 9.12623 14.2468C9.30466 14.1051 9.5648 14.1346 9.70703 14.3135C9.84925 14.4919 9.81926 14.7521 9.64083 14.8943ZM9.8265 12.9114C8.20409 13.756 7.04766 14.1671 6.25378 14.1671C5.86899 14.1671 5.56954 14.0704 5.34405 13.8796C4.66447 13.306 5.02598 12.1868 5.14442 11.8196C5.21475 11.6019 5.44749 11.483 5.66471 11.5528C5.88244 11.6231 6.00139 11.8564 5.93157 12.0736C5.73763 12.674 5.71746 13.1131 5.87779 13.2481C6.01277 13.3624 6.6696 13.6231 9.44481 12.1781C9.64703 12.0725 9.89683 12.1512 10.0023 12.3539C10.1078 12.5561 10.0287 12.8059 9.8265 12.9114ZM9.86736 7.42305C8.72903 8.19417 7.86326 8.57585 7.24626 8.57585C7.0337 8.57585 6.85113 8.53034 6.69649 8.44087C6.39342 8.26399 6.23775 7.9273 6.27033 7.51717C6.35411 6.45384 7.69518 4.78592 9.48619 4.09134C9.69927 4.0091 9.93821 4.11461 10.021 4.32769C10.1037 4.54025 9.99769 4.77971 9.78512 4.86246C8.27339 5.44843 7.30367 6.73364 7.1242 7.41787C7.07093 7.61958 7.09938 7.71215 7.1092 7.72405C7.11282 7.72715 7.57777 7.97488 9.40344 6.73829C9.59273 6.61003 9.84977 6.65968 9.97803 6.84897C10.1058 7.03774 10.0566 7.29478 9.86736 7.42305ZM12.0002 16.7153C11.2689 16.7153 10.5283 16.2214 10.5283 15.277C10.5283 15.0489 10.7135 14.8638 10.9415 14.8638C11.1701 14.8638 11.3553 15.0489 11.3553 15.277C11.3553 15.8713 11.934 15.8889 12.0002 15.8889C12.0664 15.8889 12.6452 15.8713 12.6452 15.277C12.6452 15.0489 12.8303 14.8638 13.0589 14.8638C13.287 14.8638 13.4721 15.0489 13.4721 15.277C13.4721 16.2214 12.7315 16.7153 12.0002 16.7153ZM12.0002 13.9825C11.2689 13.9825 10.5283 13.4886 10.5283 12.5447C10.5283 12.3161 10.7135 12.131 10.9415 12.131C11.1701 12.131 11.3553 12.3161 11.3553 12.5447C11.3553 13.139 11.934 13.156 12.0002 13.156C12.0664 13.156 12.6452 13.139 12.6452 12.5447C12.6452 12.3161 12.8303 12.131 13.0589 12.131C13.287 12.131 13.4721 12.3161 13.4721 12.5447C13.4721 13.4886 12.7315 13.9825 12.0002 13.9825ZM12.0002 11.2502C11.2689 11.2502 10.5283 10.7568 10.5283 9.81348C10.5283 9.58488 10.7135 9.39973 10.9415 9.39973C11.1701 9.39973 11.3553 9.58488 11.3553 9.81348C11.3553 10.4067 11.934 10.4238 12.0002 10.4238C12.0664 10.4238 12.6452 10.4067 12.6452 9.81348C12.6452 9.58488 12.8303 9.39973 13.0589 9.39973C13.287 9.39973 13.4721 9.58488 13.4721 9.81348C13.4721 10.7568 12.7315 11.2502 12.0002 11.2502ZM12.0002 8.51793C11.2689 8.51793 10.5283 8.02402 10.5283 7.08067C10.5283 6.85207 10.7135 6.66744 10.9415 6.66744C11.1701 6.66744 11.3553 6.85207 11.3553 7.08067C11.3553 7.67388 11.934 7.69095 12.0002 7.69095C12.0664 7.69095 12.6452 7.67388 12.6452 7.08067C12.6452 6.85207 12.8303 6.66744 13.0589 6.66744C13.287 6.66744 13.4721 6.85207 13.4721 7.08067C13.4721 8.02402 12.7315 8.51793 12.0002 8.51793ZM16.8763 7.41787C16.6968 6.73364 15.7271 5.44843 14.2153 4.86246C14.0028 4.77971 13.8967 4.54025 13.9795 4.32769C14.0622 4.11461 14.3017 4.0091 14.5143 4.09134C16.3053 4.78592 17.6463 6.45384 17.7301 7.51717C17.7627 7.9273 17.607 8.26399 17.304 8.44087C17.1493 8.53034 16.9668 8.57585 16.7542 8.57585C16.1372 8.57585 15.2714 8.19417 14.1331 7.42305C13.9438 7.29478 13.8947 7.03774 14.0224 6.84897C14.1507 6.65968 14.4077 6.61003 14.597 6.73829C16.4227 7.97488 16.8876 7.72715 16.8913 7.72405C16.9011 7.71215 16.9295 7.61958 16.8763 7.41787ZM13.9981 12.3539C14.1036 12.1512 14.3534 12.0725 14.5556 12.1781C17.3309 13.6231 17.9877 13.3624 18.1227 13.2481C18.283 13.1131 18.2628 12.674 18.0689 12.0736C17.9991 11.8564 18.118 11.6231 18.3358 11.5528C18.5525 11.483 18.7857 11.6019 18.856 11.8196C18.9745 12.1868 19.336 13.306 18.6564 13.8796C18.4309 14.0704 18.1309 14.1671 17.7467 14.1671C16.9528 14.1671 15.7964 13.756 14.174 12.9114C13.9717 12.8059 13.8926 12.5561 13.9981 12.3539ZM16.2443 20.0594H14.5965C14.3684 20.0594 14.1833 19.8743 14.1833 19.6462C14.1833 19.4176 14.3684 19.2325 14.5965 19.2325H16.2443C16.4729 19.2325 16.658 19.4176 16.658 19.6462C16.658 19.8743 16.4729 20.0594 16.2443 20.0594ZM18.9202 20.0594H18.2587C18.0306 20.0594 17.8455 19.8743 17.8455 19.6462C17.8455 19.4176 18.0306 19.2325 18.2587 19.2325H18.9202C19.1483 19.2325 19.3334 19.4176 19.3334 19.6462C19.3334 19.8743 19.1483 20.0594 18.9202 20.0594ZM18.6766 16.7753C18.5069 16.8663 18.3145 16.9124 18.0953 16.9124C17.274 16.9124 16.0819 16.2628 14.3596 14.8943C14.1812 14.7521 14.1512 14.4919 14.2934 14.3135C14.4357 14.1346 14.6958 14.1051 14.8742 14.2468C17.4043 16.2581 18.1247 16.1335 18.2856 16.0471C18.4682 15.9489 18.5431 15.5522 18.4919 14.9579C18.4723 14.7309 18.6409 14.5302 18.8679 14.5106C19.095 14.4904 19.2962 14.6595 19.3158 14.8871C19.3474 15.2522 19.4436 16.3636 18.6766 16.7753Z" fill="white"/>
<path d="M0.000517198 16.085C0.000517198 16.6736 0.301519 17.1629 0.826463 17.4266L2.46025 18.251V6.67847C0.86732 8.58068 0 10.9473 0 13.4448V16.085H0.000517198Z" fill="#FFCD69"/>
<path d="M5.78987 21.653C5.21476 21.653 4.67327 21.5061 4.20056 21.2485V22.452H19.7994V21.2485C19.3267 21.5066 18.7852 21.653 18.2101 21.653H5.78987Z" fill="#FFCD69"/>
</svg>
