<svg width="24" height="23" viewBox="0 0 24 23" fill="none" xmlns="http://www.w3.org/2000/svg">
<path d="M14.2171 5.14287C14.9941 5.1459 15.7383 5.45668 16.2866 6.00717C16.835 6.55766 17.1428 7.303 17.1428 8.08V18.9371C17.1428 19.8312 17.498 20.6888 18.1303 21.321C18.7625 21.9533 19.6201 22.3085 20.5142 22.3085H3.37148C2.92681 22.3085 2.48654 22.2205 2.076 22.0497C1.66547 21.8788 1.29279 21.6284 0.979422 21.3129C0.666057 20.9975 0.418199 20.6231 0.25012 20.2114C0.0820416 19.7997 -0.00293722 19.3589 7.74888e-05 18.9142V8.05714C0.00611864 7.27916 0.320585 6.53535 0.874456 5.98898C1.42833 5.44261 2.17635 5.13831 2.95434 5.14287H14.2171Z" fill="#FFCD69"/>
<path d="M9.78288 5.06159e-05C9.00589 0.00307395 8.26175 0.313854 7.71341 0.864344C7.16506 1.41483 6.85718 2.16018 6.85719 2.93717V18.9371C6.85719 19.8312 6.50198 20.6888 5.86972 21.321C5.23746 21.9533 4.37993 22.3085 3.48578 22.3085H20.6285C21.0732 22.3085 21.5135 22.2205 21.924 22.0497C22.3345 21.8788 22.7072 21.6284 23.0206 21.3129C23.334 20.9975 23.5818 20.6231 23.7499 20.2114C23.918 19.7997 24.0029 19.3589 23.9999 18.9142V2.91432C23.9939 2.13633 23.6794 1.39253 23.1256 0.846156C22.5717 0.299784 21.8237 -0.00451374 21.0457 5.06159e-05H9.78288Z" fill="white"/>
<path d="M17.1428 18.9143V8.05724C17.1428 7.27827 16.8334 6.5312 16.2826 5.98038C15.7318 5.42956 14.9847 5.12012 14.2057 5.12012H6.85719V18.9143C6.85719 19.8085 6.50198 20.666 5.86972 21.2983C5.23746 21.9305 4.37993 22.2857 3.48578 22.2857H20.5314C20.0872 22.288 19.647 22.2024 19.2359 22.034C18.8249 21.8656 18.4512 21.6176 18.1363 21.3043C17.8215 20.9911 17.5716 20.6186 17.4011 20.2085C17.2306 19.7983 17.1428 19.3585 17.1428 18.9143Z" fill="white"/>
<path d="M16.7028 18.8571H10.7029C10.5892 18.8571 10.4802 18.812 10.3998 18.7316C10.3194 18.6512 10.2743 18.5422 10.2743 18.4286C10.2743 18.3149 10.3194 18.2059 10.3998 18.1255C10.4802 18.0452 10.5892 18 10.7029 18H16.7028C16.8165 18 16.9255 18.0452 17.0059 18.1255C17.0862 18.2059 17.1314 18.3149 17.1314 18.4286C17.1314 18.5422 17.0862 18.6512 17.0059 18.7316C16.9255 18.812 16.8165 18.8571 16.7028 18.8571Z" fill="#00603A"/>
<path d="M12 14.9999C12 14.8862 11.9548 14.7772 11.8745 14.6968C11.7941 14.6164 11.6851 14.5713 11.5714 14.5713H10.7143C10.6006 14.5713 10.4916 14.6164 10.4112 14.6968C10.3309 14.7772 10.2857 14.8862 10.2857 14.9999C10.2857 15.1135 10.3309 15.2225 10.4112 15.3029C10.4916 15.3833 10.6006 15.4284 10.7143 15.4284H11.5714C11.6851 15.4284 11.7941 15.3833 11.8745 15.3029C11.9548 15.2225 12 15.1135 12 14.9999Z" fill="#00603A"/>
<path d="M20.1371 14.5713H13.28C13.1663 14.5713 13.0573 14.6164 12.977 14.6968C12.8966 14.7772 12.8514 14.8862 12.8514 14.9999C12.8514 15.1135 12.8966 15.2225 12.977 15.3029C13.0573 15.3833 13.1663 15.4284 13.28 15.4284H20.1371C20.2508 15.4284 20.3598 15.3833 20.4402 15.3029C20.5205 15.2225 20.5657 15.1135 20.5657 14.9999C20.5657 14.8862 20.5205 14.7772 20.4402 14.6968C20.3598 14.6164 20.2508 14.5713 20.1371 14.5713Z" fill="#00603A"/>
<path d="M17.9257 8.95429L17.84 8.91429C17.5519 8.77634 17.3098 8.55806 17.1428 8.28572C16.9589 7.99785 16.7055 7.76093 16.4059 7.59682C16.1063 7.4327 15.7701 7.34668 15.4285 7.34668C15.0869 7.34668 14.7508 7.4327 14.4512 7.59682C14.1516 7.76093 13.8982 7.99785 13.7143 8.28572C13.5455 8.54879 13.3058 8.75877 13.0228 8.89143L12.9371 8.93143C11.5486 9.6 11.6286 10.9371 12.1028 11.9143C12.5771 12.8914 13.2457 13.1428 14.6514 12.4857C14.8928 12.3689 15.1575 12.3082 15.4257 12.3082C15.6939 12.3082 15.9586 12.3689 16.2 12.4857C17.5885 13.1543 18.2742 12.9086 18.7485 11.9143C19.2228 10.92 19.3142 9.62286 17.9257 8.95429Z" fill="#00603A"/>
<path d="M13.8971 6.73723C13.8971 7.58294 13.4857 7.96579 12.9771 7.96579C12.4686 7.96579 12.0571 7.58294 12.0571 6.73723C12.0571 5.89152 12.4686 5.20581 12.9771 5.20581C13.4857 5.20581 13.8971 5.89152 13.8971 6.73723Z" fill="#00603A"/>
<path d="M16.3771 5.81706C16.3771 6.66277 15.9657 7.04563 15.4571 7.04563C14.9485 7.04563 14.5371 6.66277 14.5371 5.81706C14.5371 4.97135 14.9428 4.28564 15.4285 4.28564C15.9142 4.28564 16.3771 4.97135 16.3771 5.81706Z" fill="#00603A"/>
<path d="M16.96 6.73723C16.96 7.58294 17.3714 7.96579 17.88 7.96579C18.3885 7.96579 18.7999 7.58294 18.7999 6.73723C18.7999 5.89152 18.3885 5.20581 17.88 5.20581C17.3714 5.20581 16.96 5.89152 16.96 6.73723Z" fill="#00603A"/>
</svg>
