<svg width="31" height="24" viewBox="0 0 31 24" fill="none" xmlns="http://www.w3.org/2000/svg">
<g clip-path="url(#clip0_216_551)">
<g clip-path="url(#clip1_216_551)">
<g clip-path="url(#clip2_216_551)">
<mask id="mask0_216_551" style="mask-type:luminance" maskUnits="userSpaceOnUse" x="0" y="0" width="31" height="24">
<path d="M30.3203 0H0.320312V24H30.3203V0Z" fill="white"/>
</mask>
<g mask="url(#mask0_216_551)">
<path d="M22.5431 24.0004C21.8022 24.0004 21.0681 23.817 20.4028 23.4552C19.3782 22.9001 18.639 21.9898 18.321 20.8945C18.0253 19.8809 18.1233 18.8206 18.5943 17.8803L8.41383 12.3555C7.17264 14.2377 4.60775 14.8812 2.56889 13.7759C0.452685 12.6272 -0.303718 10.0265 0.879022 7.97592C1.51165 6.88062 2.60843 6.12708 3.84618 5.88368C3.37859 4.70001 3.46111 3.35297 4.11608 2.21766C5.31945 0.132079 8.04938 -0.614795 10.2 0.552196C11.2417 1.11735 11.9947 2.04261 12.3179 3.15625C12.6256 4.21155 12.5139 5.31852 12.005 6.29046L22.048 11.7403C22.6359 10.8117 23.5505 10.1399 24.6387 9.84144C25.787 9.52635 26.9938 9.66473 28.0356 10.2299C30.1862 11.3969 30.9564 14.0426 29.753 16.1282C29.098 17.2635 27.9565 18.0371 26.6724 18.2688C27.1056 19.4191 27.0179 20.7195 26.3853 21.8148C25.8128 22.8084 24.8742 23.5252 23.7447 23.8353C23.3476 23.9454 22.9436 24.0004 22.5431 24.0004ZM7.76573 10.4216L20.6315 17.4035L20.157 18.0337C20.0745 18.1421 20.0126 18.2371 19.9576 18.3305C19.5708 19.0007 19.4762 19.7792 19.6911 20.5194C19.906 21.2596 20.4062 21.8748 21.099 22.2499C21.7918 22.625 22.5929 22.7167 23.3562 22.5083C24.1195 22.2999 24.7539 21.8148 25.1406 21.1429C25.7028 20.1693 25.6272 18.954 24.9498 18.0471L24.0353 16.8234L25.5893 16.9534C26.7807 17.0534 27.9273 16.4666 28.5101 15.4563C29.3301 14.0359 28.804 12.2338 27.3394 11.4386C26.6294 11.0534 25.8077 10.9601 25.0255 11.1735C24.2433 11.3885 23.5935 11.8853 23.1963 12.5739C23.1362 12.6789 23.0794 12.7989 23.0176 12.9506L22.7202 13.6908L9.94039 6.75225L10.4355 6.12041C10.5369 5.99204 10.6125 5.88201 10.6727 5.77531C11.0698 5.08679 11.1678 4.2899 10.946 3.53136C10.726 2.77281 10.212 2.14264 9.50202 1.75753C8.03735 0.96231 6.17728 1.47245 5.35727 2.89285C4.7745 3.90313 4.85873 5.15681 5.57044 6.0904L6.49704 7.30574L4.94297 7.18904C3.78945 7.10235 2.68407 7.67584 2.12193 8.65111C1.32255 10.0365 1.83484 11.7937 3.26341 12.5705C4.69198 13.3457 6.50563 12.8489 7.30501 11.4636C7.3583 11.3719 7.40816 11.2668 7.46145 11.1435L7.76573 10.4216Z" fill="#00603A"/>
<path d="M20.1791 14.5409C20.0914 14.5409 20.0003 14.5192 19.9178 14.4742L13.2907 10.8665C13.0328 10.7265 12.9417 10.4097 13.0861 10.1613C13.2305 9.91126 13.5554 9.82291 13.8133 9.96295L20.4404 13.5723C20.6983 13.7123 20.7894 14.0291 20.645 14.2775C20.547 14.4459 20.3665 14.5409 20.1791 14.5409Z" fill="#00603A"/>
</g>
</g>
</g>
</g>
<defs>
<clipPath id="clip0_216_551">
<rect width="31" height="24" fill="white"/>
</clipPath>
<clipPath id="clip1_216_551">
<rect width="31" height="24" fill="white"/>
</clipPath>
<clipPath id="clip2_216_551">
<rect width="31" height="24" fill="white"/>
</clipPath>
</defs>
</svg>
