<svg width="40" height="40" viewBox="0 0 40 40" fill="none" xmlns="http://www.w3.org/2000/svg">
<rect width="40" height="40" rx="20" fill="#00603A"/>
<path d="M21.8336 13.5001H20.6113V12.2779C20.6113 12.1158 20.5469 11.9603 20.4323 11.8457C20.3177 11.7311 20.1623 11.6667 20.0002 11.6667H17.5558C17.3937 11.6667 17.2383 11.7311 17.1237 11.8457C17.009 11.9603 16.9447 12.1158 16.9447 12.2779V13.5001H15.7224C15.5604 13.5001 15.4049 13.5645 15.2903 13.6791C15.1757 13.7937 15.1113 13.9491 15.1113 14.1112V16.5556C15.1113 16.7177 15.1757 16.8732 15.2903 16.9878C15.4049 17.1024 15.5604 17.1667 15.7224 17.1667H16.9447V18.389C16.9447 18.551 17.009 18.7065 17.1237 18.8211C17.2383 18.9357 17.3937 19.0001 17.5558 19.0001H20.0002C20.1623 19.0001 20.3177 18.9357 20.4323 18.8211C20.5469 18.7065 20.6113 18.551 20.6113 18.389V17.1667H21.8336C21.9956 17.1667 22.1511 17.1024 22.2657 16.9878C22.3803 16.8732 22.4447 16.7177 22.4447 16.5556V14.1112C22.4447 13.9491 22.3803 13.7937 22.2657 13.6791C22.1511 13.5645 21.9956 13.5001 21.8336 13.5001ZM21.2224 15.9445H20.0002C19.8381 15.9445 19.6827 16.0089 19.5681 16.1235C19.4535 16.2381 19.3891 16.3936 19.3891 16.5556V17.7779H18.1669V16.5556C18.1669 16.3936 18.1025 16.2381 17.9879 16.1235C17.8733 16.0089 17.7178 15.9445 17.5558 15.9445H16.3336V14.7223H17.5558C17.7178 14.7223 17.8733 14.6579 17.9879 14.5433C18.1025 14.4287 18.1669 14.2733 18.1669 14.1112V12.889H19.3891V14.1112C19.3891 14.2733 19.4535 14.4287 19.5681 14.5433C19.6827 14.6579 19.8381 14.7223 20.0002 14.7223H21.2224V15.9445Z" fill="white"/>
<path d="M26.7149 12.2344C26.7068 12.0884 26.646 11.9503 26.5438 11.8457L22.8772 8.17906C22.7704 8.07497 22.6289 8.01403 22.4799 8.00794C22.4686 8.0043 22.4569 8.00164 22.4451 8H11.4451C11.283 8 11.1276 8.06438 11.013 8.17899C10.8984 8.2936 10.834 8.44903 10.834 8.61111V17.1703C10.834 17.3324 10.8984 17.4878 11.013 17.6025C11.1276 17.7171 11.283 17.7814 11.4451 17.7814C11.6072 17.7814 11.7626 17.7171 11.8772 17.6025C11.9918 17.4878 12.0562 17.3324 12.0562 17.1703V9.22222H21.834V12.2778C21.834 12.4399 21.8984 12.5953 22.013 12.7099C22.1276 12.8245 22.283 12.8889 22.4451 12.8889H25.5007V22.6667C25.5007 22.8287 25.565 22.9842 25.6796 23.0988C25.7942 23.2134 25.9497 23.2778 26.1118 23.2778C26.2738 23.2778 26.4293 23.2134 26.5439 23.0988C26.6585 22.9842 26.7229 22.8287 26.7229 22.6667V12.2778C26.7216 12.2631 26.719 12.2486 26.7149 12.2344ZM23.0562 11.6667V10.0863L24.6365 11.6667H23.0562Z" fill="white"/>
<path d="M30.3889 14.7222H28.5556C28.3935 14.7222 28.238 14.7866 28.1234 14.9012C28.0088 15.0158 27.9444 15.1712 27.9444 15.3333C27.9444 15.4954 28.0088 15.6508 28.1234 15.7654C28.238 15.88 28.3935 15.9444 28.5556 15.9444H29.7778V29.3888C29.7778 29.5509 29.7134 29.7064 29.5988 29.821C29.4842 29.9356 29.3287 29.9999 29.1667 29.9999C29.0046 29.9999 28.8492 29.9356 28.7345 29.821C28.6199 29.7064 28.5556 29.5509 28.5556 29.3888V18.9999C28.5556 18.8379 28.4912 18.6824 28.3766 18.5678C28.262 18.4532 28.1065 18.3888 27.9444 18.3888H18.5126L16.8571 15.6297C16.8027 15.5393 16.726 15.4645 16.6342 15.4125C16.5424 15.3606 16.4388 15.3333 16.3333 15.3333H9.61111C9.44903 15.3333 9.2936 15.3977 9.17899 15.5123C9.06438 15.6269 9 15.7823 9 15.9444V30.6111C9 30.7731 9.06438 30.9286 9.17899 31.0432C9.2936 31.1578 9.44903 31.2222 9.61111 31.2222H29.1667C29.6529 31.2222 30.1192 31.029 30.463 30.6852C30.8068 30.3414 31 29.8751 31 29.3888V15.3333C31 15.1712 30.9356 15.0158 30.821 14.9012C30.7064 14.7866 30.551 14.7222 30.3889 14.7222ZM11.4444 18.9999C11.4444 18.8379 11.5088 18.6824 11.6234 18.5678C11.738 18.4532 11.8935 18.3888 12.0556 18.3888H13.8889C14.051 18.3888 14.2064 18.4532 14.321 18.5678C14.4356 18.6824 14.5 18.8379 14.5 18.9999C14.5 19.162 14.4356 19.3175 14.321 19.4321C14.2064 19.5467 14.051 19.6111 13.8889 19.6111H12.0556C11.8935 19.6111 11.738 19.5467 11.6234 19.4321C11.5088 19.3175 11.4444 19.162 11.4444 18.9999ZM15.1111 29.9999V28.1666H22.4444V29.9999H15.1111Z" fill="#FFCD69"/>
</svg>
