<svg width="40" height="40" viewBox="0 0 40 40" fill="none" xmlns="http://www.w3.org/2000/svg">
<rect width="40" height="40" rx="20" fill="#00603A"/>
<path d="M22.6156 32.6977H12.7896C11.2514 32.6977 10 31.4463 10 29.9081V10.7896C10 9.2514 11.2514 8 12.7896 8H22.6156C24.1538 8 25.4051 9.2514 25.4051 10.7896V15.198C25.4051 15.4112 25.2324 15.5839 25.0192 15.5839C24.8061 15.5839 24.6333 15.4112 24.6333 15.198V10.7896C24.6333 9.67698 23.7282 8.7718 22.6156 8.7718H12.7896C11.677 8.7718 10.7718 9.67698 10.7718 10.7896V29.9081C10.7718 31.0207 11.677 31.9259 12.7896 31.9259H22.6156C23.7282 31.9259 24.6333 31.0207 24.6333 29.9081V25.4997C24.6333 25.2865 24.8061 25.1138 25.0192 25.1138C25.2324 25.1138 25.4051 25.2865 25.4051 25.4997V29.9081C25.4051 31.4463 24.1538 32.6977 22.6156 32.6977Z" fill="white"/>
<path d="M23.7674 29.6108H11.6379C11.4247 29.6108 11.252 29.438 11.252 29.2249V10.8742C11.252 9.97968 11.9796 9.25195 12.874 9.25195H15.0269C15.1706 9.25195 15.3024 9.33182 15.3689 9.45921L15.8846 10.4466C15.9199 10.5139 15.9895 10.5561 16.0657 10.5561H19.3398C19.416 10.5561 19.4853 10.5141 19.5207 10.4465L20.0361 9.45926C20.1026 9.33183 20.2344 9.25195 20.3782 9.25195H22.531C23.4255 9.25195 24.1533 9.97968 24.1533 10.8742V15.2072C24.1533 15.4203 23.9805 15.5931 23.7674 15.5931C23.5542 15.5931 23.3815 15.4203 23.3815 15.2072V10.8742C23.3815 10.4053 22.9999 10.0238 22.531 10.0238H20.612L20.2048 10.8039C20.0357 11.1272 19.7043 11.3279 19.3398 11.3279H16.0658C15.7018 11.3279 15.3704 11.1274 15.2009 10.8047L14.7931 10.0238H12.874C12.4052 10.0238 12.0238 10.4053 12.0238 10.8742V28.839H23.3815V25.4912C23.3815 25.278 23.5542 25.1053 23.7674 25.1053C23.9805 25.1053 24.1533 25.278 24.1533 25.4912V29.2249C24.1533 29.438 23.9805 29.6108 23.7674 29.6108Z" fill="white"/>
<path d="M18.4411 10.0238H16.9621C16.7489 10.0238 16.5762 9.85098 16.5762 9.63785C16.5762 9.42472 16.7489 9.25195 16.9621 9.25195H18.4411C18.6542 9.25195 18.827 9.42472 18.827 9.63785C18.827 9.85098 18.6542 10.0238 18.4411 10.0238Z" fill="white"/>
<path d="M20.0187 31.1539H15.3879C15.1747 31.1539 15.002 30.9811 15.002 30.768C15.002 30.5549 15.1747 30.3821 15.3879 30.3821H20.0187C20.2318 30.3821 20.4046 30.5549 20.4046 30.768C20.4046 30.9811 20.2318 31.1539 20.0187 31.1539Z" fill="white"/>
<path d="M24.4292 25.919C23.6775 25.919 22.948 25.7717 22.2611 25.4811C21.5978 25.2006 21.0022 24.799 20.4907 24.2876C19.9793 23.7762 19.5778 23.1806 19.2972 22.5173C19.0067 21.8304 18.8594 21.1009 18.8594 20.3491C18.8594 19.5974 19.0067 18.8679 19.2972 18.181C19.5778 17.5177 19.9793 16.9221 20.4907 16.4107C21.0022 15.8993 21.5978 15.4977 22.2611 15.2172C22.948 14.9266 23.6775 14.7793 24.4292 14.7793C25.181 14.7793 25.9104 14.9266 26.5974 15.2172C27.2607 15.4977 27.8563 15.8993 28.3677 16.4107C28.8791 16.9221 29.2806 17.5177 29.5612 18.181C29.8517 18.8679 29.9991 19.5974 29.9991 20.3491C29.9991 21.1009 29.8517 21.8304 29.5612 22.5173C29.2807 23.1806 28.8791 23.7762 28.3677 24.2876C27.8563 24.799 27.2607 25.2006 26.5974 25.4811C25.9104 25.7717 25.1809 25.919 24.4292 25.919ZM24.4292 15.5511C21.7836 15.5511 19.6312 17.7035 19.6312 20.3492C19.6312 22.9948 21.7836 25.1472 24.4292 25.1472C27.0748 25.1472 29.2272 22.9948 29.2272 20.3492C29.2272 17.7035 27.0748 15.5511 24.4292 15.5511Z" fill="#FFCD69"/>
<path d="M25.5696 23.925H23.2876C22.3773 23.925 21.6367 23.1845 21.6367 22.2742C21.6367 21.6972 21.9444 21.1543 22.4397 20.8575C22.693 20.7057 22.7893 20.5943 22.9304 20.2902C23.2001 19.709 23.7881 19.3335 24.4286 19.3335C25.0691 19.3335 25.6572 19.709 25.9268 20.2902C26.0679 20.5943 26.1642 20.7057 26.4174 20.8575C26.9128 21.1544 27.2205 21.6972 27.2205 22.2742C27.2205 23.1845 26.4799 23.925 25.5696 23.925ZM24.4286 20.1053C24.0875 20.1053 23.7742 20.3054 23.6305 20.615C23.4246 21.0588 23.2242 21.2871 22.8365 21.5195C22.5685 21.6801 22.4085 21.9622 22.4085 22.2742C22.4085 22.7589 22.8029 23.1533 23.2876 23.1533H25.5696C26.0543 23.1533 26.4487 22.7589 26.4487 22.2742C26.4487 21.9623 26.2887 21.6801 26.0206 21.5195C25.6329 21.2871 25.4326 21.0588 25.2267 20.615C25.083 20.3054 24.7697 20.1053 24.4286 20.1053Z" fill="#FFCD69"/>
<path d="M23.2277 19.3194C22.9717 19.3194 22.7161 19.2148 22.5069 19.0204C22.2793 18.8089 22.121 18.508 22.0612 18.173C22.0013 17.8381 22.0456 17.5009 22.1858 17.2237C22.3422 16.9144 22.6087 16.7055 22.9168 16.6504C23.225 16.5954 23.5473 16.6991 23.8011 16.935C24.0287 17.1465 24.187 17.4474 24.2469 17.7823C24.3067 18.1173 24.2625 18.4544 24.1223 18.7316C23.9658 19.0409 23.6994 19.2499 23.3913 19.3049C23.337 19.3146 23.2823 19.3194 23.2277 19.3194ZM23.0813 17.4077C23.0716 17.4077 23.062 17.4085 23.0526 17.4102C23.0526 17.4102 23.0526 17.4102 23.0526 17.4102C22.9605 17.4266 22.9015 17.5187 22.8745 17.5721C22.8103 17.699 22.7908 17.8685 22.8209 18.0372C22.8755 18.3426 23.0726 18.5477 23.2267 18.5477C23.2365 18.5477 23.2461 18.5469 23.2554 18.5452C23.4127 18.5171 23.5451 18.243 23.4871 17.9181C23.4325 17.6128 23.2354 17.4077 23.0813 17.4077Z" fill="#FFCD69"/>
<path d="M21.5195 21.0429C21.3541 21.0429 21.1842 21.0003 21.0234 20.9158C20.7625 20.7788 20.543 20.5429 20.4052 20.2516C20.2675 19.9603 20.2244 19.641 20.2839 19.3524C20.3507 19.0284 20.5444 18.7691 20.8152 18.6409C21.0861 18.5128 21.4094 18.5276 21.7022 18.6815C21.9631 18.8186 22.1826 19.0545 22.3204 19.3458C22.4581 19.637 22.5012 19.9563 22.4417 20.245C22.3749 20.569 22.1812 20.8283 21.9104 20.9564C21.7882 21.0141 21.6554 21.0429 21.5195 21.0429ZM21.1452 19.3386C21.0773 19.3708 21.05 19.4587 21.0398 19.5082C21.0142 19.6321 21.0373 19.7828 21.1029 19.9216C21.1686 20.0604 21.2704 20.1738 21.3824 20.2326C21.4271 20.2561 21.5124 20.2908 21.5804 20.2587C21.6483 20.2266 21.6756 20.1387 21.6858 20.0891C21.7113 19.9653 21.6883 19.8146 21.6227 19.6758C21.557 19.5369 21.4551 19.4236 21.3432 19.3647C21.2984 19.3412 21.2132 19.3065 21.1452 19.3386Z" fill="#FFCD69"/>
<path d="M25.6292 19.3194C25.5745 19.3194 25.5199 19.3147 25.4656 19.305C25.1575 19.2499 24.891 19.0409 24.7346 18.7317C24.5944 18.4545 24.5501 18.1173 24.61 17.7824C24.6699 17.4474 24.8282 17.1465 25.0557 16.935C25.3096 16.6991 25.6319 16.5954 25.94 16.6504C26.2482 16.7055 26.5146 16.9145 26.6711 17.2237C26.8113 17.501 26.8556 17.8381 26.7957 18.173C26.7358 18.508 26.5775 18.8089 26.35 19.0204C26.1408 19.2148 25.8851 19.3194 25.6292 19.3194ZM25.7755 17.4077C25.6215 17.4077 25.4244 17.6128 25.3698 17.9182C25.3117 18.243 25.4442 18.5171 25.6014 18.5452C25.7585 18.5732 25.9779 18.3621 26.0359 18.0372C26.0661 17.8685 26.0466 17.699 25.9824 17.5721C25.9554 17.5187 25.8963 17.4267 25.8043 17.4102C25.8043 17.4102 25.8043 17.4102 25.8043 17.4102C25.7949 17.4085 25.7853 17.4077 25.7755 17.4077Z" fill="#FFCD69"/>
<path d="M27.3389 21.0428C27.203 21.0428 27.0702 21.0141 26.948 20.9564C26.6772 20.8282 26.4835 20.569 26.4167 20.2449C26.3572 19.9563 26.4003 19.637 26.538 19.3457C26.6758 19.0545 26.8953 18.8186 27.1562 18.6815C27.449 18.5276 27.7723 18.5128 28.0432 18.6409C28.314 18.769 28.5077 19.0283 28.5745 19.3524C28.634 19.641 28.5909 19.9603 28.4532 20.2516C28.3154 20.5428 28.0959 20.7787 27.835 20.9158C27.6743 21.0003 27.5043 21.0428 27.3389 21.0428ZM27.6513 19.3256C27.5993 19.3256 27.547 19.348 27.5152 19.3647C27.4033 19.4235 27.3014 19.5369 27.2358 19.6757C27.1701 19.8145 27.1471 19.9652 27.1726 20.0891C27.1828 20.1386 27.2101 20.2265 27.278 20.2586C27.3459 20.2908 27.4312 20.2561 27.476 20.2326C27.588 20.1737 27.6898 20.0604 27.7555 19.9215C27.8211 19.7827 27.8442 19.6321 27.8186 19.5082C27.8084 19.4586 27.7811 19.3707 27.7132 19.3386C27.6935 19.3293 27.6724 19.3256 27.6513 19.3256Z" fill="#FFCD69"/>
</svg>
