<svg width="40" height="40" viewBox="0 0 40 40" fill="none" xmlns="http://www.w3.org/2000/svg">
<rect width="40" height="40" rx="20" fill="#00603A"/>
<path d="M31.143 26.3671C31.6685 26.1028 31.97 25.6141 31.97 25.0255V22.3847C31.97 19.8873 31.1032 17.5206 29.5098 15.6184V27.1904L31.143 26.3671Z" fill="#FFCD69"/>
<path d="M21.6722 8.93994H18.2712L17.709 10.6182H22.2344L21.6722 8.93994Z" fill="#FFCD69"/>
<path d="M26.1807 11.4451H13.76C12.3801 11.4451 11.2578 12.5684 11.2578 13.9493V27.2622C11.2578 27.9645 11.5485 28.5996 12.0155 29.0547C12.0336 29.0692 12.0507 29.0858 12.0662 29.1033C12.512 29.5145 13.1073 29.7664 13.76 29.7664H26.1807C26.8334 29.7664 27.4287 29.5145 27.8745 29.1033C27.89 29.0858 27.9071 29.0692 27.9252 29.0547C28.3922 28.5996 28.6828 27.9645 28.6828 27.2622V13.9493C28.6828 12.5684 27.5605 11.4451 26.1807 11.4451ZM26.3762 18.1359C26.5148 19.1853 26.3172 19.883 25.7881 20.2093C25.5849 20.335 25.348 20.3981 25.0734 20.3981C24.3592 20.3981 23.3905 19.9704 22.1027 19.0953C21.9139 18.967 21.8648 18.71 21.993 18.5212C22.1213 18.3319 22.3783 18.2828 22.5671 18.4116C24.581 19.7795 25.2094 19.5949 25.3542 19.5059C25.5709 19.372 25.6449 18.9122 25.5564 18.2445C25.5264 18.018 25.6857 17.8106 25.9123 17.7806C26.1383 17.7506 26.3462 17.9099 26.3762 18.1359ZM13.5645 18.1359C13.5945 17.9099 13.8024 17.7506 14.0284 17.7806C14.2549 17.8106 14.4142 18.018 14.3842 18.2445C14.2958 18.9122 14.3697 19.372 14.5864 19.5059C14.7312 19.5949 15.3596 19.7795 17.3735 18.4116C17.5623 18.2828 17.8193 18.3319 17.9476 18.5212C18.0759 18.71 18.0267 18.967 17.838 19.0953C16.5502 19.9704 15.5815 20.3981 14.8673 20.3981C14.5926 20.3981 14.3558 20.335 14.1525 20.2093C13.6234 19.883 13.4259 19.1853 13.5645 18.1359ZM17.6109 23.8343C15.8892 25.2027 14.6966 25.8523 13.8753 25.8523C13.656 25.8523 13.4636 25.8063 13.294 25.7153C12.527 25.3036 12.6232 24.1921 12.6547 23.827C12.6744 23.5994 12.8751 23.4303 13.1026 23.4505C13.3297 23.4702 13.4983 23.6708 13.4786 23.8979C13.4274 24.4921 13.5024 24.8888 13.685 24.9871C13.8458 25.0729 14.5662 25.1981 17.0963 23.1867C17.2748 23.045 17.5349 23.0745 17.6771 23.2535C17.8193 23.4319 17.7894 23.692 17.6109 23.8343ZM17.7966 21.8514C16.1742 22.6959 15.0178 23.1071 14.2239 23.1071C13.8391 23.1071 13.5396 23.0104 13.3141 22.8195C12.6346 22.246 12.9961 21.1268 13.1145 20.7596C13.1848 20.5418 13.4176 20.4229 13.6348 20.4927C13.8525 20.5631 13.9715 20.7963 13.9017 21.0135C13.7077 21.614 13.6876 22.0531 13.8479 22.188C13.9829 22.3023 14.6397 22.563 17.4149 21.118C17.6171 21.0125 17.8669 21.0911 17.9724 21.2938C18.0779 21.4961 17.9988 21.7459 17.7966 21.8514ZM17.8374 16.363C16.6991 17.1341 15.8334 17.5158 15.2164 17.5158C15.0038 17.5158 14.8212 17.4703 14.6666 17.3808C14.3635 17.2039 14.2078 16.8672 14.2404 16.4571C14.3242 15.3938 15.6653 13.7259 17.4563 13.0313C17.6694 12.949 17.9083 13.0546 17.9911 13.2676C18.0738 13.4802 17.9678 13.7197 17.7552 13.8024C16.2435 14.3884 15.2738 15.6736 15.0943 16.3578C15.041 16.5595 15.0695 16.6521 15.0793 16.664C15.0829 16.6671 15.5479 16.9148 17.3735 15.6782C17.5628 15.55 17.8199 15.5996 17.9481 15.7889C18.0759 15.9777 18.0267 16.2347 17.8374 16.363ZM19.9703 25.6553C19.239 25.6553 18.4984 25.1613 18.4984 24.217C18.4984 23.9889 18.6836 23.8037 18.9116 23.8037C19.1402 23.8037 19.3254 23.9889 19.3254 24.217C19.3254 24.8112 19.9041 24.8288 19.9703 24.8288C20.0365 24.8288 20.6153 24.8112 20.6153 24.217C20.6153 23.9889 20.8004 23.8037 21.029 23.8037C21.2571 23.8037 21.4422 23.9889 21.4422 24.217C21.4422 25.1613 20.7016 25.6553 19.9703 25.6553ZM19.9703 22.9225C19.239 22.9225 18.4984 22.4285 18.4984 21.4847C18.4984 21.2561 18.6836 21.0709 18.9116 21.0709C19.1402 21.0709 19.3254 21.2561 19.3254 21.4847C19.3254 22.0789 19.9041 22.096 19.9703 22.096C20.0365 22.096 20.6153 22.0789 20.6153 21.4847C20.6153 21.2561 20.8004 21.0709 21.029 21.0709C21.2571 21.0709 21.4422 21.2561 21.4422 21.4847C21.4422 22.4285 20.7016 22.9225 19.9703 22.9225ZM19.9703 20.1902C19.239 20.1902 18.4984 19.6968 18.4984 18.7534C18.4984 18.5248 18.6836 18.3397 18.9116 18.3397C19.1402 18.3397 19.3254 18.5248 19.3254 18.7534C19.3254 19.3466 19.9041 19.3637 19.9703 19.3637C20.0365 19.3637 20.6153 19.3466 20.6153 18.7534C20.6153 18.5248 20.8004 18.3397 21.029 18.3397C21.2571 18.3397 21.4422 18.5248 21.4422 18.7534C21.4422 19.6968 20.7016 20.1902 19.9703 20.1902ZM19.9703 17.4579C19.239 17.4579 18.4984 16.964 18.4984 16.0206C18.4984 15.792 18.6836 15.6074 18.9116 15.6074C19.1402 15.6074 19.3254 15.792 19.3254 16.0206C19.3254 16.6138 19.9041 16.6309 19.9703 16.6309C20.0365 16.6309 20.6153 16.6138 20.6153 16.0206C20.6153 15.792 20.8004 15.6074 21.029 15.6074C21.2571 15.6074 21.4422 15.792 21.4422 16.0206C21.4422 16.964 20.7016 17.4579 19.9703 17.4579ZM24.8463 16.3578C24.6669 15.6736 23.6972 14.3884 22.1854 13.8024C21.9729 13.7197 21.8668 13.4802 21.9496 13.2676C22.0323 13.0546 22.2718 12.949 22.4844 13.0313C24.2754 13.7259 25.6164 15.3938 25.7002 16.4571C25.7328 16.8672 25.5771 17.2039 25.2741 17.3808C25.1194 17.4703 24.9369 17.5158 24.7243 17.5158C24.1073 17.5158 23.2415 17.1341 22.1032 16.363C21.9139 16.2347 21.8648 15.9777 21.9925 15.7889C22.1208 15.5996 22.3778 15.55 22.5671 15.6782C24.3928 16.9148 24.8577 16.6671 24.8613 16.664C24.8712 16.6521 24.8996 16.5595 24.8463 16.3578ZM21.9682 21.2938C22.0737 21.0911 22.3235 21.0125 22.5257 21.118C25.301 22.563 25.9578 22.3023 26.0928 22.188C26.2531 22.0531 26.2329 21.614 26.039 21.0135C25.9692 20.7963 26.0881 20.5631 26.3058 20.4927C26.5225 20.4229 26.7558 20.5418 26.8261 20.7596C26.9446 21.1268 27.3061 22.246 26.6265 22.8195C26.401 23.0104 26.101 23.1071 25.7168 23.1071C24.9229 23.1071 23.7665 22.6959 22.1441 21.8514C21.9418 21.7459 21.8627 21.4961 21.9682 21.2938ZM24.2143 28.9994H22.5666C22.3385 28.9994 22.1534 28.8142 22.1534 28.5862C22.1534 28.3576 22.3385 28.1724 22.5666 28.1724H24.2143C24.4429 28.1724 24.6281 28.3576 24.6281 28.5862C24.6281 28.8142 24.4429 28.9994 24.2143 28.9994ZM26.8903 28.9994H26.2288C26.0007 28.9994 25.8156 28.8142 25.8156 28.5862C25.8156 28.3576 26.0007 28.1724 26.2288 28.1724H26.8903C27.1183 28.1724 27.3035 28.3576 27.3035 28.5862C27.3035 28.8142 27.1183 28.9994 26.8903 28.9994ZM26.6467 25.7153C26.477 25.8063 26.2846 25.8523 26.0654 25.8523C25.2441 25.8523 24.052 25.2027 22.3297 23.8343C22.1513 23.692 22.1213 23.4319 22.2635 23.2535C22.4057 23.0745 22.6659 23.045 22.8443 23.1867C25.3744 25.1981 26.0948 25.0734 26.2557 24.9871C26.4382 24.8888 26.5132 24.4921 26.462 23.8979C26.4424 23.6708 26.611 23.4702 26.838 23.4505C27.0651 23.4303 27.2663 23.5994 27.2859 23.827C27.3175 24.1921 27.4137 25.3036 26.6467 25.7153Z" fill="white"/>
<path d="M7.97122 25.025C7.97122 25.6135 8.27222 26.1028 8.79717 26.3666L10.431 27.191V15.6184C8.83802 17.5206 7.9707 19.8873 7.9707 22.3847V25.025H7.97122Z" fill="#FFCD69"/>
<path d="M13.7612 30.5929C13.1861 30.5929 12.6446 30.446 12.1719 30.1885V31.392H27.7707V30.1885C27.298 30.4466 26.7565 30.5929 26.1814 30.5929H13.7612Z" fill="#FFCD69"/>
</svg>
