<svg width="40" height="40" viewBox="0 0 40 40" fill="none" xmlns="http://www.w3.org/2000/svg">
<rect width="40" height="40" rx="20" fill="#00603A"/>
<path fill-rule="evenodd" clip-rule="evenodd" d="M20.0001 7H18.5532C18.1233 7 17.7729 7.35042 17.7729 7.77869V8.86891C16.8494 9.09472 15.9523 9.46069 15.1175 9.96841L14.3482 9.19752C14.0444 8.8938 13.5492 8.8938 13.2455 9.19752L11.1991 11.2455C10.8954 11.5477 10.8954 12.0429 11.1991 12.3466L11.97 13.1175C11.4607 13.9523 11.0947 14.8494 10.8704 15.7729H9.78029C9.35042 15.7729 9 16.1234 9 16.5516V19.4469C9 19.8751 9.35042 20.2256 9.78029 20.2256H10.8704C11.0526 20.9762 11.3283 21.7082 11.6974 22.4028H14.1457L15.5053 22.2003C13.2471 19.7879 13.2953 16.0018 15.6486 13.6486C18.0517 11.2455 21.9484 11.2455 24.3514 13.6486C26.7046 16.0019 26.7529 19.7879 24.4946 22.2003L25.8543 22.4028H28.3026C28.6717 21.7082 28.9474 20.9762 29.1296 20.2256H30.2197C30.6496 20.2256 31 19.8751 31 19.4469V16.5516C31 16.1234 30.6496 15.7729 30.2197 15.7729H29.1296C28.9053 14.8494 28.5377 13.9523 28.03 13.1175L28.8009 12.3466C29.1046 12.0429 29.1046 11.5477 28.8009 11.2455L26.7545 9.19752C26.4508 8.8938 25.9555 8.8938 25.6518 9.19752L24.8825 9.96841C24.0477 9.46069 23.1507 9.09472 22.2271 8.86891V7.77869C22.2271 7.35042 21.8767 7 21.4468 7H20H20.0001Z" fill="white"/>
<path fill-rule="evenodd" clip-rule="evenodd" d="M23.8839 14.1143C26.1063 16.3352 26.016 19.964 23.6814 22.0774L22.4837 21.8983C21.8608 21.8064 21.2845 21.9528 20.7846 22.3359L20.3111 22.6972L20.3096 22.6957L19.9919 22.9402L19.2225 22.3468C18.7226 21.959 18.1417 21.8095 17.5156 21.9014L16.3211 22.0789C13.9834 19.9686 13.8915 16.3367 16.1155 14.1143C18.26 11.9697 21.7393 11.9698 23.8839 14.1143ZM20.3298 21.3049C20.3298 21.4871 20.1819 21.6351 19.9997 21.6351C19.8175 21.6351 19.6695 21.4871 19.6695 21.3049V20.7863C18.8394 20.654 18.1339 20.0076 18.1339 19.1542C18.1339 18.9735 18.2819 18.8256 18.464 18.8256C18.6462 18.8256 18.7942 18.9735 18.7942 19.1542C18.7942 20.0481 20.118 20.4951 20.8702 19.8457C21.0774 19.6666 21.205 19.4221 21.205 19.1542C21.205 17.5858 18.3332 18.7664 18.3332 16.6717C18.3332 15.9195 18.9437 15.3463 19.6694 15.2155V14.6937C19.6694 14.5116 19.8174 14.3635 19.9996 14.3635C20.1817 14.3635 20.3297 14.5115 20.3297 14.6937V15.2155C21.0554 15.3463 21.666 15.9194 21.666 16.6717C21.666 16.8539 21.518 17.0019 21.3358 17.0019C21.1536 17.0019 21.0057 16.8539 21.0057 16.6717C21.0057 15.9319 19.8968 15.5612 19.2692 16.1032C19.0994 16.2512 18.9935 16.4521 18.9935 16.6717C18.9935 18.0375 21.8638 16.9193 21.8638 19.1542C21.8638 20.0076 21.1599 20.654 20.3298 20.7863V21.3049H20.3298Z" fill="#FFCD69"/>
<path d="M15.197 31.6803L16.9133 29.964C17.2746 29.6042 16.3729 28.7025 16.0115 29.0638L14.2968 30.7801C13.9355 31.1414 14.8357 32.0416 15.197 31.6803Z" fill="white"/>
<path d="M14.7052 29.4377C15.0665 29.0764 14.1663 28.1747 13.8034 28.536H13.8049L12.9998 29.3411C12.735 29.6059 13.0979 30.0793 13.4094 30.246C13.5807 30.3378 13.7629 30.3628 13.8859 30.2569L14.7051 29.4377L14.7052 29.4377Z" fill="white"/>
<path d="M20.1052 32.8189L21.4446 33.783C21.8604 34.0819 22.608 33.0463 22.1906 32.7473L19.7797 30.9858C19.6333 30.8784 19.6006 30.6744 19.7081 30.528C19.8139 30.38 20.0195 30.3489 20.1659 30.4548L22.5753 32.2146L22.907 32.4529C23.3213 32.752 24.0688 31.7162 23.653 31.4173L20.8622 29.3786C20.7158 29.2728 20.6831 29.0672 20.7905 28.9207C20.8965 28.7743 21.102 28.7416 21.2484 28.8491L24.0362 30.8846L24.4208 31.1603C24.8195 31.4484 25.6138 30.447 25.1247 30.095L22.2482 27.9941C22.1018 27.8866 22.0691 27.681 22.175 27.5347C22.2825 27.3882 22.488 27.3555 22.6344 27.463L25.5079 29.5624C25.8474 29.8054 26.6416 28.8039 26.2118 28.4956L24.8242 27.4973C24.8179 27.4926 24.8117 27.488 24.8055 27.4833L22.3354 25.5786C22.0675 25.3714 21.714 25.3714 21.4446 25.577L19.9588 26.7124C18.7035 27.6702 16.9 25.306 18.1537 24.3482L19.4526 23.3561L18.8218 22.8686C18.4621 22.5914 18.0634 22.4871 17.6133 22.5541L14.173 23.0618H11.7559V27.6141C12.3274 27.6141 12.7215 27.5674 13.2214 27.924L13.3787 28.0346C14.0437 27.4303 15.0467 28.0408 15.3566 28.7868L15.545 28.5984C16.3082 27.8384 17.5837 28.7666 17.6553 29.687C18.4247 29.7477 19.2034 30.6495 18.99 31.3924C19.5787 31.5746 20.1238 32.2038 20.1051 32.819L20.1052 32.8189Z" fill="white"/>
<path d="M11.0956 27.9738V22.512H9.01953V28.1638H11.0956V27.9738Z" fill="#FFCD69"/>
<path d="M26.6649 28.0172C26.8705 27.8708 27.0044 27.7727 27.2551 27.6918C27.5775 27.589 27.9248 27.6139 28.2612 27.6139V23.0616C27.9778 23.0616 25.8722 23.0725 25.7772 23.0553L22.3867 22.5507C21.9382 22.4837 21.5442 22.585 21.1844 22.8591L20.1908 23.6176L18.5508 24.8713C17.9948 25.2965 19.0025 26.6141 19.5585 26.1889L21.0442 25.0535C21.5488 24.6688 22.2325 24.6704 22.7356 25.0582L25.2072 26.9644L26.5948 27.9627C26.6198 27.9799 26.6431 27.9986 26.6649 28.0172Z" fill="white"/>
<path d="M19.3847 32.9356L19.2164 32.8048C19.0467 32.6771 19.0389 32.4247 19.2024 32.2892C19.0202 32.0961 18.6667 31.8828 18.4642 32.0774L17.6372 32.906C17.4627 33.096 17.6543 33.4355 17.8303 33.6115C18.0078 33.789 18.3536 33.9931 18.5545 33.7906H18.553L19.394 32.9418C19.3908 32.9403 19.3878 32.9371 19.3847 32.9356Z" fill="white"/>
<path d="M28.9219 22.512H30.9995V28.1638H28.9219V22.512Z" fill="#FFCD69"/>
<path d="M17.3774 30.4313L15.9959 31.8127C15.6346 32.174 16.5363 33.0743 16.8977 32.7129L17.991 31.6196L18.2776 31.3315C18.6404 30.9702 17.7387 30.07 17.3774 30.4313Z" fill="white"/>
</svg>
