<svg width="40" height="40" viewBox="0 0 40 40" fill="none" xmlns="http://www.w3.org/2000/svg">
<rect width="40" height="40" rx="20" fill="#00603A"/>
<path d="M20.7435 14.7145H12.338C11.6558 14.7145 11.0977 14.1564 11.0977 13.4742V12.056C11.0977 11.3738 11.6558 10.8157 12.338 10.8157H20.7435C21.4257 10.8157 21.9839 11.3738 21.9839 12.056V13.4742C21.9839 14.1564 21.4257 14.7145 20.7435 14.7145ZM12.338 11.6426C12.1106 11.6426 11.9246 11.8286 11.9246 12.056V13.4742C11.9246 13.7016 12.1106 13.8876 12.338 13.8876H20.7435C20.9709 13.8876 21.157 13.7016 21.157 13.4742V12.056C21.157 11.8286 20.9709 11.6426 20.7435 11.6426H12.338Z" fill="white"/>
<path d="M19.1708 11.6425H13.9076C13.6802 11.6425 13.4941 11.4564 13.4941 11.229V10.5055C13.4941 9.8233 14.0523 9.26514 14.7345 9.26514H18.3439C19.0261 9.26514 19.5843 9.8233 19.5843 10.5055V11.229C19.5843 11.4564 19.3982 11.6425 19.1708 11.6425ZM14.321 10.8156H18.7574V10.5055C18.7574 10.2781 18.5713 10.092 18.3439 10.092H14.7345C14.5071 10.092 14.321 10.2781 14.321 10.5055V10.8156Z" fill="white"/>
<path d="M23.0993 32.799H9.98044C8.88892 32.799 8 31.91 8 30.8185V14.0117C8 12.9202 8.88892 12.0312 9.98044 12.0312H11.5102C11.7376 12.0312 11.9237 12.2173 11.9237 12.4447C11.9237 12.6721 11.7417 12.8582 11.5102 12.8582H9.9763C9.33959 12.8582 8.82277 13.375 8.82277 14.0117V30.8185C8.82277 31.4552 9.33959 31.9721 9.9763 31.9721H23.0951C23.3225 31.9721 23.5086 32.1581 23.5086 32.3855C23.5086 32.6129 23.3225 32.799 23.0951 32.799H23.0993Z" fill="white"/>
<path d="M24.6667 17.9974C24.4393 17.9974 24.2532 17.8113 24.2532 17.5839V14.0075C24.2532 13.7057 24.1375 13.4246 23.9307 13.2137C23.7157 12.9822 23.4139 12.854 23.0956 12.854H21.5658C21.3384 12.854 21.1523 12.668 21.1523 12.4406C21.1523 12.2132 21.3384 12.0271 21.5658 12.0271H23.0956C23.6413 12.0271 24.1623 12.2504 24.5302 12.6431C24.8817 13.007 25.0801 13.4907 25.0801 14.0075V17.5839C25.0801 17.8113 24.8941 17.9974 24.6667 17.9974Z" fill="white"/>
<path d="M12.1346 18.9318H11.6095C10.9273 18.9318 10.3691 18.3737 10.3691 17.6915V17.1664C10.3691 16.4842 10.9273 15.926 11.6095 15.926H12.1346C12.8168 15.926 13.3749 16.4842 13.3749 17.1664V17.6915C13.3749 18.3737 12.8168 18.9318 12.1346 18.9318ZM11.6095 16.7529C11.3821 16.7529 11.196 16.939 11.196 17.1664V17.6915C11.196 17.9189 11.3821 18.1049 11.6095 18.1049H12.1346C12.362 18.1049 12.548 17.9189 12.548 17.6915V17.1664C12.548 16.939 12.362 16.7529 12.1346 16.7529H11.6095Z" fill="white"/>
<path d="M21.5116 18.9316H14.64C14.4126 18.9316 14.2266 18.7456 14.2266 18.5182C14.2266 18.2908 14.4126 18.1047 14.64 18.1047H21.5157C21.7431 18.1047 21.9292 18.2908 21.9292 18.5182C21.9292 18.7456 21.7431 18.9316 21.5157 18.9316H21.5116Z" fill="white"/>
<path d="M12.1346 22.5703H11.6095C10.9273 22.5703 10.3691 22.0121 10.3691 21.3299V20.8048C10.3691 20.1226 10.9273 19.5645 11.6095 19.5645H12.1346C12.8168 19.5645 13.3749 20.1226 13.3749 20.8048V21.3299C13.3749 22.0121 12.8168 22.5703 12.1346 22.5703ZM11.6095 20.3914C11.3821 20.3914 11.196 20.5774 11.196 20.8048V21.3299C11.196 21.5573 11.3821 21.7433 11.6095 21.7433H12.1346C12.362 21.7433 12.548 21.5573 12.548 21.3299V20.8048C12.548 20.5774 12.362 20.3914 12.1346 20.3914H11.6095Z" fill="white"/>
<path d="M21.3423 22.5701H14.6361C14.4087 22.5701 14.2227 22.384 14.2227 22.1566C14.2227 21.9292 14.4087 21.7432 14.6361 21.7432H21.3423C21.5697 21.7432 21.7558 21.9292 21.7558 22.1566C21.7558 22.384 21.5697 22.5701 21.3423 22.5701Z" fill="white"/>
<path d="M12.1346 26.2045H11.6095C10.9273 26.2045 10.3691 25.6464 10.3691 24.9642V24.4391C10.3691 23.7569 10.9273 23.1987 11.6095 23.1987H12.1346C12.8168 23.1987 13.3749 23.7569 13.3749 24.4391V24.9642C13.3749 25.6464 12.8168 26.2045 12.1346 26.2045ZM11.6095 24.0256C11.3821 24.0256 11.196 24.2117 11.196 24.4391V24.9642C11.196 25.1916 11.3821 25.3776 11.6095 25.3776H12.1346C12.362 25.3776 12.548 25.1916 12.548 24.9642V24.4391C12.548 24.2117 12.362 24.0256 12.1346 24.0256H11.6095Z" fill="white"/>
<path d="M20.5361 26.2043H14.6361C14.4087 26.2043 14.2227 26.0183 14.2227 25.7909C14.2227 25.5635 14.4087 25.3774 14.6361 25.3774H20.5361C20.7635 25.3774 20.9495 25.5635 20.9495 25.7909C20.9495 26.0183 20.7635 26.2043 20.5361 26.2043Z" fill="white"/>
<path d="M12.1346 29.8427H11.6095C10.9273 29.8427 10.3691 29.2846 10.3691 28.6024V28.0773C10.3691 27.3951 10.9273 26.8369 11.6095 26.8369H12.1346C12.8168 26.8369 13.3749 27.3951 13.3749 28.0773V28.6024C13.3749 29.2846 12.8168 29.8427 12.1346 29.8427ZM11.6095 27.6638C11.3821 27.6638 11.196 27.8499 11.196 28.0773V28.6024C11.196 28.8298 11.3821 29.0158 11.6095 29.0158H12.1346C12.362 29.0158 12.548 28.8298 12.548 28.6024V28.0773C12.548 27.8499 12.362 27.6638 12.1346 27.6638H11.6095Z" fill="white"/>
<path d="M20.5358 29.8428H14.64C14.4126 29.8428 14.2266 29.6567 14.2266 29.4293C14.2266 29.2019 14.4126 29.0159 14.64 29.0159H20.5358C20.7632 29.0159 20.9493 29.2019 20.9493 29.4293C20.9493 29.6567 20.7632 29.8428 20.5358 29.8428Z" fill="white"/>
<path d="M13.751 13.2427H13.3334C13.106 13.2427 12.9199 13.0566 12.9199 12.8292C12.9199 12.6018 13.106 12.4158 13.3334 12.4158H13.751C13.9784 12.4158 14.1644 12.6018 14.1644 12.8292C14.1644 13.0566 13.9784 13.2427 13.751 13.2427Z" fill="white"/>
<path d="M20.0146 13.2427H19.597C19.3696 13.2427 19.1836 13.0566 19.1836 12.8292C19.1836 12.6018 19.3696 12.4158 19.597 12.4158H20.0146C20.242 12.4158 20.4281 12.6018 20.4281 12.8292C20.4281 13.0566 20.242 13.2427 20.0146 13.2427Z" fill="white"/>
<path d="M28.1679 18.1751H28.1555C27.9281 18.1668 27.7462 17.9766 27.7544 17.7492C27.7668 17.3192 28.0066 16.9264 28.387 16.728C28.5028 16.6701 28.6062 16.6122 28.7054 16.5461C29.0651 16.3187 29.5281 16.3063 29.9127 16.5171C29.9292 16.5254 29.9457 16.5337 29.9581 16.5378C30.045 16.5874 30.1442 16.6039 30.2393 16.575C30.3344 16.5502 30.4171 16.4882 30.4667 16.4014L31.1075 15.2933C31.1613 15.2065 31.1737 15.1072 31.1489 15.0122C31.1241 14.9129 31.0621 14.8344 30.9752 14.7848C30.9628 14.7765 30.9463 14.7682 30.9339 14.7558C30.5659 14.5491 30.3344 14.1191 30.3592 13.6519C30.3592 13.5981 30.3592 13.5527 30.3592 13.5072C30.3592 13.4617 30.3592 13.4162 30.3592 13.3707C30.3344 12.9035 30.5576 12.4818 30.9422 12.2544C30.9546 12.2462 30.967 12.2379 30.9752 12.2338C31.0621 12.1841 31.1241 12.1014 31.1489 12.0064C31.1737 11.9113 31.1613 11.8079 31.1117 11.7211L30.4708 10.6172C30.3675 10.4352 30.1359 10.3732 29.9581 10.4766C29.5447 10.7164 29.0734 10.704 28.7012 10.4642C28.602 10.4022 28.4987 10.3443 28.387 10.2864C28.0066 10.0921 27.7544 9.67448 27.7544 9.22795C27.7544 8.99642 27.5849 8.83104 27.3782 8.83104H26.1006C25.8898 8.83104 25.7203 9.00055 25.7203 9.20728C25.7203 9.69102 25.4722 10.0962 25.0794 10.2947C24.9802 10.3484 24.8768 10.4063 24.7734 10.4683C24.4013 10.7081 23.9259 10.7164 23.5372 10.489C23.5207 10.4807 23.5083 10.4724 23.4959 10.46C23.3429 10.3732 23.1114 10.4352 23.008 10.6172L22.3672 11.7211C22.3134 11.812 22.3051 11.9237 22.3341 12.0229H23.1031C23.6489 12.0229 24.1698 12.2462 24.5378 12.6389C24.6949 12.8043 24.6866 13.0689 24.5171 13.2219C24.3517 13.379 24.0871 13.3707 23.9341 13.2012C23.7233 12.978 23.4215 12.8457 23.1031 12.8457H22.1067C21.9909 12.8457 21.8793 12.796 21.8007 12.7092C21.4534 12.3247 21.3955 11.7583 21.656 11.3035L22.2969 10.1996C22.6276 9.62487 23.3636 9.42641 23.9424 9.75717C23.9589 9.76544 23.9713 9.77371 23.9879 9.78611C24.083 9.83986 24.2277 9.83986 24.3393 9.76958C24.4592 9.69102 24.5833 9.62487 24.7114 9.55458C24.8355 9.49256 24.9058 9.36853 24.9058 9.22382C24.9058 8.53749 25.4474 8 26.113 8H27.3906C28.0521 8 28.5937 8.53749 28.5937 9.20315C28.5937 9.36853 28.6682 9.49256 28.7798 9.55045C28.9121 9.62073 29.0361 9.69102 29.156 9.76544C29.2718 9.83986 29.4124 9.83986 29.5364 9.76958C30.1318 9.42641 30.8677 9.62487 31.1985 10.2037L31.8352 11.3076C31.9965 11.5846 32.0419 11.9113 31.9592 12.2213C31.8766 12.5273 31.6864 12.7795 31.4176 12.9408C31.4052 12.949 31.3887 12.9573 31.3804 12.9656C31.2564 13.0358 31.1861 13.1723 31.1944 13.3211C31.1985 13.379 31.1985 13.441 31.1985 13.5072C31.1985 13.5733 31.1985 13.6395 31.1944 13.7015C31.1861 13.8421 31.2564 13.9785 31.3804 14.0488C31.397 14.0571 31.4094 14.0653 31.4218 14.0777C31.6781 14.2225 31.8766 14.4829 31.9592 14.7972C32.0419 15.1072 31.9965 15.4339 31.8352 15.7068L31.1985 16.8107C31.0373 17.0877 30.7809 17.2903 30.4667 17.373C30.1649 17.4557 29.8506 17.4143 29.5778 17.2613C29.5612 17.2531 29.5447 17.2448 29.5364 17.2407C29.4165 17.1704 29.2677 17.1704 29.1602 17.2407C29.032 17.3192 28.9038 17.3936 28.7757 17.4598C28.6723 17.5135 28.5979 17.6376 28.5937 17.7657C28.5855 17.989 28.4036 18.1668 28.1803 18.1668L28.1679 18.1751Z" fill="white"/>
<path d="M26.7371 16.5005C25.7902 16.5005 24.8931 16.0457 24.3349 15.285C24.1985 15.0989 24.2398 14.8426 24.4259 14.7061C24.6119 14.5697 24.8682 14.611 25.0047 14.7971C25.4099 15.347 26.059 15.6777 26.7412 15.6777C27.9319 15.6777 28.9035 14.7103 28.9035 13.5154C28.9035 12.3205 27.9361 11.353 26.7412 11.353C25.7282 11.353 24.8641 12.0394 24.6367 13.0192C24.5871 13.2425 24.3638 13.3789 24.1406 13.3293C23.9173 13.2797 23.7809 13.0565 23.8305 12.8332C24.1447 11.4729 25.3437 10.5261 26.7412 10.5261C28.3867 10.5261 29.7304 11.8657 29.7304 13.5154C29.7304 15.1651 28.3909 16.5046 26.7412 16.5046L26.7371 16.5005Z" fill="white"/>
<path d="M28.8428 32.799H21.3634C20.6812 32.799 20.123 32.2409 20.123 31.5587V24.993C20.123 24.3108 20.6812 23.7527 21.3634 23.7527H28.8428C29.525 23.7527 30.0831 24.3108 30.0831 24.993V31.5587C30.0831 32.2409 29.525 32.799 28.8428 32.799ZM21.3634 24.5796C21.136 24.5796 20.95 24.7656 20.95 24.993V31.5587C20.95 31.7861 21.136 31.9721 21.3634 31.9721H28.8428C29.0702 31.9721 29.2562 31.7861 29.2562 31.5587V24.993C29.2562 24.7656 29.0702 24.5796 28.8428 24.5796H21.3634Z" fill="#FFCD69"/>
<path d="M26.2912 28.1353C26.0804 28.1353 25.8778 28.0526 25.7207 27.8996L25.0881 27.267L24.4803 27.8996C24.2488 28.1311 23.9015 28.1973 23.5997 28.0733C23.2978 27.9492 23.1035 27.6557 23.1035 27.329V24.1661C23.1035 23.9387 23.2896 23.7527 23.517 23.7527H26.684C26.9114 23.7527 27.0975 23.9387 27.0975 24.1661V27.329C27.0975 27.6557 26.9031 27.9492 26.6013 28.0733C26.5021 28.1146 26.3946 28.1353 26.2912 28.1353ZM26.3036 27.3125L26.2747 24.5755H23.9304V27.3249L24.5299 26.6799C24.8442 26.3657 25.3568 26.3657 25.6711 26.6799L26.3036 27.3125Z" fill="#FFCD69"/>
<path d="M23.1914 31.298H22.2859C21.8311 31.298 21.459 30.9259 21.459 30.4711V29.5657C21.459 29.1109 21.8311 28.7388 22.2859 28.7388H23.1914C23.6461 28.7388 24.0183 29.1109 24.0183 29.5657V30.4711C24.0183 30.9259 23.6461 31.298 23.1914 31.298ZM22.2859 29.5657V30.4711H23.1914V29.5657H22.2859Z" fill="#FFCD69"/>
<path d="M27.8678 24.5919H22.34C21.6578 24.5919 21.0996 24.0337 21.0996 23.3515V18.5431C21.0996 17.8609 21.6578 17.3027 22.34 17.3027H27.8678C28.55 17.3027 29.1082 17.8609 29.1082 18.5431V23.3515C29.1082 24.0337 28.55 24.5919 27.8678 24.5919ZM22.34 18.1296C22.1126 18.1296 21.9265 18.3157 21.9265 18.5431V23.3515C21.9265 23.5789 22.1126 23.765 22.34 23.765H27.8678C28.0952 23.765 28.2813 23.5789 28.2813 23.3515V18.5431C28.2813 18.3157 28.0952 18.1296 27.8678 18.1296H22.34Z" fill="#FFCD69"/>
<path d="M24.1708 20.9246C24.0757 20.9246 23.9806 20.908 23.8938 20.8708C23.6209 20.7592 23.4473 20.4946 23.4473 20.201V17.7162C23.4473 17.4888 23.6333 17.3027 23.8607 17.3027H26.3497C26.5771 17.3027 26.7632 17.4888 26.7632 17.7162V20.201C26.7632 20.4946 26.5895 20.7551 26.3166 20.8708C26.0479 20.9825 25.7378 20.9204 25.5269 20.7137L25.1011 20.292L24.6752 20.7137C24.5388 20.8502 24.3527 20.9246 24.1667 20.9246H24.1708ZM24.2742 18.1296V19.953L24.5967 19.6346C24.8778 19.3535 25.3367 19.3535 25.6179 19.6346L25.9404 19.953V18.1296H24.2783H24.2742Z" fill="#FFCD69"/>
<path d="M24.6685 22.9958H22.7377C22.5103 22.9958 22.3242 22.8098 22.3242 22.5824C22.3242 22.355 22.5103 22.1689 22.7377 22.1689H24.6685C24.8959 22.1689 25.0819 22.355 25.0819 22.5824C25.0819 22.8098 24.8959 22.9958 24.6685 22.9958Z" fill="#FFCD69"/>
</svg>
