<svg width="40" height="40" viewBox="0 0 40 40" fill="none" xmlns="http://www.w3.org/2000/svg">
<rect width="40" height="40" rx="20" fill="#00603A"/>
<path fill-rule="evenodd" clip-rule="evenodd" d="M9.423 8.34448H8V31.9995H9.423V30.633H10.7015C10.893 30.633 11.046 30.4785 11.046 30.2885C11.046 30.0985 10.893 29.9425 10.7015 29.9425H9.423V28.922H10.7015C10.893 28.922 11.046 28.7675 11.046 28.576C11.046 28.3845 10.893 28.2315 10.7015 28.2315H9.423V27.2095H10.7015C10.893 27.2095 11.046 27.055 11.046 26.865C11.046 26.675 10.893 26.519 10.7015 26.519H9.423V25.4985H12.201C12.391 25.4985 12.5455 25.344 12.5455 25.1525C12.5455 24.961 12.391 24.808 12.201 24.808H9.423V23.786H10.7015C10.893 23.786 11.046 23.6315 11.046 23.4415C11.046 23.2515 10.893 23.0955 10.7015 23.0955H9.423V22.075H10.7015C10.893 22.075 11.046 21.9205 11.046 21.729C11.046 21.5375 10.893 21.3845 10.7015 21.3845H9.423V20.3625H10.7015C10.893 20.3625 11.046 20.208 11.046 20.018C11.046 19.828 10.893 19.672 10.7015 19.672H9.423V18.6515H12.3075C12.4975 18.6515 12.652 18.497 12.652 18.3055C12.652 18.114 12.4975 17.961 12.3075 17.961H9.423V8.34448Z" fill="white"/>
<path fill-rule="evenodd" clip-rule="evenodd" d="M12.8297 31.9999H31.6547V30.6774H30.2882V29.8339C30.2882 29.6439 30.1337 29.4894 29.9437 29.4894C29.7537 29.4894 29.5992 29.6439 29.5992 29.8339V30.6774H28.5772V29.8339C28.5772 29.6439 28.4227 29.4894 28.2312 29.4894C28.0397 29.4894 27.8867 29.6439 27.8867 29.8339V30.6774H26.8647V29.8339C26.8647 29.6439 26.7102 29.4894 26.5202 29.4894C26.3302 29.4894 26.1757 29.6439 26.1757 29.8339V30.6774H25.1537V28.1264C25.1537 27.9349 24.9992 27.7804 24.8092 27.7804C24.6192 27.7804 24.4632 27.9349 24.4632 28.1264V30.6774H23.4412V29.8339C23.4412 29.6439 23.2882 29.4894 23.0967 29.4894C22.9052 29.4894 22.7522 29.6439 22.7522 29.8339V30.6774H21.7302V29.8339C21.7302 29.6439 21.5757 29.4894 21.3857 29.4894C21.1957 29.4894 21.0397 29.6439 21.0397 29.8339V30.6774H20.0192V29.8339C20.0192 29.6439 19.8647 29.4894 19.6732 29.4894C19.4817 29.4894 19.3287 29.6439 19.3287 29.8339V30.6774H18.3067V28.0044C18.3067 27.8144 18.1522 27.6599 17.9622 27.6599C17.7722 27.6599 17.6162 27.8144 17.6162 28.0044V30.6774H16.5957V29.8339C16.5957 29.6439 16.4412 29.4894 16.2497 29.4894C16.0582 29.4894 15.9052 29.6439 15.9052 29.8339V30.6774H14.8832V29.8339C14.8832 29.6849 14.7897 29.5574 14.6562 29.5094C14.6547 29.5094 14.6522 29.5079 14.6492 29.5064L14.6407 29.5049L14.6322 29.5019L14.6252 29.4989L14.6167 29.4974L14.6082 29.4959L14.5997 29.4929L14.5912 29.4914H14.5827L14.5742 29.4899L14.5642 29.4884H14.5117L14.5032 29.4899L14.4947 29.4914H14.4862L14.4777 29.4929L14.4692 29.4959L14.4607 29.4974C14.4577 29.4974 14.4552 29.4989 14.4522 29.4989C14.4492 29.5004 14.4467 29.5004 14.4437 29.5019L14.4352 29.5049L14.4282 29.5064L14.4197 29.5094C14.2877 29.5574 14.1927 29.6854 14.1927 29.8339V30.6774H12.8262V31.9999H12.8297Z" fill="white"/>
<path fill-rule="evenodd" clip-rule="evenodd" d="M17.1157 26.9344C17.7522 26.5659 17.9717 25.7454 17.6047 25.1089L16.3477 22.9304L14.0332 24.2669L15.2902 26.4454C15.6572 27.0819 16.4792 27.3014 17.1157 26.9344Z" fill="white"/>
<path fill-rule="evenodd" clip-rule="evenodd" d="M15.3488 18.6785C15.3008 18.863 15.1108 18.972 14.9278 18.9235C14.7433 18.874 14.6343 18.6855 14.6838 18.501L15.7793 14.408C15.8288 14.2235 16.0173 14.1145 16.2018 14.164C16.3168 14.195 16.4033 14.28 16.4383 14.385L20.5018 23.7635L22.5768 11.2244C22.6078 11.0374 22.7838 10.9099 22.9723 10.9394C23.1083 10.9619 23.2133 11.0614 23.2473 11.1859L27.5473 23.582L31.3219 8.26244C31.3674 8.07693 31.5529 7.96493 31.7374 8.00993C31.9229 8.05543 32.0349 8.24094 31.9899 8.42644L27.9378 24.8745C27.9108 24.9835 27.8303 25.077 27.7153 25.117C27.5368 25.178 27.3413 25.083 27.2788 24.9045L23.0353 12.6699L20.9913 25.026H20.9898C20.9713 25.138 20.8993 25.237 20.7873 25.2855C20.6128 25.3605 20.4103 25.281 20.3353 25.107L16.1908 15.5385L15.3488 18.678V18.6785Z" fill="#FFCD69"/>
<path fill-rule="evenodd" clip-rule="evenodd" d="M16.0013 22.3326L14.7443 20.1556C14.3773 19.5176 13.5553 19.2981 12.9188 19.6651C12.2823 20.0336 12.0628 20.8541 12.4298 21.4921L13.6868 23.6691L16.0013 22.3326Z" fill="#FFCD69"/>
</svg>
