<svg width="40" height="40" viewBox="0 0 40 40" fill="none" xmlns="http://www.w3.org/2000/svg">
<rect width="40" height="40" rx="20" fill="#00603A"/>
<path d="M22.2171 14.1429C22.9941 14.1459 23.7383 14.4567 24.2866 15.0072C24.835 15.5577 25.1428 16.303 25.1428 17.08V27.9371C25.1428 28.8312 25.498 29.6888 26.1303 30.321C26.7625 30.9533 27.6201 31.3085 28.5142 31.3085H11.3715C10.9268 31.3085 10.4865 31.2205 10.076 31.0497C9.66547 30.8788 9.29279 30.6284 8.97942 30.3129C8.66606 29.9975 8.4182 29.6231 8.25012 29.2114C8.08204 28.7997 7.99706 28.3589 8.00008 27.9142V17.0571C8.00612 16.2792 8.32058 15.5354 8.87446 14.989C9.42833 14.4426 10.1763 14.1383 10.9543 14.1429H22.2171Z" fill="#FFCD69"/>
<path d="M17.7834 9.00005C17.0064 9.00307 16.2623 9.31385 15.714 9.86434C15.1656 10.4148 14.8577 11.1602 14.8577 11.9372V27.9371C14.8577 28.8312 14.5025 29.6888 13.8703 30.321C13.238 30.9533 12.3805 31.3085 11.4863 31.3085H28.6291C29.0737 31.3085 29.514 31.2205 29.9246 31.0497C30.3351 30.8788 30.7078 30.6284 31.0211 30.3129C31.3345 29.9975 31.5824 29.6231 31.7504 29.2114C31.9185 28.7997 32.0035 28.3589 32.0005 27.9142V11.9143C31.9944 11.1363 31.68 10.3925 31.1261 9.84616C30.5722 9.29978 29.8242 8.99549 29.0462 9.00005H17.7834Z" fill="white"/>
<path d="M25.1434 27.9143V17.0572C25.1434 16.2783 24.8339 15.5312 24.2831 14.9804C23.7323 14.4296 22.9852 14.1201 22.2063 14.1201H14.8577V27.9143C14.8577 28.8085 14.5025 29.666 13.8703 30.2983C13.238 30.9305 12.3805 31.2857 11.4863 31.2857H28.5319C28.0878 31.288 27.6475 31.2024 27.2365 31.034C26.8255 30.8656 26.4518 30.6176 26.1369 30.3043C25.822 29.9911 25.5721 29.6186 25.4016 29.2085C25.2311 28.7983 25.1434 28.3585 25.1434 27.9143Z" fill="white"/>
<path d="M24.702 27.8571H18.702C18.5883 27.8571 18.4793 27.812 18.399 27.7316C18.3186 27.6512 18.2734 27.5422 18.2734 27.4286C18.2734 27.3149 18.3186 27.2059 18.399 27.1255C18.4793 27.0452 18.5883 27 18.702 27H24.702C24.8156 27 24.9246 27.0452 25.005 27.1255C25.0854 27.2059 25.1305 27.3149 25.1305 27.4286C25.1305 27.5422 25.0854 27.6512 25.005 27.7316C24.9246 27.812 24.8156 27.8571 24.702 27.8571Z" fill="#00603A"/>
<path d="M19.9994 23.9999C19.9994 23.8862 19.9543 23.7772 19.8739 23.6968C19.7935 23.6164 19.6845 23.5713 19.5709 23.5713H18.7137C18.6001 23.5713 18.4911 23.6164 18.4107 23.6968C18.3303 23.7772 18.2852 23.8862 18.2852 23.9999C18.2852 24.1135 18.3303 24.2225 18.4107 24.3029C18.4911 24.3833 18.6001 24.4284 18.7137 24.4284H19.5709C19.6845 24.4284 19.7935 24.3833 19.8739 24.3029C19.9543 24.2225 19.9994 24.1135 19.9994 23.9999Z" fill="#00603A"/>
<path d="M28.1372 23.5713H21.2801C21.1665 23.5713 21.0575 23.6164 20.9771 23.6968C20.8967 23.7772 20.8516 23.8862 20.8516 23.9999C20.8516 24.1135 20.8967 24.2225 20.9771 24.3029C21.0575 24.3833 21.1665 24.4284 21.2801 24.4284H28.1372C28.2509 24.4284 28.3599 24.3833 28.4403 24.3029C28.5206 24.2225 28.5658 24.1135 28.5658 23.9999C28.5658 23.8862 28.5206 23.7772 28.4403 23.6968C28.3599 23.6164 28.2509 23.5713 28.1372 23.5713Z" fill="#00603A"/>
<path d="M25.9251 17.9543L25.8394 17.9143C25.5513 17.7763 25.3092 17.5581 25.1423 17.2857C24.9584 16.9979 24.7049 16.7609 24.4053 16.5968C24.1057 16.4327 23.7696 16.3467 23.428 16.3467C23.0864 16.3467 22.7503 16.4327 22.4507 16.5968C22.1511 16.7609 21.8976 16.9979 21.7137 17.2857C21.545 17.5488 21.3053 17.7588 21.0223 17.8914L20.9366 17.9314C19.548 18.6 19.628 19.9371 20.1023 20.9143C20.5766 21.8914 21.2451 22.1428 22.6509 21.4857C22.8922 21.3689 23.157 21.3082 23.4251 21.3082C23.6933 21.3082 23.958 21.3689 24.1994 21.4857C25.588 22.1543 26.2737 21.9086 26.748 20.9143C27.2223 19.92 27.3137 18.6229 25.9251 17.9543Z" fill="#00603A"/>
<path d="M21.8966 15.7372C21.8966 16.5829 21.4852 16.9658 20.9766 16.9658C20.4681 16.9658 20.0566 16.5829 20.0566 15.7372C20.0566 14.8915 20.4681 14.2058 20.9766 14.2058C21.4852 14.2058 21.8966 14.8915 21.8966 15.7372Z" fill="#00603A"/>
<path d="M24.3771 14.8171C24.3771 15.6628 23.9657 16.0456 23.4571 16.0456C22.9485 16.0456 22.5371 15.6628 22.5371 14.8171C22.5371 13.9714 22.9428 13.2856 23.4285 13.2856C23.9142 13.2856 24.3771 13.9714 24.3771 14.8171Z" fill="#00603A"/>
<path d="M24.9609 15.7372C24.9609 16.5829 25.3724 16.9658 25.8809 16.9658C26.3895 16.9658 26.8009 16.5829 26.8009 15.7372C26.8009 14.8915 26.3895 14.2058 25.8809 14.2058C25.3724 14.2058 24.9609 14.8915 24.9609 15.7372Z" fill="#00603A"/>
</svg>
