<svg width="40" height="40" viewBox="0 0 40 40" fill="none" xmlns="http://www.w3.org/2000/svg">
<rect width="40" height="40" rx="20" fill="#00603A"/>
<path d="M18.0498 29.3974L16.0918 28.3181C15.7625 28.1382 15.3688 28.1373 15.0351 28.3189L13.3056 29.2723L11.5718 28.3163C11.2425 28.1373 10.8488 28.1373 10.5168 28.3181L9.56431 28.843V9.52028C9.56431 8.99363 9.99363 8.56431 10.5203 8.56431H25.1292C25.6559 8.56431 26.0852 8.99363 26.0852 9.52028V18.0632C26.0852 18.4951 26.4354 18.8453 26.8673 18.8453C27.2992 18.8453 27.6495 18.4951 27.6495 18.0632V9.52028C27.6495 8.13065 26.5188 7 25.1292 7H10.5203C9.13065 7 8 8.13065 8 9.52028V29.6304C8 30.0214 8.19988 30.3734 8.53534 30.5733C8.86732 30.7706 9.2836 30.7793 9.62862 30.5933L11.0461 29.8137L12.7781 30.7688C12.9424 30.8592 13.1231 30.9044 13.3039 30.9044C13.4855 30.9044 13.6671 30.8592 13.834 30.768L15.5634 29.8146L17.2937 30.768C17.6727 30.9774 18.148 30.8392 18.3566 30.4603C18.566 30.0814 18.4279 29.606 18.0498 29.3974Z" fill="white"/>
<path d="M22.7689 13.1538H12.8798C12.4479 13.1538 12.0977 13.504 12.0977 13.936C12.0977 14.3679 12.4479 14.7181 12.8798 14.7181H22.768C23.1999 14.7181 23.5501 14.3679 23.5501 13.936C23.5501 13.504 23.2008 13.1538 22.7689 13.1538Z" fill="white"/>
<path d="M22.7689 17.1609H12.8798C12.4479 17.1609 12.0977 17.5111 12.0977 17.943C12.0977 18.375 12.4479 18.7252 12.8798 18.7252H22.768C23.1999 18.7252 23.5501 18.375 23.5501 17.943C23.5501 17.5111 23.2008 17.1609 22.7689 17.1609Z" fill="white"/>
<path d="M17.8248 21.1675H12.8798C12.4479 21.1675 12.0977 21.5177 12.0977 21.9496C12.0977 22.3816 12.4479 22.7318 12.8798 22.7318H17.8239C18.2558 22.7318 18.6061 22.3816 18.6061 21.9496C18.6061 21.5177 18.2567 21.1675 17.8248 21.1675Z" fill="white"/>
<path d="M25.8395 25.8055C25.2303 25.6665 25.0991 25.5265 25.0991 25.5622C25.1087 25.4249 25.4354 25.2754 26.0446 25.2311C26.135 25.563 26.4392 25.8064 26.799 25.8064C27.2309 25.8064 27.5811 25.4561 27.5811 25.0242C27.5811 24.6549 27.4291 24.296 27.1631 24.0396C26.9598 23.8432 26.7086 23.7198 26.4348 23.6763C26.4001 23.2765 26.0751 22.9602 25.6657 22.9602C25.2338 22.9602 24.8836 23.3104 24.8836 23.7424V23.8719C23.8129 24.2342 23.5704 24.9721 23.5374 25.457C23.474 26.3913 24.131 27.0222 25.491 27.3316C26.0638 27.4619 26.2263 27.5975 26.2367 27.5897C26.2158 27.7035 25.8856 27.8617 25.2842 27.906C25.1938 27.5741 24.8897 27.3298 24.529 27.3298C24.0971 27.3298 23.7468 27.6801 23.7468 28.112C23.7468 28.4857 23.8946 28.8351 24.1631 29.094C24.3639 29.2878 24.622 29.4121 24.8949 29.4573C24.9288 29.8579 25.2547 30.176 25.664 30.176C26.0959 30.176 26.4461 29.8258 26.4461 29.3939V29.2592C27.6046 28.8629 27.7897 28.0312 27.8001 27.6201C27.8193 26.9996 27.4916 26.1818 25.8395 25.8055Z" fill="#FFCD69"/>
<path d="M25.6701 20.2375C22.1791 20.2375 19.3398 23.0776 19.3398 26.5678C19.3398 30.0579 22.1799 32.898 25.6701 32.898C29.1602 32.898 32.0003 30.0579 32.0003 26.5678C32.0003 23.0776 29.1611 20.2375 25.6701 20.2375ZM25.6701 31.3337C23.042 31.3337 20.9042 29.1958 20.9042 26.5678C20.9042 23.9397 23.042 21.8019 25.6701 21.8019C28.2981 21.8019 30.436 23.9397 30.436 26.5678C30.436 29.1958 28.2981 31.3337 25.6701 31.3337Z" fill="#FFCD69"/>
</svg>
