<svg width="40" height="40" viewBox="0 0 40 40" fill="none" xmlns="http://www.w3.org/2000/svg">
<rect width="40" height="40" rx="20" fill="#00603A"/>
<path d="M24.5334 19.065H23.7597V16.8373C23.7597 14.8429 22.1373 13.2205 20.1428 13.2205H19.8574C17.8629 13.2205 16.2405 14.8429 16.2405 16.8373V19.0292H15.4668V16.8373C15.4668 14.4166 17.4361 12.4468 19.8574 12.4468H20.1428C22.5636 12.4468 24.5334 14.4166 24.5334 16.8373V19.065Z" fill="#FFCD69"/>
<path d="M20.0004 12.9446C18.6368 12.9446 17.5273 11.8351 17.5273 10.4716C17.5273 9.10804 18.6368 8 20.0004 8C21.3639 8 22.4734 9.10901 22.4734 10.4716C22.4734 11.8341 21.3639 12.9446 20.0004 12.9446ZM20.0004 8.77369C19.0631 8.77369 18.301 9.53529 18.301 10.4716C18.301 11.4078 19.0636 12.1709 20.0004 12.1709C20.9371 12.1709 21.6997 11.4088 21.6997 10.4716C21.6997 9.53432 20.9371 8.77369 20.0004 8.77369Z" fill="#FFCD69"/>
<path d="M14.4107 21.2264H8.38661C8.17274 21.2264 8 21.0532 8 20.8398V17.9323C8 16.1164 9.47771 14.6392 11.2946 14.6392H11.5032C13.3196 14.6392 14.7978 16.1164 14.7978 17.9323V20.8398C14.7978 21.0537 14.6245 21.2264 14.4112 21.2264H14.4107ZM8.77369 20.4528H14.0241V17.9318C14.0241 16.5427 12.8933 15.4124 11.5032 15.4124H11.2946C9.90448 15.4124 8.77369 16.5427 8.77369 17.9318V20.4528Z" fill="white"/>
<path d="M11.3991 15.1999C10.3511 15.1999 9.49805 14.3463 9.49805 13.2973C9.49805 12.2483 10.3506 11.3962 11.3991 11.3962C12.4477 11.3962 13.3002 12.2488 13.3002 13.2973C13.3002 14.3459 12.4477 15.1999 11.3991 15.1999ZM11.3991 12.1699C10.7774 12.1699 10.2717 12.6756 10.2717 13.2973C10.2717 13.9191 10.7774 14.4262 11.3991 14.4262C12.0209 14.4262 12.5265 13.9201 12.5265 13.2973C12.5265 12.6746 12.0209 12.1699 11.3991 12.1699Z" fill="white"/>
<path d="M31.6138 21.2264H25.5897C25.3763 21.2264 25.2031 21.0532 25.2031 20.8398V17.9323C25.2031 16.1164 26.6808 14.6392 28.4977 14.6392H28.7063C30.5227 14.6392 32.0009 16.1164 32.0009 17.9323V20.8398C32.0009 21.0537 31.8277 21.2264 31.6143 21.2264H31.6138ZM25.9768 20.4528H31.2272V17.9318C31.2272 16.5427 30.0964 15.4124 28.7063 15.4124H28.4977C27.1076 15.4124 25.9768 16.5427 25.9768 17.9318V20.4528Z" fill="white"/>
<path d="M28.6003 15.1999C27.5523 15.1999 26.6992 14.3463 26.6992 13.2973C26.6992 12.2483 27.5518 11.3962 28.6003 11.3962C29.6488 11.3962 30.5014 12.2488 30.5014 13.2973C30.5014 14.3459 29.6488 15.1999 28.6003 15.1999ZM28.6003 12.1699C27.9785 12.1699 27.4729 12.6756 27.4729 13.2973C27.4729 13.9191 27.9785 14.4262 28.6003 14.4262C29.2221 14.4262 29.7277 13.9201 29.7277 13.2973C29.7277 12.6746 29.2221 12.1699 28.6003 12.1699Z" fill="white"/>
<path d="M20.9949 31.4064H19.0033C18.7899 31.4064 18.6167 31.2332 18.6167 31.0198V30.1426C18.0041 29.9979 17.425 29.7574 16.8874 29.4255L16.2661 30.0467C16.1151 30.1977 15.8703 30.1977 15.7193 30.0467L14.3108 28.6397C14.2382 28.5671 14.1976 28.4689 14.1976 28.3663C14.1976 28.2637 14.2382 28.165 14.3108 28.0929L14.9326 27.4712C14.6011 26.9326 14.3611 26.353 14.2155 25.7414H13.3378C13.1239 25.7414 12.9512 25.5681 12.9512 25.3547V23.3646C12.9512 23.1508 13.1244 22.978 13.3378 22.978H14.2155C14.3611 22.3635 14.6016 21.7834 14.9321 21.2477L14.3108 20.6265C14.2382 20.5539 14.1976 20.4557 14.1976 20.3531C14.1976 20.2505 14.2382 20.1523 14.3108 20.0797L15.7193 18.6726C15.8703 18.5217 16.1151 18.5217 16.2661 18.6726L16.8874 19.2939C17.4245 18.9625 18.0037 18.7215 18.6167 18.5759V17.6981C18.6167 17.4843 18.7899 17.3115 19.0033 17.3115H20.9949C21.2083 17.3115 21.3815 17.4847 21.3815 17.6981V18.5759C21.9945 18.7215 22.5737 18.962 23.1108 19.2939L23.7321 18.6726C23.883 18.5217 24.1279 18.5217 24.2788 18.6726L25.6874 20.0797C25.7599 20.1523 25.8006 20.2505 25.8006 20.3531C25.8006 20.4557 25.7599 20.5539 25.6874 20.6265L25.0661 21.2477C25.3971 21.7853 25.6375 22.365 25.7832 22.978H26.6609C26.8748 22.978 27.0475 23.1512 27.0475 23.3646V25.3547C27.0475 25.5686 26.8743 25.7414 26.6609 25.7414H25.7832C25.6375 26.3534 25.3975 26.9331 25.0661 27.4712L25.6879 28.0929C25.7604 28.1655 25.8011 28.2637 25.8011 28.3663C25.8011 28.4689 25.7604 28.5671 25.6879 28.6397L24.2793 30.0467C24.1284 30.1977 23.8835 30.1977 23.7326 30.0467L23.1113 29.4255C22.5737 29.7574 21.9945 29.9979 21.382 30.1426V31.0198C21.382 31.2337 21.2087 31.4064 20.9954 31.4064H20.9949ZM19.3899 30.6327H20.6078V29.8276C20.6078 29.6403 20.7418 29.4801 20.9262 29.4468C21.6529 29.3161 22.3308 29.035 22.941 28.6116C23.0948 28.5047 23.3029 28.5236 23.435 28.6556L24.005 29.2256L24.8663 28.3653L24.2963 27.7953C24.1642 27.6632 24.1453 27.4557 24.2518 27.3018C24.6746 26.6897 24.9558 26.0109 25.0879 25.2841C25.1213 25.1002 25.2814 24.9662 25.4687 24.9662H26.2738V23.7498H25.4687C25.2819 23.7498 25.1213 23.6158 25.0879 23.4319C24.9558 22.7032 24.6746 22.0248 24.2522 21.4147C24.1458 21.2608 24.1647 21.0532 24.2968 20.9211L24.8667 20.3511L24.0055 19.4908L23.4355 20.0608C23.3034 20.1934 23.0948 20.2118 22.9415 20.1049C22.3323 19.6815 21.6539 19.3999 20.9262 19.2678C20.7423 19.2344 20.6083 19.0742 20.6083 18.887V18.0818H19.3904V18.887C19.3904 19.0737 19.2569 19.2344 19.0725 19.2678C18.3443 19.3999 17.6664 19.6815 17.0572 20.1049C16.9034 20.2118 16.6953 20.1929 16.5632 20.0608L15.9932 19.4908L15.1319 20.3516L15.7019 20.9216C15.8345 21.0542 15.8529 21.2623 15.746 21.4156C15.324 22.0229 15.0429 22.7013 14.9103 23.4324C14.8769 23.6162 14.7168 23.7503 14.5295 23.7503H13.7244V24.9667H14.5295C14.7163 24.9667 14.8769 25.1007 14.9103 25.2846C15.0419 26.0113 15.3235 26.6902 15.7464 27.3023C15.8524 27.4562 15.834 27.6637 15.7019 27.7958L15.1319 28.3658L15.9932 29.2266L16.5632 28.6566C16.6958 28.5245 16.9038 28.5057 17.0572 28.6126C17.6674 29.0364 18.3453 29.3176 19.072 29.4477C19.2564 29.4806 19.3904 29.6413 19.3904 29.8285V30.6337L19.3899 30.6327Z" fill="white"/>
<path d="M19.9989 28.6494C17.6323 28.6494 15.707 26.7241 15.707 24.3575C15.707 21.991 17.6323 20.0671 19.9989 20.0671C22.3654 20.0671 24.2907 21.9919 24.2907 24.3575C24.2907 26.7231 22.3654 28.6494 19.9989 28.6494ZM19.9989 20.8408C18.0591 20.8408 16.4807 22.4182 16.4807 24.3575C16.4807 26.2969 18.0591 27.8757 19.9989 27.8757C21.9387 27.8757 23.517 26.2973 23.517 24.3575C23.517 22.4177 21.9387 20.8408 19.9989 20.8408Z" fill="white"/>
<path d="M19.9993 27.1751C19.4187 27.1751 18.8704 27.0594 18.4567 26.8494C17.9192 26.577 17.623 26.1522 17.623 25.6533V23.2326C17.623 23.0187 17.7963 22.8459 18.0097 22.8459H21.9884C22.2023 22.8459 22.375 23.0192 22.375 23.2326V25.6533C22.375 26.5489 21.3981 27.1746 19.9988 27.1746L19.9993 27.1751ZM18.3967 23.6196V25.6538C18.3967 26.1217 19.2116 26.4018 19.9993 26.4018C20.787 26.4018 21.6018 26.1222 21.6018 25.6538V23.6196H18.3963H18.3967Z" fill="#FFCD69"/>
<path d="M21.3378 23.1711H20.5641V22.6867C20.5641 22.3751 20.3106 22.1216 19.999 22.1216C19.6874 22.1216 19.4339 22.3751 19.4339 22.6867V23.1711H18.6602V22.6867C18.6602 21.9489 19.2606 21.3479 19.999 21.3479C20.7374 21.3479 21.3378 21.9484 21.3378 22.6867V23.1711Z" fill="#FFCD69"/>
</svg>
