<svg width="40" height="40" viewBox="0 0 40 40" fill="none" xmlns="http://www.w3.org/2000/svg">
<rect width="40" height="40" rx="20" fill="#00603A"/>
<path d="M27.467 13.7975H13.535C13.4876 13.7975 13.4406 13.7882 13.3968 13.7701C13.3529 13.7519 13.3131 13.7253 13.2796 13.6918C13.246 13.6582 13.2194 13.6184 13.2013 13.5746C13.1831 13.5308 13.1738 13.4838 13.1738 13.4363V10.9228C13.1742 10.5535 13.3211 10.1994 13.5823 9.93819C13.8434 9.67702 14.1976 9.53013 14.5669 9.52974H17.6401C17.7262 8.83163 18.0646 8.18909 18.5915 7.72314C19.1185 7.2572 19.7976 7 20.501 7C21.2044 7 21.8835 7.2572 22.4105 7.72314C22.9374 8.18909 23.2758 8.83163 23.3619 9.52974H26.4351C26.8045 9.53013 27.1586 9.67702 27.4198 9.93819C27.6809 10.1994 27.8278 10.5535 27.8282 10.9228V13.4363C27.8282 13.4838 27.8189 13.5308 27.8008 13.5746C27.7826 13.6184 27.756 13.6582 27.7225 13.6918C27.6889 13.7253 27.6491 13.7519 27.6053 13.7701C27.5614 13.7882 27.5145 13.7975 27.467 13.7975ZM13.8968 13.0752H27.1052V10.9228C27.105 10.745 27.0343 10.5745 26.9085 10.4488C26.7828 10.323 26.6123 10.2523 26.4345 10.2521H23.0218C22.926 10.2521 22.8341 10.214 22.7664 10.1463C22.6986 10.0786 22.6606 9.9867 22.6606 9.89091C22.6606 9.88616 22.6606 9.88018 22.6606 9.8744C22.6606 9.30154 22.433 8.75213 22.0279 8.34706C21.6229 7.94198 21.0735 7.71441 20.5006 7.71441C19.9277 7.71441 19.3783 7.94198 18.9733 8.34706C18.5682 8.75213 18.3406 9.30154 18.3406 9.8744V9.8907C18.3406 9.98649 18.3026 10.0784 18.2348 10.1461C18.1671 10.2138 18.0752 10.2519 17.9794 10.2519H14.5669C14.3892 10.2523 14.2188 10.3231 14.0932 10.4489C13.9676 10.5746 13.8969 10.7451 13.8968 10.9228V13.0752Z" fill="white"/>
<path d="M28.9884 33.417H12.0122C11.4787 33.4164 10.9673 33.2042 10.59 32.827C10.2128 32.4498 10.0006 31.9383 10 31.4048V11.8726C10 11.7769 10.0381 11.685 10.1058 11.6173C10.1735 11.5495 10.2654 11.5115 10.3612 11.5115H13.5343C13.5818 11.5114 13.6288 11.5207 13.6727 11.5388C13.7165 11.557 13.7564 11.5836 13.79 11.6171C13.8236 11.6506 13.8503 11.6905 13.8685 11.7343C13.8867 11.7782 13.8961 11.8252 13.8961 11.8726V13.0752H27.1045V11.8726C27.1046 11.7769 27.1427 11.685 27.2104 11.6173C27.2781 11.5496 27.3699 11.5115 27.4657 11.5115H30.6388C30.7346 11.5115 30.8265 11.5495 30.8942 11.6173C30.9619 11.685 31 11.7769 31 11.8726V31.4048C30.9994 31.9382 30.7873 32.4496 30.4102 32.8268C30.0331 33.204 29.5218 33.4163 28.9884 33.417ZM10.7223 12.2338V31.4048C10.7227 31.7468 10.8587 32.0746 11.1006 32.3165C11.3424 32.5583 11.6702 32.6943 12.0122 32.6947H28.9884C29.3304 32.6943 29.6582 32.5583 29.9001 32.3165C30.1419 32.0746 30.2779 31.7468 30.2783 31.4048V12.2338H27.8269V13.4364C27.8269 13.4838 27.8176 13.5308 27.7994 13.5746C27.7813 13.6185 27.7547 13.6583 27.7212 13.6918C27.6876 13.7254 27.6478 13.752 27.604 13.7701C27.5601 13.7883 27.5131 13.7976 27.4657 13.7976H13.5343C13.4869 13.7976 13.4399 13.7883 13.396 13.7701C13.3522 13.752 13.3124 13.7254 13.2788 13.6918C13.2453 13.6583 13.2187 13.6185 13.2006 13.5746C13.1824 13.5308 13.1731 13.4838 13.1731 13.4364V12.2338H10.7223Z" fill="white"/>
<path d="M20.5008 11.4173C20.2163 11.4173 19.9382 11.333 19.7017 11.1749C19.4652 11.0169 19.2808 10.7923 19.172 10.5294C19.0631 10.2666 19.0346 9.97745 19.0901 9.69845C19.1456 9.41945 19.2826 9.16318 19.4838 8.96203C19.6849 8.76089 19.9412 8.6239 20.2202 8.56841C20.4992 8.51291 20.7884 8.54139 21.0512 8.65025C21.314 8.75911 21.5386 8.94346 21.6967 9.17998C21.8547 9.41651 21.9391 9.69458 21.9391 9.97905C21.9386 10.3604 21.7869 10.7259 21.5173 10.9956C21.2477 11.2652 20.8821 11.4169 20.5008 11.4173ZM20.5008 9.26331C20.3592 9.26331 20.2207 9.30531 20.103 9.38399C19.9853 9.46266 19.8935 9.57449 19.8393 9.70532C19.7851 9.83615 19.771 9.98012 19.7986 10.119C19.8263 10.2579 19.8945 10.3855 19.9946 10.4856C20.0948 10.5857 20.2223 10.6539 20.3612 10.6815C20.5001 10.7091 20.6441 10.6949 20.7749 10.6406C20.9057 10.5864 21.0175 10.4946 21.0962 10.3769C21.1748 10.2591 21.2168 10.1207 21.2167 9.97905C21.2165 9.78925 21.141 9.6073 21.0068 9.47312C20.8725 9.33893 20.6906 9.26348 20.5008 9.26331Z" fill="white"/>
<path d="M21.739 30.7912H13.0194C12.9236 30.7912 12.8317 30.7531 12.764 30.6854C12.6963 30.6177 12.6582 30.5258 12.6582 30.43C12.6582 30.3342 12.6963 30.2424 12.764 30.1746C12.8317 30.1069 12.9236 30.0688 13.0194 30.0688H21.739C21.8348 30.0688 21.9267 30.1069 21.9944 30.1746C22.0621 30.2424 22.1002 30.3342 22.1002 30.43C22.1002 30.5258 22.0621 30.6177 21.9944 30.6854C21.9267 30.7531 21.8348 30.7912 21.739 30.7912Z" fill="#FFCD69"/>
<path d="M15.0793 30.7914H13.6346C13.5388 30.7914 13.447 30.7534 13.3792 30.6856C13.3115 30.6179 13.2734 30.526 13.2734 30.4303V27.608C13.2734 27.5122 13.3115 27.4203 13.3792 27.3526C13.447 27.2849 13.5388 27.2468 13.6346 27.2468H15.0793C15.1267 27.2468 15.1737 27.2561 15.2175 27.2743C15.2614 27.2924 15.3012 27.319 15.3347 27.3526C15.3683 27.3861 15.3949 27.4259 15.413 27.4698C15.4312 27.5136 15.4405 27.5606 15.4404 27.608V30.4303C15.4405 30.4777 15.4312 30.5247 15.413 30.5685C15.3949 30.6123 15.3683 30.6522 15.3347 30.6857C15.3012 30.7193 15.2614 30.7459 15.2175 30.764C15.1737 30.7821 15.1267 30.7915 15.0793 30.7914ZM13.9958 30.0691H14.7181V27.9685H13.9958V30.0691Z" fill="#FFCD69"/>
<path d="M18.1008 30.7913H16.6561C16.5603 30.7913 16.4684 30.7532 16.4007 30.6855C16.333 30.6178 16.2949 30.5259 16.2949 30.4301V24.8314C16.295 24.7356 16.333 24.6438 16.4008 24.5761C16.4685 24.5083 16.5603 24.4703 16.6561 24.4702H18.1008C18.1965 24.4703 18.2884 24.5083 18.3561 24.5761C18.4238 24.6438 18.4619 24.7356 18.4619 24.8314V30.4301C18.4619 30.5259 18.4239 30.6178 18.3562 30.6855C18.2884 30.7532 18.1966 30.7913 18.1008 30.7913ZM17.0173 30.0689H17.7396V25.1926H17.0173V30.0689Z" fill="#FFCD69"/>
<path d="M21.1222 30.7915H19.6776C19.6301 30.7915 19.5832 30.7822 19.5393 30.764C19.4955 30.7459 19.4557 30.7193 19.4221 30.6857C19.3886 30.6522 19.362 30.6124 19.3438 30.5685C19.3257 30.5247 19.3164 30.4777 19.3164 30.4303V26.0189C19.3164 25.9714 19.3257 25.9245 19.3438 25.8806C19.362 25.8368 19.3886 25.797 19.4221 25.7634C19.4557 25.7299 19.4955 25.7033 19.5393 25.6852C19.5832 25.667 19.6301 25.6577 19.6776 25.6577H21.1222C21.218 25.6577 21.3099 25.6958 21.3776 25.7635C21.4454 25.8312 21.4834 25.9231 21.4834 26.0189V30.4303C21.4834 30.5261 21.4454 30.6179 21.3776 30.6857C21.3099 30.7534 21.218 30.7915 21.1222 30.7915ZM20.0387 30.0691H20.7611V26.3794H20.0387V30.0691Z" fill="#FFCD69"/>
<path d="M24.8602 23.9757C24.3344 23.9795 23.813 23.8792 23.3261 23.6806C22.8392 23.482 22.3965 23.189 22.0233 22.8185C21.6501 22.4481 21.354 22.0074 21.1519 21.5219C20.9498 21.0365 20.8457 20.5158 20.8457 19.99C20.8457 19.4642 20.9498 18.9435 21.1519 18.4581C21.354 17.9726 21.6501 17.5319 22.0233 17.1615C22.3965 16.791 22.8392 16.498 23.3261 16.2994C23.813 16.1008 24.3344 16.0005 24.8602 16.0043C24.956 16.0043 25.0479 16.0423 25.1156 16.11C25.1834 16.1778 25.2214 16.2696 25.2214 16.3654V19.8405L27.6786 22.2977C27.7462 22.3654 27.7842 22.4573 27.7842 22.5531C27.7842 22.6488 27.7462 22.7407 27.6786 22.8084C27.3093 23.1797 26.8701 23.474 26.3863 23.6743C25.9026 23.8747 25.3839 23.9771 24.8602 23.9757ZM24.4991 16.7466C23.9961 16.8026 23.513 16.9748 23.088 17.2495C22.663 17.5243 22.3077 17.8942 22.0503 18.3299C21.7928 18.7656 21.6402 19.2553 21.6045 19.7601C21.5689 20.2649 21.6511 20.7712 21.8447 21.2387C22.0384 21.7063 22.3381 22.1225 22.7203 22.4543C23.1024 22.7861 23.5565 23.0245 24.0466 23.1506C24.5367 23.2768 25.0495 23.2872 25.5443 23.1811C26.0392 23.0749 26.5026 22.8552 26.8979 22.5391L24.6047 20.2454C24.537 20.1776 24.499 20.0857 24.4991 19.9899V16.7466Z" fill="white"/>
<path d="M27.424 22.9143C27.3283 22.9142 27.2365 22.8762 27.1687 22.8086L24.6057 20.2455C24.538 20.1777 24.5 20.0858 24.5 19.99V16.3656C24.5 16.3181 24.5093 16.2711 24.5274 16.2273C24.5456 16.1835 24.5722 16.1437 24.6057 16.1101C24.6393 16.0766 24.6791 16.05 24.7229 16.0318C24.7668 16.0137 24.8137 16.0044 24.8612 16.0044C25.6496 16.0043 26.4204 16.238 27.0759 16.676C27.7315 17.114 28.2425 17.7366 28.5442 18.4651C28.8458 19.1935 28.9247 19.995 28.7708 20.7683C28.6169 21.5416 28.2371 22.2518 27.6795 22.8092C27.6116 22.8767 27.5197 22.9145 27.424 22.9143ZM25.2223 19.8406L27.41 22.0283C27.7746 21.5722 28.0101 21.0266 28.0921 20.4485C28.174 19.8703 28.0994 19.2808 27.876 18.7413C27.6525 18.2019 27.2884 17.7322 26.8217 17.3814C26.355 17.0305 25.8026 16.8113 25.2223 16.7465V19.8406Z" fill="white"/>
<path d="M19.4236 17.4223H13.0194C12.9236 17.4223 12.8317 17.3842 12.764 17.3165C12.6963 17.2488 12.6582 17.1569 12.6582 17.0611C12.6582 16.9653 12.6963 16.8735 12.764 16.8057C12.8317 16.738 12.9236 16.7 13.0194 16.7H19.4236C19.5194 16.7 19.6113 16.738 19.679 16.8057C19.7467 16.8735 19.7848 16.9653 19.7848 17.0611C19.7848 17.1569 19.7467 17.2488 19.679 17.3165C19.6113 17.3842 19.5194 17.4223 19.4236 17.4223Z" fill="#FFCD69"/>
<path d="M19.4236 19.4953H13.0194C12.9236 19.4953 12.8317 19.4572 12.764 19.3895C12.6963 19.3218 12.6582 19.2299 12.6582 19.1341C12.6582 19.0383 12.6963 18.9465 12.764 18.8787C12.8317 18.811 12.9236 18.7729 13.0194 18.7729H19.4236C19.5194 18.7729 19.6113 18.811 19.679 18.8787C19.7467 18.9465 19.7848 19.0383 19.7848 19.1341C19.7848 19.2299 19.7467 19.3218 19.679 19.3895C19.6113 19.4572 19.5194 19.4953 19.4236 19.4953Z" fill="#FFCD69"/>
<path d="M19.4236 21.5676H13.0194C12.9236 21.5676 12.8317 21.5295 12.764 21.4618C12.6963 21.394 12.6582 21.3022 12.6582 21.2064C12.6582 21.1106 12.6963 21.0187 12.764 20.951C12.8317 20.8833 12.9236 20.8452 13.0194 20.8452H19.4236C19.5194 20.8452 19.6113 20.8833 19.679 20.951C19.7467 21.0187 19.7848 21.1106 19.7848 21.2064C19.7848 21.3022 19.7467 21.394 19.679 21.4618C19.6113 21.5295 19.5194 21.5676 19.4236 21.5676Z" fill="#FFCD69"/>
<path d="M28.4853 26.6476H24.0994C24.0037 26.6476 23.9118 26.6096 23.8441 26.5418C23.7763 26.4741 23.7383 26.3822 23.7383 26.2865C23.7383 26.1907 23.7763 26.0988 23.8441 26.0311C23.9118 25.9633 24.0037 25.9253 24.0994 25.9253H28.4853C28.5811 25.9253 28.6729 25.9633 28.7407 26.0311C28.8084 26.0988 28.8464 26.1907 28.8464 26.2865C28.8464 26.3822 28.8084 26.4741 28.7407 26.5418C28.6729 26.6096 28.5811 26.6476 28.4853 26.6476Z" fill="#FFCD69"/>
<path d="M28.4853 28.7194H24.0994C24.0037 28.7194 23.9118 28.6814 23.8441 28.6136C23.7763 28.5459 23.7383 28.454 23.7383 28.3582C23.7383 28.2625 23.7763 28.1706 23.8441 28.1029C23.9118 28.0351 24.0037 27.9971 24.0994 27.9971H28.4853C28.5811 27.9971 28.6729 28.0351 28.7407 28.1029C28.8084 28.1706 28.8464 28.2625 28.8464 28.3582C28.8464 28.454 28.8084 28.5459 28.7407 28.6136C28.6729 28.6814 28.5811 28.7194 28.4853 28.7194Z" fill="#FFCD69"/>
<path d="M28.4853 30.7912H24.0994C24.0037 30.7912 23.9118 30.7531 23.8441 30.6854C23.7763 30.6177 23.7383 30.5258 23.7383 30.43C23.7383 30.3342 23.7763 30.2424 23.8441 30.1746C23.9118 30.1069 24.0037 30.0688 24.0994 30.0688H28.4853C28.5811 30.0688 28.6729 30.1069 28.7407 30.1746C28.8084 30.2424 28.8464 30.3342 28.8464 30.43C28.8464 30.5258 28.8084 30.6177 28.7407 30.6854C28.6729 30.7531 28.5811 30.7912 28.4853 30.7912Z" fill="#FFCD69"/>
</svg>
