<svg width="40" height="40" viewBox="0 0 40 40" fill="none" xmlns="http://www.w3.org/2000/svg">
<rect width="40" height="40" rx="20" fill="#00603A"/>
<path fill-rule="evenodd" clip-rule="evenodd" d="M8.8621 10.1138H9.77501V11.0843C9.77501 11.9967 10.5197 12.7419 11.4326 12.7419C12.345 12.7419 13.0903 11.9972 13.0903 11.0843V10.1138H21.3198V11.0843C21.3198 11.9967 22.0645 12.7419 22.9775 12.7419C23.8898 12.7419 24.6351 11.9972 24.6351 11.0843V10.1138H25.548C26.2043 10.1138 26.7397 10.6492 26.7397 11.3054V13.5576H7.66992V11.3054C7.66992 10.6492 8.20532 10.1138 8.8621 10.1138ZM26.5129 21.2055C26.8127 21.2368 27.0431 21.4693 27.0709 21.7697L27.148 22.6018C27.1902 23.0555 27.723 23.2735 28.0712 22.9799L28.7095 22.4414C28.9399 22.247 29.2675 22.2428 29.5026 22.4306C29.8271 22.6898 30.1233 22.9835 30.3851 23.3059C30.5749 23.5399 30.5734 23.8676 30.381 24.0995L29.8477 24.7424C29.5566 25.0932 29.7793 25.6239 30.2329 25.6625L31.0656 25.733C31.3659 25.7587 31.601 25.987 31.6344 26.2869C31.6802 26.6989 31.6817 27.117 31.639 27.5295C31.6076 27.8293 31.3752 28.0597 31.0748 28.0875L30.2427 28.1647C29.789 28.2068 29.571 28.7397 29.8646 29.0878L30.4031 29.7261C30.5975 29.9565 30.6017 30.2841 30.4139 30.5192C30.1547 30.8437 29.861 31.14 29.5386 31.4018C29.3045 31.5915 28.9769 31.59 28.745 31.3976L28.1021 30.8643C27.7513 30.5732 27.2205 30.7959 27.182 31.2495L27.1115 32.0822C27.0858 32.3825 26.8574 32.6176 26.5576 32.651C26.1456 32.6968 25.7275 32.6983 25.315 32.6556C25.0152 32.6243 24.7848 32.3918 24.757 32.0914L24.6798 31.2593C24.6377 30.8057 24.1048 30.5876 23.7566 30.8813L23.1184 31.4198C22.888 31.6142 22.5603 31.6183 22.3253 31.4306C22.0008 31.1713 21.7045 30.8777 21.4427 30.5552C21.253 30.3212 21.2545 29.9936 21.4469 29.7616L21.9802 29.1187C22.2713 28.7679 22.0486 28.2372 21.595 28.1986L20.7623 28.1281C20.4619 28.1024 20.2269 27.8741 20.1935 27.5742C20.1477 27.1623 20.1462 26.7441 20.1888 26.3316C20.2202 26.0318 20.4527 25.8014 20.753 25.7736L21.5852 25.6965C22.0388 25.6543 22.2569 25.1215 21.9632 24.7733L21.4247 24.135C21.2303 23.9046 21.2262 23.577 21.4139 23.3419C21.6732 23.0174 21.9668 22.7212 22.2893 22.4594C22.5233 22.2696 22.8509 22.2711 23.0829 22.4635L23.7258 22.9968C24.0765 23.2879 24.6073 23.0652 24.6459 22.6116L24.7164 21.7789C24.7421 21.4786 24.9704 21.2435 25.2703 21.2101C25.6827 21.1643 26.1004 21.1623 26.5129 21.2055ZM25.9142 23.6973C24.1285 23.6973 22.6812 25.1451 22.6812 26.9303C22.6812 28.716 24.129 30.1633 25.9142 30.1633C27.6999 30.1633 29.1472 28.7155 29.1472 26.9303C29.1477 25.1451 27.6999 23.6973 25.9142 23.6973ZM26.7386 14.0719H7.66992V25.8765C7.66992 26.5327 8.20532 27.0681 8.86159 27.0681H19.6452C19.6396 26.8048 19.6504 26.5405 19.6776 26.2787C19.7342 25.735 20.1611 25.3123 20.7057 25.2619L21.5379 25.1847C21.579 25.1811 21.597 25.1369 21.5703 25.105L21.0318 24.4667C20.6795 24.0491 20.6713 23.4484 21.0123 23.021C21.2946 22.6677 21.6145 22.3452 21.9653 22.0597C22.3896 21.7152 22.9908 21.7182 23.4115 22.0675L24.0544 22.6008C24.0863 22.627 24.13 22.609 24.1336 22.5679L24.2041 21.7352C24.2504 21.19 24.6701 20.7596 25.2137 20.6989C25.6627 20.649 26.1173 20.6469 26.5663 20.6937C26.6255 20.6999 26.6831 20.7102 26.7386 20.7251V14.0719ZM21.6819 19.2984C21.4633 19.2984 21.2848 19.4769 21.2848 19.6954V21.1875C21.2848 21.4061 21.4633 21.5845 21.6819 21.5845H23.1734C23.392 21.5845 23.5705 21.4061 23.5705 21.1875V19.6954C23.5705 19.4769 23.392 19.2984 23.1734 19.2984H21.6819ZM21.6819 15.404H23.1739C23.3925 15.404 23.571 15.5825 23.571 15.8011V17.2931C23.571 17.5117 23.3925 17.6901 23.1739 17.6901H21.6819C21.4633 17.6901 21.2848 17.5117 21.2848 17.2931V15.8011C21.2843 15.5825 21.4628 15.404 21.6819 15.404ZM16.4585 23.1933H17.95C18.1686 23.1933 18.3471 23.3718 18.3471 23.5903V25.0824C18.3471 25.301 18.1686 25.4794 17.95 25.4794H16.4585C16.2399 25.4794 16.0615 25.301 16.0615 25.0824V23.5903C16.0615 23.3718 16.2394 23.1933 16.4585 23.1933ZM16.4585 19.2984H17.95C18.1686 19.2984 18.3471 19.4769 18.3471 19.6954V21.1875C18.3471 21.4061 18.1686 21.5845 17.95 21.5845H16.4585C16.2399 21.5845 16.0615 21.4061 16.0615 21.1875V19.6954C16.0615 19.4769 16.2394 19.2984 16.4585 19.2984ZM16.4585 15.404H17.95C18.1686 15.404 18.3471 15.5825 18.3471 15.8011V17.2931C18.3471 17.5117 18.1686 17.6901 17.95 17.6901H16.4585C16.2399 17.6901 16.0615 17.5117 16.0615 17.2931V15.8011C16.0615 15.5825 16.2399 15.404 16.4585 15.404ZM11.2351 15.404H12.7267C12.9452 15.404 13.1237 15.5825 13.1237 15.8011V17.2926C13.1237 17.5112 12.9452 17.6896 12.7267 17.6896H11.2351C11.0166 17.6896 10.8381 17.5112 10.8381 17.2926V15.8011C10.8381 15.5825 11.0166 15.404 11.2351 15.404ZM11.2351 23.1933H12.7267C12.9452 23.1933 13.1237 23.3718 13.1237 23.5903V25.0824C13.1237 25.301 12.9452 25.4794 12.7267 25.4794H11.2351C11.0166 25.4794 10.8381 25.301 10.8381 25.0824V23.5903C10.8381 23.3718 11.0166 23.1933 11.2351 23.1933ZM11.2351 19.2984H12.7267C12.9452 19.2984 13.1237 19.4769 13.1237 19.6954V21.1875C13.1237 21.4061 12.9452 21.5845 12.7267 21.5845H11.2351C11.0166 21.5845 10.8381 21.4061 10.8381 21.1875V19.6954C10.8381 19.4769 11.0166 19.2984 11.2351 19.2984Z" fill="white"/>
<path fill-rule="evenodd" clip-rule="evenodd" d="M12.5757 11.0843V9.14332C12.5757 8.51483 12.0614 8 11.4324 8C10.8039 8 10.2891 8.51431 10.2891 9.14332V11.0843C10.2891 11.7128 10.8034 12.2277 11.4324 12.2277C12.0614 12.2271 12.5757 11.7128 12.5757 11.0843ZM21.8339 9.14332V11.0843C21.8339 11.7128 22.3482 12.2277 22.9772 12.2277C23.6062 12.2277 24.1205 11.7133 24.1205 11.0843V9.14332C24.1205 8.51483 23.6062 8 22.9772 8C22.3482 8 21.8339 8.51431 21.8339 9.14332Z" fill="#FFCD69"/>
<path fill-rule="evenodd" clip-rule="evenodd" d="M25.6563 26.6094V25.3776C25.6563 25.2356 25.7715 25.1204 25.9135 25.1204C26.0554 25.1204 26.1706 25.2356 26.1706 25.3776V26.6094C26.2647 26.685 26.3249 26.8007 26.3249 26.9303C26.3249 26.9457 26.3239 26.9607 26.3223 26.9756L27.0182 27.6714C27.1185 27.7717 27.1185 27.9348 27.0182 28.0351C26.9179 28.1353 26.7549 28.1353 26.6546 28.0351L25.9587 27.3392C25.9438 27.3407 25.9289 27.3418 25.9135 27.3418C25.6861 27.3418 25.502 27.1576 25.502 26.9303C25.502 26.8007 25.5627 26.685 25.6563 26.6094ZM28.6326 26.9308C28.6326 25.429 27.4153 24.2122 25.914 24.2122C24.4127 24.2122 23.1953 25.4295 23.1953 26.9308C23.1953 28.4326 24.4127 29.6495 25.914 29.6495C27.4153 29.6495 28.6326 28.4321 28.6326 26.9308ZM27.8663 26.9313C27.8663 26.7894 27.9815 26.6742 28.1235 26.6742H28.216C28.358 26.6742 28.4732 26.7894 28.4732 26.9313C28.4732 27.0733 28.358 27.1885 28.216 27.1885H28.1235C27.9815 27.1885 27.8663 27.0733 27.8663 26.9313ZM27.3613 25.1215C27.4615 25.0217 27.6241 25.0222 27.7239 25.1225C27.8236 25.2228 27.8231 25.3853 27.7228 25.4851L27.657 25.5509C27.5567 25.6507 27.3942 25.6502 27.2944 25.5499C27.1946 25.4496 27.1951 25.2871 27.2954 25.1873L27.3613 25.1215ZM25.6563 24.6288C25.6563 24.4868 25.7715 24.3716 25.9135 24.3716C26.0554 24.3716 26.1706 24.4868 26.1706 24.6288V24.7213C26.1706 24.8633 26.0554 24.9785 25.9135 24.9785C25.7715 24.9785 25.6563 24.8633 25.6563 24.7213V24.6288ZM24.5336 25.5504C24.4333 25.6507 24.2702 25.6507 24.1699 25.5504L24.1041 25.4846C24.0038 25.3843 24.0038 25.2212 24.1041 25.121C24.2044 25.0207 24.3674 25.0207 24.4677 25.121L24.5336 25.1868C24.6339 25.2871 24.6339 25.4501 24.5336 25.5504ZM23.7045 26.6737C23.8464 26.6737 23.9616 26.7889 23.9616 26.9308C23.9616 27.0728 23.8464 27.188 23.7045 27.188H23.6119C23.47 27.188 23.3548 27.0728 23.3548 26.9308C23.3548 26.7889 23.47 26.6737 23.6119 26.6737H23.7045ZM24.1699 28.3112C24.2702 28.211 24.4333 28.211 24.5336 28.3112C24.6339 28.4115 24.6339 28.5746 24.5336 28.6749L24.4677 28.7407C24.3674 28.841 24.2044 28.841 24.1041 28.7407C24.0038 28.6404 24.0038 28.4774 24.1041 28.3771L24.1699 28.3112ZM25.9135 28.8842C26.0554 28.8842 26.1706 28.9994 26.1706 29.1413V29.2339C26.1706 29.3759 26.0554 29.4911 25.9135 29.4911C25.7715 29.4911 25.6563 29.3759 25.6563 29.2339V29.1413C25.6563 28.9994 25.7715 28.8842 25.9135 28.8842ZM27.2944 28.3123C27.3947 28.212 27.5577 28.212 27.658 28.3123L27.7239 28.3781C27.8241 28.4784 27.8241 28.6414 27.7239 28.7417C27.6236 28.842 27.4605 28.842 27.3602 28.7417L27.2944 28.6759C27.1941 28.5751 27.1941 28.4126 27.2944 28.3123Z" fill="#FFCD69"/>
</svg>
