<svg width="40" height="40" viewBox="0 0 40 40" fill="none" xmlns="http://www.w3.org/2000/svg">
<rect width="40" height="40" rx="20" fill="#00603A"/>
<path fill-rule="evenodd" clip-rule="evenodd" d="M21.3125 22.0364V21.554H21.6701C21.5138 21.6814 21.3898 21.847 21.3125 22.0364ZM22.4842 21.2821L22.4844 21.2727V20.4195C22.4844 20.2649 22.3578 20.1383 22.2031 20.1383L14.7828 20.1383C14.6281 20.1383 14.5016 20.2649 14.5016 20.4196V21.2727C14.5016 21.4274 14.6281 21.554 14.7828 21.554H15.6735V27.1415H12.9688C12.8141 27.1415 12.6875 27.0149 12.6875 26.8602V11.0774C12.6875 10.9227 12.8141 10.7961 12.9688 10.7961H24.0172C24.1719 10.7961 24.2984 10.9227 24.2984 11.0774V20.5356C24.1454 20.4414 23.9655 20.3869 23.7737 20.3868L23.68 20.3867C23.1638 20.3864 22.7346 20.7803 22.6783 21.2821L22.4842 21.2821ZM20.75 27.1414H18.7344V21.5539H20.75V27.1414ZM16.236 21.5539H18.1719V27.1414H16.236V21.5539ZM15.0641 20.9914H15.9547H18.4531H21.0313H21.9219V20.7008L15.0641 20.7008L15.0641 20.9914ZM15.861 15.2211H14.2813C14.1266 15.2211 14 15.0945 14 14.9398V13.3226C14 13.168 14.1266 13.0414 14.2813 13.0414H15.861C16.0157 13.0414 16.1422 13.168 16.1422 13.3226V14.9398C16.1422 15.0945 16.0157 15.2211 15.861 15.2211ZM14.5625 14.6586H15.5797V13.6039H14.5625V14.6586ZM22.6578 15.2211H21.0781C20.9234 15.2211 20.7969 15.0945 20.7969 14.9398V13.3226C20.7969 13.168 20.9234 13.0414 21.0781 13.0414H22.6578C22.8125 13.0414 22.9391 13.168 22.9391 13.3226V14.9398C22.9391 15.0945 22.8172 15.2211 22.6578 15.2211ZM21.3641 14.6586H22.3813V13.6039H21.3641V14.6586ZM15.8188 18.5351H14.2438C14.0891 18.5351 13.9625 18.4086 13.9625 18.2539V16.6367C13.9625 16.482 14.0891 16.3555 14.2438 16.3555L15.8234 16.3555C15.9781 16.3555 16.1047 16.4821 16.1047 16.6368V18.2539C16.1 18.4086 15.9734 18.5351 15.8188 18.5351ZM14.525 17.9726H15.5422V16.918H14.525V17.9726ZM22.6203 18.5351H21.0406C20.8859 18.5351 20.7594 18.4086 20.7594 18.2539V16.6367C20.7594 16.482 20.8859 16.3555 21.0406 16.3555L22.6203 16.3555C22.775 16.3555 22.9016 16.4821 22.9016 16.6368V18.2539C22.9016 18.4086 22.775 18.5351 22.6203 18.5351ZM21.3219 17.9726H22.3391V16.918H21.3219V17.9726Z" fill="white"/>
<path fill-rule="evenodd" clip-rule="evenodd" d="M24.7804 21.751H28.9102V22.7165C28.9102 23.1279 29.1603 23.4839 29.5159 23.64H24.2698C24.5754 23.4658 24.7804 23.136 24.7804 22.7588L24.7804 21.751ZM31.0195 21.751H31.2586C31.6664 21.751 31.9992 22.0838 31.9992 22.4916V23.64H30.4154C30.7708 23.4843 31.0195 23.1294 31.0195 22.7166V21.751ZM23.1835 23.64H21.6914V22.4916C21.6914 22.0838 22.0242 21.751 22.432 21.751H22.6711V22.7634C22.6711 23.1377 22.8782 23.4662 23.1835 23.64ZM22.9383 25.6135H24.0773V25.3838H22.9383V25.6135ZM25.1648 25.6135H26.3039V25.3838H25.1648V25.6135ZM27.3867 25.6135H28.5257V25.3838H27.3867V25.6135ZM31.0289 26.176H29.3273C29.2099 26.176 29.1087 26.1031 29.0668 26.0002C29.0243 26.1041 28.9236 26.176 28.807 26.176H27.1054C26.988 26.176 26.8869 26.1031 26.8449 26.0002C26.8024 26.1041 26.7018 26.176 26.5851 26.176H24.8835C24.7639 26.176 24.6611 26.1002 24.6207 25.9943C24.5797 26.1012 24.4775 26.176 24.3586 26.176H22.657C22.5023 26.176 22.3758 26.0494 22.3758 25.8947V25.1025C22.3758 24.9478 22.5023 24.8213 22.657 24.8213H24.3586C24.4778 24.8213 24.5803 24.8966 24.6211 25.0019C24.6618 24.8966 24.7643 24.8213 24.8835 24.8213H26.5851C26.7022 24.8213 26.8031 24.8938 26.8453 24.996C26.8875 24.8938 26.9884 24.8213 27.1054 24.8213H28.807C28.924 24.8213 29.025 24.8938 29.0672 24.996C29.1093 24.8938 29.2103 24.8213 29.3273 24.8213H31.0289C31.1836 24.8213 31.3101 24.9478 31.3101 25.1025V25.89C31.3101 26.0494 31.1883 26.176 31.0289 26.176ZM29.6133 25.6135H30.7523V25.3838H29.6133V25.6135ZM22.9383 27.5869H24.0773V27.3619H22.9383V27.5869ZM25.1648 27.5869H26.3039V27.3619H25.1648V27.5869ZM27.3867 27.5869H28.5257V27.3619H27.3867V27.5869ZM31.0289 28.1494H29.3273C29.2103 28.1494 29.1093 28.0769 29.0672 27.9746C29.025 28.0769 28.924 28.1494 28.807 28.1494H27.1054C26.9884 28.1494 26.8875 28.0769 26.8453 27.9746C26.8031 28.0769 26.7022 28.1494 26.5851 28.1494H24.8835C24.7643 28.1494 24.6618 28.0741 24.6211 27.9688C24.5803 28.0741 24.4778 28.1494 24.3586 28.1494H22.657C22.5023 28.1494 22.3758 28.0228 22.3758 27.8681V27.0806C22.3758 26.9259 22.5023 26.7994 22.657 26.7994H24.3586C24.4778 26.7994 24.5803 26.8747 24.6211 26.98C24.6618 26.8747 24.7643 26.7994 24.8835 26.7994H26.5851C26.7022 26.7994 26.8031 26.8719 26.8453 26.9742C26.8875 26.8719 26.9884 26.7994 27.1054 26.7994H28.807C28.924 26.7994 29.025 26.8719 29.0672 26.9742C29.1093 26.8719 29.2103 26.7994 29.3273 26.7994H31.0289C31.1836 26.7994 31.3101 26.9259 31.3101 27.0806V27.8681C31.3101 28.0228 31.1883 28.1494 31.0289 28.1494ZM29.6133 27.5869H30.7523V27.3619H29.6133V27.5869ZM22.9383 29.5603H24.0773V29.3353H22.9383V29.5603ZM25.1648 29.5603H26.3039V29.3353H25.1648V29.5603ZM27.3867 29.5603H28.5257V29.3353H27.3867V29.5603ZM31.0289 30.1228H29.3273C29.2103 30.1228 29.1093 30.0503 29.0672 29.9481C29.025 30.0503 28.924 30.1228 28.807 30.1228H27.1054C26.9884 30.1228 26.8875 30.0503 26.8453 29.9481C26.8031 30.0503 26.7022 30.1228 26.5851 30.1228H24.8835C24.7643 30.1228 24.6618 30.0475 24.6211 29.9422C24.5803 30.0475 24.4778 30.1228 24.3586 30.1228H22.657C22.5023 30.1228 22.3758 29.9963 22.3758 29.8416V29.0541C22.3758 28.8994 22.5023 28.7728 22.657 28.7728H24.3586C24.4778 28.7728 24.5803 28.8481 24.6211 28.9534C24.6618 28.8481 24.7643 28.7728 24.8835 28.7728H26.5851C26.7022 28.7728 26.8031 28.8454 26.8453 28.9476C26.8875 28.8454 26.9884 28.7728 27.1054 28.7728H28.807C28.924 28.7728 29.025 28.8454 29.0672 28.9476C29.1093 28.8454 29.2103 28.7728 29.3273 28.7728H31.0289C31.1836 28.7728 31.3101 28.8994 31.3101 29.0541V29.8416C31.3101 29.9963 31.1883 30.1228 31.0289 30.1228ZM29.6133 29.5603H30.7523V29.3353H29.6133V29.5603ZM31.9992 24.2025V30.5588C31.9992 30.9712 31.6664 31.3041 31.2586 31.3041H22.432C22.0242 31.3041 21.6914 30.9713 21.6914 30.5635V24.2025L31.9992 24.2025Z" fill="white"/>
<path fill-rule="evenodd" clip-rule="evenodd" d="M23.7734 23.3024H23.6797C23.3844 23.3024 23.1406 23.0587 23.1406 22.7633V21.3946C23.1406 21.0993 23.3844 20.8555 23.6797 20.8555L23.7734 20.8555C24.0688 20.8555 24.3125 21.0993 24.3125 21.3946V22.7587C24.3125 23.0587 24.0735 23.3024 23.7734 23.3024ZM30.0125 23.2555H29.9188C29.6235 23.2555 29.3797 23.0118 29.3797 22.7164V21.3477C29.3797 21.0524 29.6235 20.8086 29.9188 20.8086L30.0125 20.8087C30.3078 20.8087 30.5516 21.0525 30.5516 21.3478V22.7166C30.5516 23.0165 30.3078 23.2555 30.0125 23.2555Z" fill="#FFCD69"/>
<path fill-rule="evenodd" clip-rule="evenodd" d="M12.2188 27.1416H8.28125C8.12656 27.1416 8 27.015 8 26.8603V16.0134C8 15.8587 8.12656 15.7322 8.28125 15.7322H12.2188V27.1416ZM11.4594 19.6275H9.79065C9.63597 19.6275 9.5094 19.5009 9.5094 19.3462V17.9119C9.5094 17.7572 9.63597 17.6306 9.79065 17.6306H11.4594C11.6141 17.6306 11.7406 17.7572 11.7406 17.9119V19.3462C11.7406 19.5009 11.6141 19.6275 11.4594 19.6275ZM10.0719 19.065H11.1781V18.1931H10.0719V19.065ZM11.4594 22.4353H9.79065C9.63597 22.4353 9.5094 22.3087 9.5094 22.154V20.7197C9.5094 20.565 9.63597 20.4384 9.79065 20.4384H11.4594C11.6141 20.4384 11.7406 20.565 11.7406 20.7197V22.154C11.7406 22.3087 11.6141 22.4353 11.4594 22.4353ZM10.0719 21.8728H11.1781V21.0009H10.0719V21.8728ZM11.4594 25.2431H9.79065C9.63597 25.2431 9.5094 25.1165 9.5094 24.9618V23.5275C9.5094 23.3728 9.63597 23.2462 9.79065 23.2462H11.4594C11.6141 23.2462 11.7406 23.3728 11.7406 23.5275V24.9618C11.7406 25.1165 11.6141 25.2431 11.4594 25.2431ZM10.0719 24.6806H11.1781V23.8087H10.0719V24.6806Z" fill="#FFCD69"/>
<path fill-rule="evenodd" clip-rule="evenodd" d="M21.8332 11.3586H15.1582C15.0035 11.3586 14.877 11.2321 14.877 11.0774V8.03052C14.877 7.87583 15.0035 7.74927 15.1582 7.74927H21.8332C21.9879 7.74927 22.1145 7.87583 22.1145 8.03052V11.0774C22.1145 11.2321 21.9879 11.3586 21.8332 11.3586ZM18.8332 11.0774H18.1582C18.0035 11.0774 17.8769 10.9508 17.8769 10.7961V10.168H17.2488C17.0941 10.168 16.9676 10.0415 16.9676 9.88678V9.21178C16.9676 9.05709 17.0941 8.93053 17.2488 8.93053H17.8769V8.30242C17.8769 8.14773 18.0035 8.02117 18.1582 8.02117H18.8332C18.9879 8.02117 19.1144 8.14773 19.1144 8.30242V8.93053H19.7425C19.8972 8.93053 20.0238 9.05709 20.0238 9.21178V9.88678C20.0238 10.0415 19.8972 10.168 19.7425 10.168H19.1144V10.7961C19.1144 10.9508 18.9879 11.0774 18.8332 11.0774ZM18.4394 10.5149H18.5519V9.88678C18.5519 9.73209 18.6785 9.60553 18.8332 9.60553H19.4613V9.49303H18.8332C18.6785 9.49303 18.5519 9.36646 18.5519 9.21178V8.58367H18.4394V9.21178C18.4394 9.36646 18.3129 9.49303 18.1582 9.49303H17.5301V9.60553H18.1582C18.3129 9.60553 18.4394 9.73209 18.4394 9.88678V10.5149Z" fill="white"/>
</svg>
