<svg width="24" height="24" viewBox="0 0 24 24" fill="none" xmlns="http://www.w3.org/2000/svg">
<rect x="0.5" y="0.5" width="23" height="23" rx="11.5" stroke="white"/>
<path d="M12 13.75C11.6094 13.75 11.2422 13.625 10.8984 13.375L6 9.55469V14.875C6.01563 15.1875 6.125 15.4531 6.32812 15.6719C6.54687 15.875 6.8125 15.9844 7.125 16H16.875C17.1875 15.9844 17.4531 15.875 17.6719 15.6719C17.875 15.4531 17.9844 15.1875 18 14.875V9.55469L13.1016 13.375C12.7578 13.625 12.3906 13.75 12 13.75ZM6.375 8.89844L11.3438 12.7656C11.5469 12.9219 11.7656 13 12 13C12.2344 13 12.4531 12.9219 12.6562 12.7656L17.625 8.89844C17.8594 8.69531 17.9844 8.4375 18 8.125C17.9844 7.8125 17.875 7.54687 17.6719 7.32812C17.4531 7.125 17.1875 7.01563 16.875 7H7.125C6.8125 7.01563 6.54687 7.125 6.32812 7.32812C6.125 7.54687 6.01563 7.8125 6 8.125C6 8.4375 6.125 8.69531 6.375 8.89844Z" fill="white"/>
</svg>
