<svg width="24" height="24" viewBox="0 0 24 24" fill="none" xmlns="http://www.w3.org/2000/svg">
<rect x="0.5" y="0.5" width="23" height="23" rx="11.5" stroke="white"/>
<path d="M11.4375 17.1953C11.0156 16.6797 10.4922 15.9844 9.86719 15.1094C9.25781 14.25 8.71875 13.3594 8.25 12.4375C7.78125 11.5156 7.53125 10.7031 7.5 10C7.53125 8.71875 7.96875 7.65625 8.8125 6.8125C9.65625 5.96875 10.7187 5.53125 12 5.5C13.2813 5.53125 14.3438 5.96875 15.1875 6.8125C16.0312 7.65625 16.4687 8.71875 16.5 10C16.4687 10.7031 16.2188 11.5156 15.75 12.4375C15.2656 13.3594 14.7188 14.25 14.1094 15.1094C13.5 15.9844 12.9844 16.6797 12.5625 17.1953C12.4063 17.3828 12.2187 17.4766 12 17.4766C11.7813 17.4766 11.5937 17.3828 11.4375 17.1953ZM12 11.5C12.4219 11.4844 12.7734 11.3359 13.0547 11.0547C13.3359 10.7734 13.4844 10.4219 13.5 10C13.4844 9.57812 13.3359 9.22656 13.0547 8.94531C12.7734 8.66406 12.4219 8.51563 12 8.5C11.5781 8.51563 11.2266 8.66406 10.9453 8.94531C10.6641 9.22656 10.5156 9.57812 10.5 10C10.5156 10.4219 10.6641 10.7734 10.9453 11.0547C11.2266 11.3359 11.5781 11.4844 12 11.5Z" fill="white"/>
</svg>
