<svg width="32" height="32" viewBox="0 0 32 32" fill="none" xmlns="http://www.w3.org/2000/svg">
<rect x="0.5" y="0.5" width="31" height="31" rx="15.5" stroke="white" stroke-opacity="0.3"/>
<path d="M13.2531 20H11.0734V12.9922H13.2531V20ZM12.1516 12.0547C11.4719 12.0547 10.9094 11.4688 10.9094 10.7656C10.9094 10.0859 11.4719 9.52344 12.1516 9.52344C12.8547 9.52344 13.4172 10.0859 13.4172 10.7656C13.4172 11.4688 12.8547 12.0547 12.1516 12.0547ZM21.3859 20H19.2297V16.6016C19.2297 15.7812 19.2062 14.75 18.0812 14.75C16.9562 14.75 16.7922 15.6172 16.7922 16.5312V20H14.6125V12.9922H16.6984V13.9531H16.7219C17.0266 13.4141 17.7297 12.8281 18.7844 12.8281C20.9875 12.8281 21.4094 14.2812 21.4094 16.1562V20H21.3859Z" fill="white"/>
</svg>
