<svg width="24" height="24" viewBox="0 0 24 24" fill="none" xmlns="http://www.w3.org/2000/svg">
<rect x="0.5" y="0.5" width="23" height="23" rx="11.5" stroke="white"/>
<g clip-path="url(#clip0_216_1144)">
<path d="M8.73076 12.3023C8.29625 11.4757 8.08645 10.8008 7.95994 10.1167C7.77284 9.10485 8.20101 8.11646 8.91031 7.48579C9.2101 7.21925 9.55375 7.31032 9.73102 7.65726L10.1312 8.44051C10.4484 9.06134 10.607 9.37175 10.5756 9.70085C10.5441 10.03 10.3302 10.298 9.90242 10.8341L8.73076 12.3023ZM8.73076 12.3023C9.61025 13.9752 10.9904 15.4817 12.5257 16.4423M12.5257 16.4423C13.2834 16.9163 13.9021 17.1452 14.5292 17.2832C15.4567 17.4873 16.3627 17.0202 16.9408 16.2464C17.1852 15.9194 17.1017 15.5445 16.7837 15.3511L16.0657 14.9145C15.4966 14.5684 15.212 14.3954 14.9104 14.4297C14.6087 14.464 14.363 14.6974 13.8716 15.1641L12.5257 16.4423Z" stroke="white" stroke-width="1.5" stroke-linejoin="round"/>
<path d="M13.416 9.74698C14.0683 10.0492 14.5911 10.6194 14.8681 11.3311M13.7158 7.33105C15.337 7.84143 16.6148 9.23531 17.0827 11.0039" stroke="white" stroke-width="1.5" stroke-linecap="round"/>
</g>
<defs>
<clipPath id="clip0_216_1144">
<rect width="11" height="12" fill="white" transform="translate(7 6.33105)"/>
</clipPath>
</defs>
</svg>
