<svg width="32" height="32" viewBox="0 0 32 32" fill="none" xmlns="http://www.w3.org/2000/svg">
<rect x="0.5" y="0.5" width="31" height="31" rx="15.5" stroke="white" stroke-opacity="0.3"/>
<path d="M22.2953 12.4297C22.5766 13.4141 22.5766 15.5234 22.5766 15.5234C22.5766 15.5234 22.5766 17.6094 22.2953 18.6172C22.1547 19.1797 21.7094 19.6016 21.1703 19.7422C20.1625 20 16.1781 20 16.1781 20C16.1781 20 12.1703 20 11.1625 19.7422C10.6234 19.6016 10.1781 19.1797 10.0375 18.6172C9.75625 17.6094 9.75625 15.5234 9.75625 15.5234C9.75625 15.5234 9.75625 13.4141 10.0375 12.4297C10.1781 11.8672 10.6234 11.4219 11.1625 11.2812C12.1703 11 16.1781 11 16.1781 11C16.1781 11 20.1625 11 21.1703 11.2812C21.7094 11.4219 22.1547 11.8672 22.2953 12.4297ZM14.8656 17.4219L18.1937 15.5234L14.8656 13.625V17.4219Z" fill="white"/>
</svg>
