<svg width="32" height="32" viewBox="0 0 32 32" fill="none" xmlns="http://www.w3.org/2000/svg">
<rect x="0.5" y="0.5" width="31" height="31" rx="15.5" stroke="white" stroke-opacity="0.3"/>
<path d="M20.9266 13.0625C20.9266 13.1797 20.9266 13.2734 20.9266 13.3906C20.9266 16.6484 18.4656 20.375 13.9422 20.375C12.5359 20.375 11.2469 19.9766 10.1687 19.2734C10.3562 19.2969 10.5437 19.3203 10.7547 19.3203C11.9031 19.3203 12.9578 18.9219 13.8016 18.2656C12.7234 18.2422 11.8094 17.5391 11.5047 16.5547C11.6687 16.5781 11.8094 16.6016 11.9734 16.6016C12.1844 16.6016 12.4187 16.5547 12.6062 16.5078C11.4812 16.2734 10.6375 15.2891 10.6375 14.0938V14.0703C10.9656 14.2578 11.3641 14.3516 11.7625 14.375C11.0828 13.9297 10.6609 13.1797 10.6609 12.3359C10.6609 11.8672 10.7781 11.4453 10.9891 11.0938C12.2078 12.5703 14.0359 13.5547 16.075 13.6719C16.0281 13.4844 16.0047 13.2969 16.0047 13.1094C16.0047 11.75 17.1062 10.6484 18.4656 10.6484C19.1687 10.6484 19.8016 10.9297 20.2703 11.4219C20.8094 11.3047 21.3484 11.0938 21.8172 10.8125C21.6297 11.3984 21.2547 11.8672 20.7391 12.1719C21.2312 12.125 21.7234 11.9844 22.1453 11.7969C21.8172 12.2891 21.3953 12.7109 20.9266 13.0625Z" fill="white"/>
</svg>
