<svg width="271" height="61" viewBox="0 0 271 61" fill="none" xmlns="http://www.w3.org/2000/svg">
<path d="M100.48 34.1418L79.1092 14.9606V35.4446H69.3105V6.51428C69.3105 1.8775 72.1243 0 75.2006 0C76.5035 0 77.8064 0.312091 79.5253 1.8775L100.896 21.0587V0.574644H110.749V29.4505C110.749 34.0873 107.936 36.0193 104.81 36.0193C103.457 36.0193 102.149 35.7072 100.485 34.1418H100.48Z" fill="white"/>
<path d="M162.398 20.2215C162.398 30.7484 155.151 36.0143 140.661 36.0143C123.877 36.0143 116.635 30.7484 116.635 20.2215V0.574646H127.37V20.2265C127.37 25.3884 129.559 27.0528 140.661 27.0528C148.949 27.0528 151.554 25.1258 151.554 20.2265V0.574646H162.398V20.2265V20.2215Z" fill="white"/>
<path d="M217.961 35.4446H203.525L195.758 26.2206H179.182V35.4446H168.393V17.6208H198.73C202.064 17.6208 204.669 16.1098 204.669 13.7122C204.669 11.0024 202.43 9.6451 198.73 9.6451H168.393L175.427 0.574646H197.838C205.759 0.574646 215.766 3.07633 215.766 13.0335C215.766 18.453 212.378 22.9362 206.646 24.0855C207.845 24.9722 209.148 26.2206 211.545 28.6727L217.956 35.4496L217.961 35.4446Z" fill="white"/>
<path d="M270.446 17.9824C270.446 30.4413 261.895 36.0193 244.958 36.0193C228.021 36.0193 219.471 30.4413 219.471 17.9824C219.471 5.52352 227.967 0 244.958 0C261.95 0 270.446 5.52352 270.446 17.9824ZM259.711 17.9824C259.711 10.4773 255.802 9.07046 244.958 9.07046C234.114 9.07046 230.206 10.4773 230.206 17.9824C230.206 25.4874 234.114 26.9488 244.958 26.9488C255.802 26.9488 259.711 25.4874 259.711 17.9824Z" fill="white"/>
<path d="M75.3296 44.8817L82.4631 55.4036L89.9037 44.8817H95.6849L85.5394 59.218C84.8508 60.1444 83.8799 60.9964 82.364 60.9964C80.8481 60.9964 79.9218 60.2137 79.2332 59.218L69.3008 44.8817H75.3197H75.3296Z" fill="white"/>
<path d="M115.857 56.6618L112.706 60.7389H97.4434V44.8817H115.812L112.637 49.0032H102.372V50.9006H114.935L112.117 54.502H102.377V56.6569H115.862L115.857 56.6618Z" fill="white"/>
<path d="M137.233 44.8817L134.058 49.0032H128.396V60.7339H123.491V49.0032H116.051L119.226 44.8817H137.238H137.233Z" fill="white"/>
<path d="M11.2285 55.9486C7.59897 52.319 7.48922 45.7341 10.7895 41.8616C12.4279 39.9331 14.8581 38.7964 16.5513 36.915C18.3387 34.9239 19.4283 32.2115 21.2392 30.1812C25.6056 25.266 33.4605 25.1876 37.921 30.0244C39.8259 32.0939 40.8842 34.822 42.7656 36.915C44.1218 38.428 45.8385 39.3217 47.3045 40.6387C54.7517 47.2706 50.0168 59.7428 39.8024 58.951C36.7764 58.7158 34.7069 56.7482 32.0024 56.0427C26.6482 54.6394 24.3356 58.3866 19.7027 58.9353C16.6454 59.2959 13.4078 58.1279 11.2364 55.9564L11.2285 55.9486ZM39.8494 55.784C39.8572 55.2039 39.9513 53.6831 39.8024 53.2284C39.7005 52.907 38.6657 51.8095 38.3991 51.3705C37.9993 50.7277 37.8896 50.7669 38.2972 50.1006C38.3835 49.9594 39.0733 49.0344 39.136 48.9952C39.379 48.8384 39.6769 49.0736 39.9199 49.1285C40.1159 49.1677 40.4217 49.105 40.5392 49.1755C40.649 49.2382 41.6446 51.2451 41.6602 51.3627C41.6916 51.7311 40.8215 53.0089 40.7666 53.6909C40.7117 54.3259 41.0174 54.7413 41.0723 55.3214C41.1037 55.6429 41.0723 57.6183 41.1742 57.7202C41.2056 57.7516 41.6602 57.6967 41.7857 57.7202C41.6759 56.8815 41.7622 55.9329 41.6838 55.1176C41.6367 54.6394 41.3388 54.1456 41.3702 53.6909C41.378 53.5576 41.9268 52.2563 41.9895 52.2093C42.1228 52.1074 42.2168 52.2955 42.2717 52.3896C42.844 53.2833 43.1811 55.5723 43.2202 56.6541C43.2281 56.9128 43.087 57.148 43.1183 57.4145C43.1967 57.4929 43.9258 57.2656 44.0355 57.1637C44.3021 56.9206 43.9336 56.7011 43.8552 56.4189C43.6514 55.6821 43.6279 54.8119 43.526 54.0515C44.498 54.5219 46.2619 54.3729 46.5833 55.5801C46.7244 55.6899 47.4691 54.9373 47.2966 54.7649C46.7949 54.8668 46.6303 54.4513 46.3089 54.271C45.4779 53.8006 44.3413 53.7615 43.4711 53.3381C43.2516 52.6718 41.1899 49.3245 41.2683 48.9168C41.2683 48.8855 41.6603 48.5406 41.723 48.5406C41.8719 48.5406 44.404 49.5205 44.5294 49.6224C44.8978 49.9046 45.1252 51.3862 45.5171 51.8095C45.1722 53.2597 47.0693 52.7345 46.4814 51.8565C46.3716 51.6841 46.1051 51.6214 45.9404 51.3783C45.8385 51.2216 45.3839 50.0535 45.4544 49.9751C45.964 50.1476 46.7714 50.2887 46.9909 50.8374C47.328 51.6527 47.3358 52.664 48.1041 53.393C48.4882 53.7536 48.7547 53.0167 48.6998 52.8051C48.6293 52.5229 47.524 51.833 47.7983 51.104C47.9159 50.9785 48.6998 51.7781 48.8174 51.8722C48.9193 51.9506 48.9664 52.1074 49.131 51.9741C49.8444 51.4175 48.3157 50.7355 48.01 50.4376C48.0022 50.1397 49.4838 49.7556 49.6405 49.6224C49.8208 49.4734 49.7268 49.1598 49.7425 48.956C49.523 48.7209 47.5867 49.9594 47.3515 49.9673C47.1634 49.9751 45.9718 49.4891 45.7053 49.3715C45.6426 49.3402 45.4858 49.395 45.5642 49.2147C45.6582 48.9952 46.9517 47.8742 47.2261 47.7174C48.0727 47.2314 48.7939 47.3804 49.4681 47.106C49.7425 46.9884 49.5543 46.5337 49.4759 46.5102C49.3191 46.4632 48.4098 46.5964 48.1903 46.6435C46.7636 46.9492 45.8621 48.1172 44.7959 48.9639C44.6548 48.9795 42.2952 48.0937 42.1933 47.9996C42.0522 47.8585 42.0365 47.2784 42.1384 47.1217C42.3031 46.8708 46.45 45.6949 47.0536 45.397C47.8924 45.4754 48.3314 46.275 49.3348 46.0007C49.4759 45.2716 48.4803 45.5538 48.1119 45.0286C48.4176 44.6758 49.1153 44.8013 48.7155 44.2212C48.4568 43.8449 47.7983 44.4015 47.4299 44.5426C45.9404 45.1148 44.208 45.7812 42.6872 46.228C42.3971 46.3142 41.9033 46.5416 41.7308 46.1966C41.6054 45.9536 42.6637 44.7464 42.8126 44.4171L46.9831 42.2143C47.1006 42.0419 46.7479 41.6107 46.5284 41.6107C46.1756 41.6029 43.0635 43.6175 42.4442 43.8527C42.0522 44.1976 41.3702 45.5381 41.1664 45.6401C40.9469 45.7498 40.3119 45.5068 39.8416 45.6401C39.4182 45.7498 38.9165 46.4005 38.8538 46.4161C38.6265 46.471 37.5839 45.7655 37.3565 45.5773C37.2546 45.4833 37.1449 45.4754 37.1841 45.2873C37.8112 44.958 38.6735 45.6009 39.1595 45.2873C39.5437 45.0443 39.3634 43.8684 38.6108 44.0957C38.258 44.2055 38.2424 44.6131 37.9523 44.668C37.7328 44.7072 37.0743 44.6915 36.8313 44.668C36.7294 44.6523 35.9925 44.4563 35.8593 44.4093C35.7652 44.3779 34.7382 43.7665 34.7382 43.7038C34.8245 43.5548 34.9577 43.5783 35.0832 43.547C36.1493 43.2491 39.2615 42.8493 40.2884 43.0453C40.6412 43.1158 40.7039 43.5783 41.2605 43.4059C41.817 43.2334 41.8327 42.3398 41.2605 42.1673C40.7823 42.0262 40.696 42.3868 40.2884 42.4338C39.7161 42.5044 39.0733 42.1751 38.4462 42.4338C38.1797 42.4103 38.8146 41.6421 38.9087 41.5715C39.6613 40.9757 40.5471 41.501 41.2996 41.5245C41.6603 41.5323 41.9973 41.3834 42.3109 41.4147C43.1889 41.5166 43.5809 42.034 44.6862 41.5323C44.9997 41.3912 45.9561 40.8268 45.2584 40.6151C44.7959 40.474 44.5529 41.0228 44.0512 41.1012C43.7298 41.1482 42.5696 41.1404 42.9537 40.6935C43.1497 40.474 43.9101 40.0272 44.208 39.8782C43.526 38.7024 42.5304 40.5759 41.7857 40.7719C40.8293 41.0228 40.0297 40.2388 38.8617 40.8111C38.1326 41.1717 37.6074 42.3633 37.1919 42.5044C36.8548 42.622 34.3855 43.0453 34.0484 43.0374C33.9073 43.0374 33.774 42.9982 33.6564 42.9199L29.8231 40.7798C30.0191 40.4819 29.8309 39.6431 29.9407 39.4785C30.0974 39.2354 34.6834 37.6127 35.2948 37.2364C36.3923 37.7852 38.2816 39.1414 39.4888 39.2354C39.9827 39.2746 40.4138 38.9767 40.7979 38.9532C41.0253 38.9375 41.2056 39.0473 41.4016 39.0551C42.4834 39.0865 42.4207 37.5108 41.2996 37.7225C40.939 37.793 40.9234 38.1536 40.6647 38.3104C40.3276 38.5142 39.6691 38.5769 39.2771 38.5064C38.8852 38.4358 36.9724 37.4795 36.5805 37.2286C36.4158 37.1189 36.2669 37.0091 36.1415 36.8523C36.5883 36.6485 37.3565 35.9351 37.772 35.8254C38.1169 35.7313 38.4227 36.0449 38.8538 35.794C39.2615 35.551 39.0184 35.0885 39.1204 34.7357C39.1595 34.5946 39.3634 34.5162 39.3947 34.3908C39.4104 34.3359 39.3242 33.8656 39.3085 33.8499C39.1047 33.6775 38.6814 34.3438 38.454 34.4692C38.258 34.5711 37.9837 34.579 37.8504 34.6573C37.7015 34.7514 37.576 35.4334 37.1684 35.3786C37.1292 34.6025 37.4428 33.9205 37.9288 33.3404C38.0621 33.1836 38.4932 32.9092 38.5011 32.87C38.5167 32.7603 38.2894 32.3213 38.2267 32.3134C37.8818 32.2586 37.0665 33.3247 36.9019 33.6461C36.5334 34.3673 36.6275 34.9474 36.4237 35.6137C36.2355 36.2487 35.0675 36.5231 34.5109 36.8131C34.8794 35.943 34.9499 34.5633 35.4046 33.7794C35.4673 33.6775 36.0944 32.917 36.1415 32.8857C36.4002 32.7367 36.7608 32.9327 36.9097 32.431C37.043 31.9763 36.7686 31.6001 36.2904 31.6079C35.4986 31.6236 35.8749 32.2194 35.7025 32.5094C35.5692 32.7446 34.9185 33.1914 34.6834 33.6853C34.1817 34.7436 34.2601 36.2173 33.4448 37.1894C32.9587 37.3305 29.7682 38.8748 29.6036 38.7494C29.5879 38.7337 29.5017 38.4202 29.5487 38.3496C30.1523 37.4716 30.9284 36.6799 31.4223 35.7235C31.6574 35.2688 31.9005 34.2497 32.1513 33.9283C32.3786 33.6304 34.017 33.2698 34.5423 32.7211C35.3105 31.9215 34.9969 30.4869 36.0317 30.0244C36.0866 29.7971 35.044 29.068 34.9107 29.1621C34.7147 29.5227 34.9185 29.8441 34.8715 30.1812C34.8323 30.4634 34.3071 31.8823 34.1425 32.1174C33.97 32.3683 32.4884 33.1679 32.363 33.0425C32.3238 31.3414 33.6251 30.2047 34.1973 28.7152C34.1738 28.5898 33.6408 28.4174 33.5937 28.4566C33.531 28.5036 33.045 29.6795 32.8882 29.8519L32.363 30.5966C31.8691 29.5854 32.5433 28.9739 32.7706 28.0489C32.5981 28.0959 32.3395 27.9392 32.2219 27.9627C32.0494 28.0019 31.5869 29.3032 31.5555 29.5384C31.4693 30.338 31.971 30.8867 31.9632 31.459C31.9475 32.1175 31.2576 34.5241 30.9598 35.1512C30.803 35.4726 29.1724 37.8087 29 37.8949C28.8275 37.9812 28.2944 37.6206 28.0122 37.5578C27.777 37.503 27.4478 37.5892 27.2675 37.4873C27.0088 37.3384 26.7188 35.8881 26.7658 35.551C26.8363 35.0807 27.7222 32.6505 27.9652 32.1566C28.4434 31.1767 29.7525 31.4119 30.4345 30.6437C30.9441 30.0714 30.7403 29.1856 30.9598 28.6212C31.0303 28.433 31.4301 28.3782 31.4301 27.9705C31.4301 27.461 30.4424 27.6726 30.1288 27.6334C29.972 28.0332 30.3248 28.4095 30.3326 28.6917C30.3326 28.9504 30.1758 29.7108 30.0504 29.9538C29.7996 30.432 29.1019 30.675 28.6002 30.8005C29.0156 29.7343 29.4938 28.8407 29.3135 27.6413H28.6002C29.047 28.9739 27.9887 29.8833 27.7849 31.1062C27.5105 31.3649 27.048 29.8049 27.0166 29.6795C26.8677 29.068 26.8599 28.676 26.9696 28.0489C26.7893 27.9627 25.7937 28.2998 25.7467 28.3625C25.5272 28.6996 26.1935 28.825 26.2327 28.8877C26.2719 28.9504 26.4444 30.0949 26.5306 30.3772C26.6717 30.824 27.2283 31.7647 27.244 32.1018C27.2675 32.5173 26.4679 34.1713 26.3033 34.6887L24.414 29.1778C24.0926 29.1778 23.7947 29.2718 23.7947 29.6324C23.7947 29.9617 24.657 31.796 24.5159 31.9293C24.124 31.8588 23.3401 31.7177 23.0108 31.5452C22.7678 31.4198 22.7129 31.0748 22.3994 31.0278C21.9604 30.9573 21.5762 31.5138 21.733 31.898C21.9682 32.4781 22.4072 32.1096 22.807 32.1488C23.0265 32.1723 24.8217 32.8622 24.9314 32.9954L26.562 37.7382C26.3346 37.7852 26.0995 37.9341 25.8956 37.7382L23.3949 35.0336C23.2225 34.7828 23.3636 34.4379 23.1676 34.187C22.9873 33.9597 22.564 33.991 22.3288 33.8578C21.976 33.6539 21.3254 32.5329 21.0981 32.431C20.8472 32.3213 20.6199 32.7916 20.6591 32.9641C20.7061 33.1601 22.0466 34.2105 21.8741 34.3595C21.4508 34.5476 20.079 33.9205 19.8908 33.944C19.8438 33.944 19.3499 34.7279 19.6948 34.7514C20.2514 34.822 21.1843 34.8298 21.6938 34.9944C21.9212 35.065 22.0309 35.4021 22.2426 35.4648C22.4778 35.5275 22.7913 35.4177 22.9873 35.5353L25.3861 38.3496C25.5115 38.4515 25.1588 39.3138 25.1196 39.353C24.9785 39.4706 22.8305 39.0708 22.5169 38.9689C22.0231 38.8121 21.8977 38.671 21.5841 38.2712C21.3567 37.989 20.7061 36.915 20.5963 36.6015C20.518 36.3741 20.7531 36.1076 20.5963 35.794C20.4317 35.4491 19.8673 35.4021 19.64 35.7548C19.2715 36.3193 19.8516 36.4525 20.079 36.821C20.2749 37.1267 20.6904 37.9341 20.8629 38.2869C20.9256 38.4123 20.9961 38.4986 20.9569 38.6475C19.6635 38.8121 19.397 37.0013 18.37 36.5152C17.5155 37.1972 18.9344 37.6441 19.0207 38.3418C18.1819 38.3888 17.1236 37.6206 16.5748 38.4986C16.5748 38.7337 19.3656 39.1335 19.734 39.1649C19.8673 39.2825 18.8874 40.2153 18.6365 40.2702C18.1348 40.38 17.0844 39.8391 16.6376 39.5568C16.4416 39.4314 16.1986 39.063 16.0104 39.063C15.9477 39.063 15.3519 39.502 15.3441 39.5412C15.1873 40.3172 16.1202 40.0899 16.5827 40.231C17.1079 40.3878 17.8213 41.0071 18.4562 40.9914C19.5302 40.9679 20.2201 39.3687 20.7845 39.3844C21.294 39.6274 24.8922 40.0272 25.0412 40.1918C25.0725 40.231 25.1744 41.109 25.1274 41.1796C23.5596 42.1595 22.0936 43.3353 20.5023 44.2604C19.977 43.9546 19.2715 44.4877 18.8796 44.4642C18.6914 44.4563 16.5592 43.2726 16.3632 43.0923C15.838 42.5906 15.7517 41.5637 15.0384 41.0541C14.4661 40.6465 13.6822 40.4505 13.3137 41.2031C14.3015 41.2266 15.0776 41.7753 15.3519 42.7317C15.2971 42.7787 14.0114 42.5749 13.9017 42.5279C13.6508 42.4181 13.8311 42.0105 13.0786 42.1438C12.4122 42.2614 12.4357 43.6254 13.4627 43.4451C13.6979 43.4059 13.7527 43.1629 13.9487 43.1629C14.3407 43.155 15.4774 43.4372 15.8615 43.594C16.1045 43.6959 18.1192 44.8169 18.2054 44.9188C18.3387 45.0756 18.2681 45.5381 18.1584 45.6871C18.0329 45.8517 16.3632 45.8047 16.0104 45.789C15.3362 45.7733 14.5994 45.6087 13.8938 45.6636C12.961 44.8326 12.3574 43.7273 11.0247 43.4294C10.3819 44.2525 11.2755 44.1506 11.8321 44.5582C12.0281 44.7072 12.7728 45.4362 12.9061 45.6244C12.9688 45.7106 13.0472 45.7263 13.008 45.8831C12.5612 45.8752 11.6753 46.4005 11.3226 46.3848C11.1423 46.3769 11.0012 46.1574 10.7974 46.1026C9.44118 45.7812 9.37063 47.7723 10.6092 47.7253C11.3069 47.6939 11.2599 47.1295 11.4402 46.9962C11.7694 46.7611 13.2432 46.6435 13.7135 46.3377C14.4269 46.5729 17.7194 46.181 18.1113 46.4396C18.2054 46.5024 18.4171 47.1765 18.3622 47.3098C17.6096 47.8037 16.4181 49.4577 15.6733 49.7321C15.4382 49.8183 13.4313 50.0535 13.1962 50.0222C12.7572 49.9594 11.7929 49.3558 11.2912 49.1755C11.0012 49.0736 9.90369 48.7052 9.69203 48.7601C9.45686 48.8149 9.53525 49.2774 9.52741 49.4577C9.94289 49.2696 12.5847 50.3671 12.5847 50.5317C12.1457 51.0883 11.7145 51.7154 11.158 52.1701C10.6484 52.5856 10.0997 52.4053 10.5465 53.2362C10.6719 53.3303 11.6126 52.711 11.7694 52.5777C12.2711 52.1623 12.9531 50.9393 13.3059 50.7512C13.7449 50.5082 14.6229 50.6023 15.1324 50.4925C15.1638 50.8218 14.9913 51.1118 14.8737 51.4097C14.3799 52.6953 13.9017 53.832 12.522 54.3651C12.2006 54.4905 11.9027 54.4121 11.6675 54.6316C11.8635 54.8119 12.0046 55.1568 12.2241 55.2979C12.7023 55.6037 12.4985 55.2195 12.7336 54.9844C13.1491 54.5532 13.9801 54.4827 14.568 53.6595C15.1559 52.8364 15.4695 51.0883 15.9947 50.3984C16.2534 50.0692 17.0295 49.5596 17.3823 49.2304C17.6645 48.9717 18.6052 47.8899 18.809 47.7958C19.0363 47.6939 19.4832 47.8585 19.3734 48.1564L16.8414 55.6272C16.5905 56.0191 15.7282 55.9486 15.2971 56.223C15.0697 56.3719 14.5837 56.9755 14.9913 57.1088C15.5166 57.2813 15.4068 56.905 15.6969 56.7247C15.8144 56.6541 16.4965 56.4581 16.5513 56.513C16.5748 56.7011 16.175 57.4537 16.2456 57.5321C16.2691 57.5556 16.9276 57.6575 16.959 57.634C17.0844 57.5243 17.735 54.7413 18.0329 54.3729C18.1584 54.5532 18.5033 54.7649 18.5974 54.9295C18.7306 55.1647 18.7463 56.466 18.6914 56.7717C18.6365 57.0539 18.3622 57.1088 18.3073 57.3048C18.2759 57.4067 18.2603 57.8222 18.2838 57.8457C18.3308 57.9005 19.5616 57.7908 19.6086 57.7438C19.6556 57.6889 19.5929 57.2656 19.5459 57.1558C19.4753 56.9912 19.3107 57.0461 19.3107 57.0304V55.6037C19.687 55.7134 20.3298 56.2543 20.5336 56.5679C20.8942 57.1245 20.5493 57.6497 21.4508 57.3361C21.3254 55.4155 19.1383 55.0863 18.2838 53.6125L20.0711 48.0545C21.7957 47.8742 22.4699 45.9615 21.247 44.7385C21.8114 44.4328 25.4018 41.6969 25.6683 41.744C25.731 41.7518 26.3581 42.2065 26.2327 42.3711L24.6649 47.545C23.6223 48.2583 22.6894 49.2382 21.7095 49.9908C21.294 50.3122 21.0667 50.3122 20.7061 50.516C19.8908 50.9707 20.5258 52.0682 21.3567 51.6762C21.6703 51.5273 21.5998 50.9942 21.8114 50.6963C21.976 50.4612 23.7163 49.1128 24.0613 48.8698C24.1475 48.8149 24.32 48.6581 24.414 48.713C23.9515 49.7791 23.9045 51.4097 23.4263 52.4131C23.3244 52.6248 22.9167 52.515 22.807 53.0167C22.6816 53.5733 23.0108 53.7144 22.9873 54.1064C22.9873 54.2161 22.7208 55.0236 22.6659 55.1176C22.5169 55.3606 22.1328 55.4312 22.0152 55.7996C21.7173 56.7403 22.8932 57.0696 23.2773 56.3405C23.5047 55.9094 23.199 55.7526 23.2225 55.3685C23.2303 55.2117 23.4498 54.4905 23.5282 54.3415C23.7242 53.9888 24.2964 54.028 24.4062 53.4792C24.5159 52.9619 24.1161 52.8521 24.124 52.4993C24.124 52.2798 24.6727 50.32 24.7825 50.2887C24.9393 50.3906 25.9427 50.9001 25.9584 50.9707C26.0681 51.4097 25.5037 52.515 25.441 53.0951C25.4096 53.393 25.5037 55.149 25.6448 55.2823C25.7232 55.3606 26.2092 55.2117 26.3581 55.1803C25.8251 53.8869 26.0916 52.758 26.562 51.5116C27.2126 51.7154 27.2753 52.6169 27.1656 53.1892C27.1264 53.4087 26.9226 53.5341 26.8834 53.7223C26.7109 54.4827 27.7222 54.757 27.9965 54.1142C28.1925 53.6674 27.8476 53.5184 27.7849 53.1814C27.7222 52.8443 27.8241 52.4131 27.7849 52.0603C27.6673 51.0413 25.7389 50.0849 24.9236 49.5988L27.0402 42.4181C27.291 42.473 28.0279 42.3398 28.1768 42.4417C28.3179 42.5279 29.4311 44.9816 29.6193 45.3422C28.7491 47.1844 28.4826 48.6738 28.8353 50.7042C28.9608 51.4254 29.5487 52.5385 29.5879 52.9932C29.6193 53.2989 29.0783 54.4278 29.2116 54.5611C29.3527 54.5375 29.7447 54.6081 29.8152 54.5532C29.8701 54.5062 30.2229 53.1892 30.2229 53.0716C30.2307 52.6718 29.7055 51.5116 29.5879 50.9707C29.3135 49.7635 29.1959 48.7757 29.5173 47.5685C29.5565 47.4195 29.9563 46.079 30.2307 46.2985C30.364 46.8551 31.0146 47.5136 31.0538 48.0859C31.1009 48.8384 30.7795 49.9594 30.7403 50.7355C30.6697 52.2955 32.0964 52.6561 32.4257 53.7379C32.5511 54.1299 32.2611 54.4435 32.4178 54.757C32.6609 55.2509 33.6251 55.102 33.3899 54.2161C33.3664 54.1221 33.1704 54.1064 33.0999 53.9731C32.9352 53.6439 32.8804 53.2597 32.653 52.8835C32.3708 52.421 31.4301 51.5508 31.3596 51.104C31.3125 50.8139 31.4928 49.4969 31.5477 49.0893C31.6182 48.5249 32.0494 49.6616 32.1435 49.8183C32.606 50.6179 33.6251 51.982 33.8681 52.7816C33.9308 52.9932 34.166 53.7301 34.1895 53.8869C34.362 54.7649 33.9073 54.7257 33.6878 55.4077C34.0484 55.6037 34.699 56.1289 34.9577 55.5645C35.138 55.1647 34.8637 55.0784 34.8088 54.7962C34.6363 53.9339 34.895 54.2475 35.3183 54.0907C36.0866 53.8085 36.4002 52.9697 35.8828 52.2955C35.3105 51.5508 34.5031 52.0995 34.2444 51.9036C33.7897 51.5586 33.0371 49.7478 32.6687 49.1912C33.774 49.5283 35.0126 49.638 35.9847 50.2652C36.8548 50.3906 36.8548 49.2539 36.165 49.1598C35.9298 49.1285 35.6633 49.2696 35.2948 49.2226C34.3228 49.0893 33.1155 48.4151 32.1121 48.2191L28.9372 42.3084C28.7569 42.0654 29.3684 41.501 29.5565 41.4931C29.7447 41.4853 32.7157 43.1785 32.8176 43.3353C33.0763 43.743 33.2958 45.0913 33.5388 45.6714C33.7191 46.1026 34.1346 46.5337 34.2444 46.8003C34.3541 47.0668 34.2365 47.4509 34.5109 47.6547C34.9499 47.984 35.6006 47.5607 35.53 47.0589C35.4751 46.6748 34.9969 46.5964 34.7618 46.3926C34.2757 45.9771 33.8838 44.6915 33.7975 44.0487C33.8681 43.9703 35.2478 44.7856 35.334 44.911C35.5378 45.2011 35.334 45.7576 35.7417 46.032C36.2826 46.4005 36.5648 45.9536 36.8627 46.032C36.9959 46.0634 38.4932 47.0276 38.5481 47.1138C38.6735 47.3255 38.5716 48.0545 38.7833 48.3759C38.3443 49.0109 37.3409 49.9281 37.3644 50.7355C37.3879 51.4724 38.6343 52.5464 38.5794 52.8599C37.9523 53.7693 37.0743 54.3102 36.7921 55.4547C36.6197 56.1446 36.3688 57.1793 37.3722 57.1088C37.3173 56.074 37.3409 55.345 37.9837 54.514C38.1248 54.3259 39.0263 53.3695 39.2066 53.542C39.1517 54.4121 39.332 55.3528 39.1047 56.1916C38.8146 56.4895 38.6735 56.7325 38.6892 57.1637C38.7049 57.7516 38.8381 57.5007 39.1047 57.6183C39.2223 57.6732 39.3085 57.783 39.481 57.7986C40.0611 57.8613 40.0689 57.2107 39.9199 56.7952C39.8886 56.7011 39.8337 56.6384 39.818 56.5914C39.8024 56.5522 39.724 56.513 39.7161 56.4895C39.6613 56.223 39.8102 55.9799 39.818 55.7761L39.8494 55.784Z" fill="#003366"/>
<path d="M39.9516 56.8033L39.8496 56.5992C39.8653 56.6463 39.9202 56.7091 39.9516 56.8033Z" fill="#003366"/>
<path d="M19.8345 2.05414C23.6679 1.53676 25.5963 4.99384 26.4037 8.18439C26.9133 10.1991 27.6031 13.1388 27.8932 15.1613C29.2964 24.9289 17.2476 27.9862 13.4926 19.1593C11.815 15.2083 12.4265 10.5597 14.4411 6.85173C15.4759 4.93897 17.5219 2.36771 19.8345 2.05414ZM18.0236 10.9046C17.9531 10.6459 17.7963 10.2147 17.8355 9.96389L18.933 6.69494C19.6385 6.29515 20.7046 6.25595 21.0574 5.43283C21.2769 4.93113 21.1828 4.45294 21.3004 4.0453C21.3475 3.87284 21.5748 3.79444 21.6375 3.66902C22.053 2.79103 20.3362 2.64992 20.5871 3.59063C20.6184 3.69253 20.7517 3.78661 20.7674 3.92771C20.8144 4.34319 20.5871 5.24469 20.2108 5.50339C20.101 5.58178 19.1446 6.09133 19.2466 5.76208C19.3171 5.53474 19.5993 5.17414 19.7012 4.89193C19.9521 4.20992 20.0383 3.78661 19.858 3.05756C19.0271 3.05756 19.4582 3.74741 19.3014 4.39022C19.1838 4.89193 18.6116 5.51907 18.6273 6.11484C18.4548 6.27947 18.2118 5.69937 18.1726 5.6053C17.9845 5.15062 17.9688 4.64108 17.812 4.17856C17.1378 4.31967 17.3573 4.79002 17.4749 5.27605C17.5925 5.76208 18.0942 6.59303 18.1256 6.98499C18.1726 7.65133 17.5925 8.38821 17.6082 9.07806C17.373 9.11725 17.4435 9.06238 17.3808 8.94479C17.13 8.49796 16.495 6.1462 16.2285 6.01293C15.9855 5.89535 15.7738 6.73414 15.9776 6.93012C15.6954 6.7655 15.4289 6.87525 15.3818 7.20449C15.3348 7.51022 16.1187 7.4867 16.3304 7.75323C16.5891 8.07464 17.1927 10.1677 17.3573 10.7086C17.3887 10.8105 17.5063 10.8811 17.5141 10.9046C17.6238 11.273 17.9061 12.1981 17.2084 11.8766C16.6831 11.0692 15.6641 10.301 15.1702 9.53273C15.0526 9.35243 14.888 8.49012 14.5587 8.76449C14.5117 8.80369 14.2765 9.72871 14.253 9.88549L14.8253 9.97956C15.0526 10.5205 16.7302 11.9864 16.7929 12.4097C16.8086 12.5351 16.5891 13.1544 16.5028 13.2093C16.4401 13.2563 15.8208 13.178 15.6797 13.1466C14.9899 13.0212 14.2452 12.7468 13.5396 12.637C13.571 12.7938 13.4848 13.2642 13.5475 13.3426C13.6102 13.421 15.2878 13.6013 15.5778 13.6561C16.4009 13.8208 16.5656 13.7032 16.5891 14.6596L13.767 16.5331C13.6964 16.6507 13.767 17.3249 14.0021 17.223L16.8791 15.0907C17.3495 15.3416 17.4984 15.3651 17.3965 15.9217C17.2789 16.5645 16.542 19.2612 16.299 19.7942C16.2285 19.9353 15.5229 20.3586 15.4994 20.3978C15.3583 20.633 15.6562 21.1582 15.9933 20.6879C15.8287 21.1739 15.9933 21.3464 16.4009 21.6051L18.0942 15.6865C18.3764 15.7257 18.784 15.6003 19.0035 15.7962C19.0976 15.8746 20.0383 17.8423 20.054 18.0147C20.1089 18.5086 19.5366 19.4179 19.4033 19.9745C19.2544 20.6095 19.2936 21.3072 19.372 21.9578C19.3955 22.1538 19.5993 23.2827 19.6777 23.3375C19.7718 23.4003 20.0383 23.3375 20.1716 23.3532C19.8737 21.7775 19.615 20.3195 20.4773 18.8692L21.1907 20.194C21.4023 20.6879 21.128 21.3464 21.0888 21.8795C21.0496 22.4125 21.1123 22.9377 21.0888 23.463H21.5434L21.7081 21.221L22.6723 22.9534L23.2367 23.0553C23.4248 22.8672 22.6488 21.6678 22.5233 21.4248C22.6252 21.3464 24.099 21.997 24.4204 22.0284C24.8908 22.0754 25.369 21.7462 24.8124 21.5267C24.099 21.2445 22.9623 21.0955 22.2882 20.6879C22.1 20.5703 21.9197 20.2254 21.81 20.2019C21.8492 20.0686 21.7394 19.9824 21.7081 19.8961C21.6062 19.6061 21.5042 19.5042 21.4023 19.2847C20.8379 18.101 20.25 16.9251 19.6856 15.7414C19.6542 15.2397 19.9834 15.0202 20.4616 15.1848C20.6341 15.2475 22.6174 16.3607 22.7036 16.4547C22.8839 16.6507 23.2367 18.1245 23.4248 18.54C23.5816 18.8927 23.9266 19.2141 24.0049 19.3944C24.1461 19.708 23.9501 20.2332 24.4361 20.2881C24.9221 20.343 25.2827 19.7707 24.8751 19.4336C24.7183 19.3004 24.5145 19.3004 24.3656 19.1279C24.1774 18.8927 23.4876 17.3484 23.6443 17.1524C23.8403 17.3092 24.7575 17.7639 24.8437 17.8971C24.977 18.101 24.8751 18.6497 25.2827 18.8378C25.6904 19.026 25.9883 18.7516 26.2313 18.8065C26.4037 18.8457 26.4743 19.1514 26.7095 19.0965C26.7487 18.7673 26.7251 18.54 26.5057 18.2813C26.9446 18.3597 26.8035 18.1323 26.8114 17.7717C26.2783 18.0226 26.2313 17.6149 25.902 17.513C25.4082 17.3562 24.781 17.513 24.4675 16.8545C24.8045 16.6586 26.9211 16.635 27.0152 16.5488C27.0544 16.5096 26.9838 15.7022 27.0152 15.5297C26.6624 15.5846 26.7408 15.8903 26.3097 15.9922C25.5414 16.1725 24.5067 16.1255 23.7149 16.3136L20.3911 14.5028L20.5008 13.2955C21.8727 13.0212 23.2759 12.0569 24.5929 11.7199C25.4866 11.4925 25.4709 12.1432 26.2078 12.3627C26.3097 11.8218 26.0588 11.618 25.6982 11.2887C25.6355 11.0143 25.9491 11.1868 26.0039 11.1319C26.0823 11.0457 25.8864 10.5753 25.902 10.4186C25.8158 10.3402 24.5772 11.2338 24.2715 11.1319C24.6478 10.497 24.6556 9.73655 24.9065 9.06238C25.0946 8.56067 25.5022 8.41173 25.3455 7.86298C25.3219 7.76891 25.2984 7.58077 25.1416 7.65916C25.0711 7.69836 24.5459 8.41173 24.491 8.53715C24.2401 9.07806 24.1774 9.83846 23.9422 10.4421C23.4954 11.5866 23.2759 11.5317 22.2333 11.9942C21.5826 12.2764 20.8771 12.5587 20.1951 12.7625C19.9678 12.5273 21.5356 10.6773 21.7394 10.2853C21.9276 9.91685 22.1471 8.99183 22.3274 8.75665C22.3979 8.66258 23.8482 8.18439 24.1696 7.91786C24.6713 7.51806 25.1887 6.37354 24.4831 5.93454C24.2244 6.96932 23.7071 7.86298 22.5469 7.97273C22.492 7.91786 22.7036 6.56168 22.7507 6.44409C22.8369 6.20108 23.5738 5.40932 23.7149 5.00952C23.8482 4.63324 23.5816 4.13937 23.3621 4.30399C23.3073 4.34319 22.8918 5.32309 22.7742 5.49555C22.4685 5.97374 22.4214 5.01736 22.4528 4.7665C22.5077 4.28047 23.2054 3.61414 22.4763 3.49656C22.2019 3.44952 21.8335 4.71163 21.8335 4.97032C21.8178 5.53474 22.1706 5.90319 22.2411 6.24027C22.3744 6.84389 21.3867 9.72871 21.0025 10.3558C20.885 10.544 19.9521 11.7826 19.858 11.861C19.5209 12.1118 18.7449 11.5788 18.2745 11.7512C18.3137 11.4455 18.1412 11.2025 18.0707 10.9359L18.0236 10.9046ZM17.9217 22.7339C18.1099 22.5458 16.7302 21.6913 16.495 21.7148C16.4558 21.9422 16.8086 22.0833 16.9732 22.2087C17.0986 22.3028 17.8355 22.828 17.9217 22.7339ZM18.0707 22.7339V22.8358C18.1334 22.8045 18.1334 22.7653 18.0707 22.7339Z" fill="#003366"/>
<path d="M18.0723 22.7339C18.1356 22.7656 18.1356 22.8052 18.0723 22.8368V22.7339Z" fill="#003366"/>
<path d="M37.7877 2.05416C40.3668 1.70924 42.1855 3.04974 43.6671 4.99386C46.9596 9.31325 48.0414 16.1098 44.9136 20.8055C40.8058 26.9593 31.6967 24.7251 31.2812 17.27C31.1636 15.1221 32.41 10.0188 33.0215 7.79245C33.633 5.56612 35.2008 2.40693 37.7877 2.05416ZM34.0406 20.0843C34.0406 20.3038 34.0484 20.4841 33.9936 20.7036C33.8917 21.1269 33.4527 21.2915 34.1739 21.6129C34.9813 20.782 34.2366 19.6767 35.8671 19.5748V21.3621C35.8671 21.4405 35.436 21.5737 35.3733 21.7932C35.0754 22.7496 36.3375 22.8907 36.5413 22.2322C36.6354 21.9265 36.3845 21.7697 36.3688 21.464C36.361 21.2523 36.4786 21.0485 36.4786 20.8525C36.4864 19.7472 36.3453 18.8849 37.2468 18.0539C37.5682 18.5792 38.65 19.4493 38.7206 20.0529C38.752 20.3273 38.2659 22.3812 38.1405 22.7261C38.0308 23.024 37.7642 23.1416 37.8034 23.463H38.9244C38.7284 23.1259 38.9871 21.0564 39.1282 20.9153C39.3791 20.6566 39.3477 21.5267 39.5986 21.6208C39.9749 21.754 40.406 21.4248 40.2022 21.0172C40.1552 20.9231 39.7083 20.6174 39.5359 20.3508C39.3164 20.0137 39.2066 19.5434 38.9636 19.1828C38.7441 18.8457 37.6388 17.7639 37.6153 17.4817C37.7093 17.1446 38.5717 15.5689 38.7833 15.5219C38.8382 15.5062 39.6535 15.5689 39.6848 15.6081C39.8024 15.7335 40.4452 17.5758 40.5079 17.858C40.649 18.4929 40.2414 18.1951 40.0925 18.6732C39.771 19.6923 40.4844 19.6218 40.6569 19.9824C40.8607 20.4214 40.7039 21.2602 40.7901 21.7619C40.8529 22.146 41.1664 22.4517 41.1743 22.8594C42.1071 22.7339 41.4957 21.9892 41.4251 21.4326C41.3938 21.2131 41.3702 20.586 41.3702 20.3587C41.3702 20.0686 41.3702 19.8726 41.6368 19.6923L42.4442 20.7193C42.6637 20.9153 42.5226 21.7854 42.7656 21.8324C43.2595 21.9265 43.1889 20.9623 43.2281 20.9153C43.2516 20.8917 43.7612 20.9309 43.8866 20.7114C44.2472 20.0921 43.4398 20.3665 43.0713 20.296C42.6715 20.2176 42.0444 19.0809 41.7936 18.7203C41.6681 18.5321 41.4251 18.4067 41.2997 18.1951C41.1743 17.9834 40.3747 15.6316 40.3668 15.4435C40.3668 15.2946 40.6882 14.9026 40.7431 14.8948C40.9704 14.8556 42.4677 15.5768 42.6167 15.7571C42.797 15.9844 42.9694 16.737 43.1341 17.074C43.2595 17.3249 44.0983 18.9163 44.1845 18.9868C44.647 19.3553 45.235 18.7516 44.8665 18.3048C44.6941 18.0931 44.3413 18.2342 44.1924 18.0618C44.0748 17.9285 43.4476 16.3372 43.5339 16.2274C43.918 16.3058 45.2114 17.2935 45.478 17.1054C45.5877 17.027 45.6269 16.6586 45.5564 16.5488C45.5015 16.4704 44.0356 15.8825 43.8396 15.6708C44.404 15.2475 45.0782 15.028 45.7759 15.2083V14.495C45.4309 14.15 43.526 15.224 43.087 15.1848C42.9146 15.1691 41.1272 14.2441 41.0959 14.1344C41.0724 14.0403 41.1899 13.8051 41.1899 13.6326C41.1899 13.4523 41.0488 13.1858 41.1194 13.0682C41.1743 12.9742 42.9381 12.1824 43.087 12.1667C43.4633 12.1354 45.4545 13.178 45.6583 12.9663C45.9483 12.0883 44.4354 12.2608 44.1296 11.9472C43.9885 11.7983 44.1688 11.7669 44.2629 11.7199C44.4589 11.6101 45.4153 11.375 45.4545 11.3279C45.5015 11.273 45.3839 10.74 45.3526 10.7243C45.2663 10.6616 43.6985 11.3279 43.4163 11.3358C43.3144 11.2495 44.8273 9.28189 44.8352 9.14863C44.8352 9.03104 44.6784 8.58421 44.5843 8.58421C44.2864 8.74099 44.0512 9.65034 43.7769 9.28973C43.6828 9.16431 43.4006 8.18441 43.4084 8.01195C43.4241 7.61215 43.918 7.48672 43.5652 7.04773C43.2752 6.69496 42.7029 6.742 42.6167 7.22019C42.5461 7.61999 42.8127 7.60431 42.8832 7.83164C42.9381 8.01195 42.891 8.2628 42.9459 8.4823C43.0322 8.79586 43.4241 9.88551 43.4163 10.058C43.4084 10.2304 42.6794 11.469 42.5304 11.6258C42.4207 11.7434 41.0018 12.4411 40.8999 12.4568C40.6882 12.4724 40.0611 12.0099 40.0376 11.7826C39.9984 11.4063 41.0096 9.39948 41.1194 8.67828C41.1899 8.20793 41.0959 6.82823 41.2919 6.55386C41.4643 6.31868 43.1262 5.84833 42.7891 5.31526C42.4991 4.86059 41.5819 5.96592 41.1664 5.91888C41.1194 5.182 41.8014 3.95125 40.8607 3.67687C40.8058 4.12371 40.6961 4.60974 40.6569 5.05657C40.5393 6.36572 40.7666 8.42742 40.2571 9.55627C40.2022 9.67385 40.3041 9.73657 40.0454 9.69737C39.9514 9.12511 39.0106 8.05114 38.9401 7.58079C38.8931 7.26722 39.481 6.49898 39.4104 5.99727C39.3399 5.49557 38.6344 4.99386 38.6108 4.64109C38.5873 4.18642 39.8102 3.52009 39.7319 3.12029C39.7005 2.96351 39.2772 2.90863 39.1361 2.98703C39.0342 3.0419 38.5011 3.88069 38.2502 3.9826C38.0464 4.06883 38.1013 3.85718 38.1091 3.73959C38.1327 3.39466 38.4462 2.77537 37.8583 2.97919C37.6545 3.04974 37.5918 3.52793 37.5839 3.73175C37.5369 5.07225 39.5124 5.68371 38.4541 7.04773C38.3443 7.07124 37.6074 6.42059 37.5055 6.26381C37.3801 6.08351 36.6746 4.6019 36.6197 4.39808C36.557 4.15506 36.5648 3.92773 36.5727 3.68471C36.4472 3.54361 35.7809 4.35104 35.6555 4.45295C35.5692 4.66461 35.9926 4.55486 36.2121 4.81356C36.5962 5.26823 36.7138 6.23245 37.1371 6.742C37.4115 7.07124 37.9367 7.31426 38.2424 7.67486C38.4697 7.94139 39.8259 10.3559 39.8259 10.5754C39.8259 10.6381 39.4575 11.6964 39.4104 11.7356C39.3713 11.7669 38.4462 11.8688 38.36 11.8531C38.1954 11.8296 36.5099 10.1834 36.4943 10.058C36.4708 9.94039 36.5883 9.77576 36.557 9.58762C36.5178 9.36813 36.2904 9.17998 36.2591 8.85074C36.2277 8.49798 36.3767 8.2236 36.3453 7.863C36.2983 7.36913 35.9534 7.11044 35.875 6.78903C35.8123 6.50682 35.9612 6.04431 35.6476 5.88753C35.2243 5.67587 34.9029 5.95808 34.9186 6.39707C34.9421 6.86742 35.3027 6.72632 35.483 6.96149C35.7966 7.37697 35.8123 8.41174 35.6398 8.89777C35.4673 9.0232 34.5031 7.40833 34.4247 7.32994C34.1033 7.03205 33.9622 7.65134 34.0249 7.9022C34.0798 8.12169 35.3184 9.33677 35.1303 9.50923C34.5737 9.55627 34.1425 9.54059 33.7506 9.10159C33.2488 9.77576 34.0014 10.0266 34.5815 10.0815C34.7383 10.0972 34.9186 9.98742 35.0597 10.0109C35.1459 10.0266 35.2086 10.348 35.4595 10.4499C35.6947 10.544 35.9377 10.4891 36.1493 10.5754C36.314 10.6459 37.7956 12.2765 37.7721 12.3941C37.7564 12.4646 37.4742 12.739 37.4115 12.8722C36.7608 12.5744 35.7103 12.6057 35.0989 12.3313C34.605 12.1118 34.1347 10.8654 33.288 10.9281C33.0921 11.6258 33.241 11.3279 33.6486 11.6415C33.727 11.6964 34.1112 12.057 34.0014 12.151H32.9823V12.6606L34.1033 12.8095C33.876 13.0212 33.5859 13.2956 33.3272 13.4602C32.951 13.6954 32.4963 13.5072 32.5747 14.2911C33.4762 14.4714 34.5658 12.9663 35.1694 12.9663C35.3262 12.9663 37.0744 13.3661 37.1606 13.4288C37.3331 13.5543 37.4193 14.2363 37.3723 14.4322C37.3487 14.542 35.5379 15.5454 35.436 15.5768C35.1224 15.663 34.4247 15.1221 33.7584 15.2162C33.6173 15.2397 32.2689 15.953 32.2141 16.0236C32.1357 16.1333 32.0494 16.6821 32.316 16.6429C32.6923 16.588 33.437 15.9138 33.8681 15.8433C34.2052 15.7884 34.4796 16.0471 34.8088 16.0314C34.8794 16.102 34.3777 16.6978 34.2993 16.7918C33.9622 17.1838 33.194 18.0539 32.7707 18.2264C32.6452 18.2813 32.3787 18.2578 32.363 18.2734C32.2925 18.344 32.4806 18.8379 32.4649 18.9868C33.9779 18.6968 34.6756 16.9094 35.7339 16.0863C35.9063 15.953 37.4115 15.0515 37.5369 15.0202C37.7329 14.981 38.0307 15.0751 38.0621 15.271C38.0935 15.467 36.2042 18.2499 36.0318 18.7281C35.7495 19.026 34.4482 19.4415 33.9857 19.5904C33.8525 19.6375 33.0137 19.6923 32.9588 19.951C32.849 20.5468 33.68 20.194 33.9857 20.1L34.0406 20.0843Z" fill="#003366"/>
<path d="M53.7015 16.6429C55.3399 16.5175 56.751 17.5679 57.6211 18.8849C60.8979 23.8236 59.4085 34.2968 52.9255 35.9665C47.9632 37.2443 44.4513 33.0033 44.7413 28.2919C44.9452 24.9916 46.6071 23.3924 48.4571 20.9936C49.9074 19.1122 50.9735 16.8546 53.7015 16.6507V16.6429ZM56.3747 28.3468C56.1474 28.4252 55.0028 28.6682 54.8147 28.6369C54.7285 28.6212 53.3174 27.7667 53.3096 27.6726C53.3096 27.6178 53.4977 26.6692 53.5291 26.6222C53.6388 26.4889 56.5315 25.5561 56.8529 25.509C57.4408 25.4306 57.7544 25.5717 58.3031 25.6893V24.874L56.7745 24.976C56.7745 23.9961 58.405 24.2861 58.2012 23.2435L57.284 23.5492C57.1429 23.416 57.8563 22.5615 57.8955 22.3733C57.9347 22.1774 57.9504 21.7149 57.6446 21.7149C57.5506 21.7149 56.845 23.1808 56.7588 23.3768C56.602 23.7217 56.312 24.8662 56.1395 25.0543C56.0063 25.1955 53.4899 26.0499 53.2782 26.0029C53.2077 25.9872 52.9646 25.6031 53.0509 25.4933C53.7094 24.8113 54.1092 23.2513 54.6893 22.632C54.8774 22.4361 55.2067 22.4047 55.4026 22.2244C55.6221 22.0127 55.5986 21.7305 55.7554 21.5581C55.873 21.4405 56.3982 21.1661 56.6177 20.9936C57.041 20.6487 57.4722 20.4449 57.1821 19.8726C56.8999 19.6845 56.0141 20.8917 55.7084 20.8996C55.5124 20.8996 55.4026 20.6409 55.2459 20.5468C55.1204 20.4684 54.8696 20.5076 54.7833 20.3979C54.7206 20.3116 54.7049 18.6184 54.7363 18.3989C54.8147 17.8737 55.2694 17.7404 54.1797 17.6385C53.2312 17.5522 53.9289 17.9756 54.07 18.2578C54.2581 18.6105 54.3051 20.0373 54.2268 20.4449C54.1876 20.6566 53.9916 20.7585 53.9132 20.9466C53.5604 21.8716 54.2346 22.146 54.2111 22.3655L52.5805 25.1719C52.4081 25.219 52.1572 25.2268 52.0318 25.0857C51.9691 25.0152 51.5849 23.4081 51.6006 23.314C51.6241 23.1337 51.8436 23.0005 51.8828 22.7888C51.9377 22.4831 51.7653 22.2636 51.8593 21.9579C51.8828 21.8716 52.4394 20.7898 52.51 20.6644C52.7138 20.3352 53.2861 19.8648 53.3644 19.4807C53.4664 19.0025 53.1136 18.2421 53.1058 17.7404C52.1494 17.709 52.8863 18.54 52.8079 19.222C52.7687 19.5512 52.3924 20.2489 52.2199 19.5983C52.118 19.2142 52.0867 18.7516 52.0867 18.3518C51.0754 18.3675 51.922 20.0294 51.8907 20.6487C51.8907 20.7898 51.5066 21.6757 51.4595 21.707C51.389 21.754 51.1538 21.7462 51.0832 21.707C50.9265 21.6129 50.5972 20.1392 50.4012 19.8883C49.5389 20.3665 50.7383 21.6678 50.511 22.1303C50.3307 22.4909 49.6879 22.2714 49.437 22.0833C49.2175 21.9187 49.2254 21.464 48.9431 21.8952C48.4179 22.6791 49.9622 22.7496 50.3385 22.9299C50.5031 23.0083 50.5188 23.1651 50.6364 23.267C50.7226 23.3454 50.9029 23.3297 51.0127 23.4708C51.1146 23.5963 51.4203 25.1171 51.3655 25.1955C51.3419 25.2268 50.7697 25.4228 50.6207 25.5247C50.4561 25.6344 50.511 25.8539 50.3228 25.8069C50.2131 25.7834 48.4179 24.8505 48.3395 24.7721C48.1749 24.6075 47.8065 23.0162 47.4459 23.7844C47.2499 24.2077 47.8378 24.6389 47.6889 24.8897C47.5321 25.1641 46.0818 25.3993 46.2778 26.1283C46.7482 26.2302 47.9632 25.2817 48.2455 25.3366C48.363 25.3601 50.0093 26.3008 50.0406 26.4027C50.0877 26.5438 49.9544 27.1082 49.8447 27.2023C49.7349 27.2964 48.6688 27.5864 48.4179 27.6648C48.2455 27.7118 48.0338 27.657 47.9084 27.8686C47.6183 27.8137 47.242 27.8529 46.8893 27.7667C46.756 27.7353 46.5365 27.4923 46.2151 27.461C45.7212 27.4218 45.7448 27.6413 45.7683 28.0646C47.6654 28.2527 45.8467 28.4722 45.7134 28.6761C45.6115 28.825 45.682 29.1072 45.6664 29.2953L46.9912 28.7858C46.9598 28.9034 46.7011 29.554 46.6619 29.5854C46.5992 29.6324 46.5208 29.5854 46.4738 29.6011C46.3876 29.6324 46.2073 29.554 46.1132 29.6951C45.8859 30.0401 46.0897 30.6594 46.6776 30.4164C46.7168 30.4007 46.8344 30.4555 46.8658 30.4085C46.9206 30.3301 46.8422 30.0166 46.9363 29.8049C46.9677 29.7265 47.8457 28.4801 47.9084 28.433C48.1279 28.2763 50.0014 27.6962 50.1504 27.8059C50.4404 28.0097 50.0877 28.433 49.9387 28.629C49.7192 28.9112 47.8692 30.8083 47.6497 30.9337C47.3204 31.1219 46.2073 31.0513 46.1602 31.4903C46.0897 32.1723 46.8971 31.4825 47.2891 31.6471C47.3439 32.4232 46.4268 32.9484 47.391 33.4815C47.6967 32.4702 47.8457 31.0748 48.9196 30.628C49.0764 31.3649 49.6173 31.9999 49.633 32.7681C49.5154 32.8073 48.6766 34.4849 48.755 34.6025C49.2097 35.308 49.4762 33.701 49.7819 33.4815C50.1269 33.4893 49.7819 34.0851 50.025 34.2497C50.3464 34.4771 50.8245 34.1321 50.7305 33.7558C50.6834 33.5755 50.2601 33.3247 50.1347 32.7681C50.0955 32.6035 50.1504 32.384 50.0877 32.1488C49.8917 31.4668 49.5232 30.8553 49.3351 30.1733C49.7271 29.8363 50.4953 28.582 50.9813 28.582C51.0911 28.582 51.5614 28.6996 51.6163 28.778C51.7025 28.9034 51.6947 31.0905 51.6163 31.2316C51.483 31.4511 51.0754 31.4119 51.0519 31.9999C51.0284 32.5329 51.4046 32.5956 51.4674 32.9171C51.4987 33.0974 51.5066 33.9126 51.4674 34.0851C51.4282 34.2576 50.997 34.8377 50.9578 35.0493C50.9186 35.261 50.9892 35.1826 51.1146 35.2061C51.7339 35.308 51.5693 34.9709 51.7809 34.4927C52.1494 34.7906 52.0788 35.261 52.6981 35.1042C52.9019 34.9004 52.1886 34.14 51.9847 34.0851C51.9377 33.4109 51.9299 33.0111 52.4473 32.5486C53.3958 32.9954 53.7329 33.4188 53.725 34.4927C54.4149 34.5868 54.2581 34.0616 54.1327 33.5755C54.2424 33.4736 55.1439 34.2576 55.2615 33.5207C55.2929 33.3169 55.1831 33.3796 55.0577 33.3169C54.2503 32.8935 53.3253 32.7289 52.6668 31.9293C52.1494 31.2943 52.3297 30.6986 52.2983 29.9538C52.2826 29.6168 52.0553 28.9896 52.2434 28.6761C52.2905 28.5977 52.9255 28.2527 53.0587 28.2606C53.1449 28.2684 54.0073 28.8799 54.0778 28.9818C54.2895 29.2797 54.2973 30.1969 54.4384 30.6594C54.5482 31.02 54.7677 31.3022 54.8931 31.6314C54.9636 31.8117 54.9088 32.0234 54.9558 32.1802C55.1126 32.6192 55.9906 32.5016 55.9514 31.8039C55.92 31.2003 55.3556 31.4511 55.2302 31.2708C55.0185 30.9729 54.8304 29.8911 54.8304 29.4992C54.9088 29.4051 56.6334 30.777 56.8764 30.871C56.9783 30.9102 57.0645 30.9494 57.1743 30.9259L57.2684 30.3301L55.5437 29.2953C55.5124 29.0445 55.5437 29.1307 55.6848 29.0837C55.8495 29.021 56.2963 28.8955 56.4609 28.8877C57.0097 28.8642 57.2684 29.2797 57.7857 29.2953C58.068 28.7388 57.5349 28.8328 57.3781 28.433C57.4408 28.1508 58.3188 28.3311 58.1777 27.7275C58.0523 27.1631 56.6647 28.2763 56.3512 28.3782L56.3747 28.3468Z" fill="#003366"/>
<path d="M12.451 23.1024C13.6268 24.7486 14.4029 26.0107 14.5519 28.19C14.8889 32.9719 11.3221 37.2678 6.28936 35.943C-0.1231 34.2419 -1.60471 23.7138 1.71911 18.8222C3.60052 16.0549 6.62644 15.9295 8.89197 18.344C10.013 19.5434 11.4554 21.7227 12.4431 23.1024H12.451ZM6.19529 32.0155L7.26142 28.6447C7.38684 28.4957 7.76312 28.4957 7.92775 28.5976C8.33539 28.8485 9.11147 31.4276 9.04875 31.9528C9.0174 32.1958 8.3589 33.1992 8.17076 33.4344C7.94343 33.7166 6.71267 34.673 7.01056 35.0728C7.02624 35.0963 7.33197 35.1904 7.4182 35.1355C7.65338 34.9866 8.31971 33.2933 8.23348 35.1826L8.80574 35.0885C8.95468 34.8768 8.58624 34.0772 8.64111 33.7166C8.64895 33.6618 9.11147 32.7759 9.15066 32.7367C9.32312 32.5878 9.32312 32.7681 9.35448 32.8857C9.54262 33.5363 9.69157 34.2183 9.86403 34.8768L10.3657 34.7671L9.45639 30.5966C9.80915 30.7769 10.5539 30.7377 10.8282 31.0043C10.8988 31.0748 11.7219 32.6348 11.7533 32.7289C11.8238 32.9641 11.8003 33.2071 11.8003 33.4501C11.9336 33.6069 12.3491 32.9876 12.3882 32.8622C12.5058 32.4545 12.2471 32.5721 12.0825 32.3056C11.9806 32.141 11.5103 31.2003 11.5965 31.1062C12.059 31.0827 12.6313 31.6549 12.9762 31.7176C13.18 31.7568 13.2506 31.3962 13.2192 31.2708C13.1643 31.0827 12.5058 30.824 12.3099 30.7456C11.5573 30.4712 9.94242 30.2596 9.36232 29.9146C9.11147 29.7657 8.39026 28.4252 8.48433 28.2449C8.50785 28.1978 9.06443 27.4531 9.11147 27.4453C9.22905 27.4139 11.2516 27.9313 11.4554 28.0332C11.6906 28.1586 12.1688 28.9112 12.2628 29.1699C12.3177 29.3345 12.2001 29.5305 12.3099 29.703C12.5294 30.0479 13.376 29.9538 13.2427 29.2169C13.1565 28.7544 12.4196 29.021 12.5294 28.4487C12.8429 28.4879 13.8385 29.2797 13.6504 28.5036C13.5484 28.0959 12.1452 27.7432 11.7141 27.6334C11.5495 27.4531 12.4902 27.0063 12.6313 26.9671C12.8743 26.9044 13.1016 26.9122 13.3525 26.9201L13.2349 26.3243C12.7724 26.0342 11.3927 27.1866 10.8361 27.2258C10.6636 27.2415 9.56614 27.0063 9.40936 26.9357C9.18202 26.826 9.00172 26.387 9.11147 26.2145C9.1585 26.1361 10.5696 25.266 10.695 25.2425C11.1261 25.1484 12.2628 25.7128 12.8429 25.5012C12.8272 24.7878 11.9414 24.9995 11.4162 24.8897C11.3221 24.5918 12.0276 24.2861 12.0355 24.2155C12.0668 24.0274 11.8081 23.6119 11.667 23.463C11.4711 23.4159 11.2986 24.0352 11.1105 24.2312C10.8831 24.4664 8.939 25.7285 8.72735 25.6893C8.69599 25.6893 8.20996 25.3287 8.19428 25.2973C8.13941 25.2111 8.71167 23.4787 8.81358 23.3611C8.93116 23.22 9.16634 23.2435 9.30745 23.1416C9.44855 23.0397 9.48775 22.8202 9.64453 22.7653C9.79348 22.7104 10.7812 22.6791 10.695 22.2949C10.5696 21.707 9.66805 22.5066 9.41719 22.146C9.13498 21.7462 9.98946 20.7193 9.22121 20.4057C9.00956 20.3195 9.08795 20.5468 9.05659 20.6487C8.9782 20.9152 8.80574 22.0754 8.35106 21.7932C8.24132 21.7227 7.84936 20.9388 7.83368 20.7663C7.79448 20.2567 8.20996 19.5042 8.12373 19.0652C8.12373 19.0417 7.9591 18.6967 7.93559 18.6811C7.57498 18.4302 7.60634 19.8491 7.379 20.0059C6.42262 19.5199 7.59066 18.1794 6.75971 17.9677C6.55589 17.9128 6.53237 18.4067 6.51669 18.54C6.36775 20.0372 6.68132 19.7315 7.2379 20.7506C7.56715 21.3542 7.79448 22.1225 7.97478 22.7653C8.02182 22.9221 8.2178 23.0318 8.22564 23.22C8.22564 23.3219 7.67689 25.023 7.5985 25.0935C7.57498 25.1092 7.10463 25.2033 7.06544 25.1954C6.86162 25.1484 6.77539 24.6545 6.68916 24.4821C6.60292 24.3096 6.51669 24.1293 6.41478 23.9176C6.28936 23.6433 5.7171 22.5536 5.69358 22.3812C5.64654 22.0598 6.21881 21.7854 5.90524 21.0563C5.80333 20.829 5.52896 20.7428 5.47408 20.4684C5.42705 20.2176 5.44273 18.6654 5.52112 18.4851C5.62303 18.2656 6.0385 18.1402 5.87388 17.6698L4.44715 17.7717C4.36876 18.148 4.81559 18.3283 4.85479 18.5321C4.88614 18.7124 4.90966 20.437 4.83911 20.5154C4.80775 20.5468 4.58041 20.539 4.47067 20.6017C4.21197 20.7506 4.1571 21.0015 3.82785 20.8917C3.72594 20.8604 2.98906 20.2724 2.91067 20.1705C2.78524 20.0059 2.66765 19.5355 2.5579 19.5042C2.43248 19.4728 1.94645 20.2176 1.99348 20.3665C2.47951 20.6801 3.43589 21.2053 3.82785 21.6051C4.03951 21.8167 4.08655 22.1617 4.39227 22.3655C4.65881 22.538 5.0586 22.5223 5.20755 22.6712C5.28594 22.7496 6.02283 24.4586 6.12473 24.7172C6.19529 24.8975 6.39911 25.3757 6.33639 25.5325C6.30504 25.6109 5.90524 26.0499 5.81901 26.0577C5.61519 26.0813 4.32172 25.752 4.18062 25.6423C3.92976 25.4541 3.45941 24.0901 3.27127 23.6982C3.14584 23.4395 2.82444 23.1416 2.76172 22.9848C2.62846 22.6634 2.82444 22.1617 2.24434 22.1617C1.7975 22.1617 1.72695 22.5223 1.82886 22.8907C1.92293 23.2278 2.18162 23.0867 2.36976 23.22C2.40896 23.2513 2.84011 23.9804 2.80876 24.0039C2.14243 24.1371 1.52313 23.2121 1.22524 23.0867C1.02142 23.0005 1.0763 23.2278 1.06846 23.3454C1.00574 24.678 3.46725 24.2155 3.42021 25.5325C3.27911 25.6658 0.856799 24.9603 0.872478 25.1798C0.927352 25.9166 1.16253 25.7207 1.78966 25.8382C1.66424 26.4183 0.739211 26.5673 1.0763 27.265C1.29579 27.4766 2.34625 26.1048 2.42464 26.0734C3.09881 25.7912 4.83911 26.583 5.60735 26.6457L5.67006 27.3747C5.11348 27.4845 4.06303 28.4409 3.46725 28.4957C3.3575 28.5036 2.27569 28.4173 2.15027 28.3938C1.92293 28.3546 1.82886 27.8764 1.28795 28.0881C1.35067 29.1934 1.33499 28.7936 1.96212 28.8093C2.21298 28.8171 2.45599 28.9426 2.71469 28.9034C2.64413 29.1934 1.6564 29.4364 1.59368 29.5227C1.55449 29.5775 1.74263 30.1028 1.85238 30.1263L3.32614 29.4129C3.25559 30.142 2.93418 30.8083 2.4168 31.3178C2.62846 32.1802 2.78524 31.8666 3.16152 31.3414C3.32614 31.114 3.51428 30.8318 3.61619 30.5731C3.78082 30.1576 3.87489 29.1621 4.06303 28.9347C4.29036 28.6525 5.59167 28.1351 5.97579 27.8843C6.14041 28.237 6.59509 28.1978 6.59509 28.6447C6.59509 28.7858 6.10122 30.4163 6.02283 30.5339C5.78765 30.8867 4.80775 30.918 4.39227 31.2473C3.8984 31.6393 3.9376 32.478 3.3183 32.7289C3.90624 33.9283 4.23549 32.1488 4.74504 31.702C4.98805 31.4903 5.34082 31.357 5.67006 31.3492C5.76413 31.4433 5.05077 33.1444 4.93318 33.4109C4.85479 33.5834 4.54122 33.9126 4.56474 34.038C4.65097 34.5554 5.23891 34.1008 5.30946 34.1164C5.50544 34.1478 6.05418 35.2531 6.39127 34.9239C6.57157 34.7514 6.00715 33.9126 5.88172 33.748C5.80333 33.6461 5.59951 33.6304 5.57599 33.5285C5.50544 33.2541 5.66222 32.6819 5.88172 32.478C6.14825 34.2027 7.38684 32.8465 6.18745 32.0704L6.19529 32.0155Z" fill="#003366"/>
</svg>
