<svg width="48" height="48" viewBox="0 0 48 48" fill="none" xmlns="http://www.w3.org/2000/svg">
<rect width="48" height="48" rx="24" fill="#00603A"/>
<path d="M15.7776 23.9424C14.8296 22.2893 14.3718 20.9395 14.0958 19.5712C13.6876 17.5476 14.6218 15.5708 16.1694 14.3095C16.8234 13.7764 17.5732 13.9585 17.96 14.6524L18.8332 16.2189C19.5253 17.4606 19.8713 18.0814 19.8027 18.7396C19.7341 19.3978 19.2674 19.9339 18.334 21.006L15.7776 23.9424ZM15.7776 23.9424C17.6965 27.2883 20.7078 30.3013 24.0576 32.2224M24.0576 32.2224C25.7107 33.1704 27.0605 33.6282 28.4288 33.9042C30.4524 34.3124 32.4292 33.3782 33.6905 31.8306C34.2236 31.1766 34.0415 30.4268 33.3476 30.04L31.7811 29.1668C30.5394 28.4747 29.9186 28.1287 29.2604 28.1973C28.6022 28.2659 28.0661 28.7326 26.994 29.666L24.0576 32.2224Z" stroke="white" stroke-width="1.5" stroke-linejoin="round"/>
<path d="M26 18.8319C27.4232 19.4362 28.5638 20.5768 29.1682 22M26.654 14C30.1912 15.0208 32.9791 17.8085 34 21.3456" stroke="white" stroke-width="1.5" stroke-linecap="round"/>
</svg>
