<svg width="194" height="194" viewBox="0 0 194 194" fill="none" xmlns="http://www.w3.org/2000/svg">
<path d="M75.972 172.434L81.2248 162.154L84.1917 162.718L84.7302 170.7L88.1605 163.473L91.147 164.041L92.2797 175.535L89.4897 175.005L89.141 166.347L85.4816 174.242L82.5737 173.689L82.1033 165.029L78.6048 172.935L75.972 172.434ZM62.3161 161.498C62.487 161.137 62.665 160.823 62.85 160.556L70.1729 164.018C70.4545 163.266 70.4692 162.58 70.217 161.959C69.9647 161.339 69.5131 160.874 68.8622 160.567C67.922 160.122 67.0621 160.21 66.2825 160.829L63.5522 159.539C64.2974 158.711 65.228 158.178 66.344 157.938C67.4543 157.711 68.6062 157.879 69.7995 158.444C70.7639 158.9 71.532 159.521 72.1041 160.307C72.6583 161.1 72.9672 161.991 73.0308 162.98C73.0823 163.963 72.8658 164.967 72.3814 165.991C71.8913 167.028 71.2502 167.838 70.4578 168.422C69.6655 169.006 68.79 169.33 67.8311 169.393C66.8722 169.456 65.8986 169.253 64.9101 168.786C63.9578 168.336 63.2049 167.729 62.6513 166.966C62.0856 166.197 61.7774 165.336 61.7266 164.383C61.658 163.436 61.8545 162.475 62.3161 161.498ZM64.5959 163.461C64.3003 164.118 64.2903 164.747 64.566 165.349C64.836 165.964 65.3025 166.428 65.9655 166.741C66.5923 167.037 67.2138 167.095 67.8301 166.915C68.4287 166.74 68.9358 166.339 69.3513 165.709L64.5959 163.461ZM41.4086 152.711C40.8192 152.112 40.4283 151.449 40.2358 150.722C40.0339 150.004 40.0631 149.264 40.3235 148.502C40.5651 147.74 41.0421 147.009 41.7546 146.307L46.3858 141.746L48.3505 143.741L43.99 148.035C43.363 148.653 43.0376 149.282 43.0139 149.923C42.9806 150.573 43.2306 151.169 43.7639 151.711C44.3066 152.261 44.9079 152.53 45.568 152.516C46.2092 152.502 46.8434 152.187 47.4704 151.569L51.8308 147.275L53.7955 149.27L43.2506 159.655L41.2859 157.66L44.9196 154.081C44.325 154.161 43.7222 154.081 43.1112 153.841C42.4907 153.61 41.9232 153.233 41.4086 152.711ZM38.3192 141.344C37.3594 141.921 36.3947 142.244 35.4253 142.314C34.4489 142.372 33.565 142.196 32.7734 141.785C31.9749 141.363 31.3317 140.746 30.8438 139.935C30.4178 139.227 30.1895 138.524 30.1591 137.826C30.1217 137.117 30.224 136.472 30.4658 135.891L29.1118 136.706L27.6584 134.289L37.1535 128.579L38.6069 130.995L37.2186 131.83C37.8498 131.871 38.4788 132.076 39.1057 132.446C39.7144 132.811 40.2317 133.348 40.6577 134.056C41.1388 134.856 41.3729 135.711 41.3601 136.621C41.3405 137.52 41.0761 138.387 40.567 139.222C40.0397 140.052 39.2904 140.76 38.3192 141.344ZM33.8593 133.85C33.2766 134.201 32.8483 134.614 32.5744 135.09C32.289 135.573 32.1546 136.074 32.1712 136.593C32.1763 137.119 32.3129 137.604 32.5808 138.05C32.8488 138.496 33.2048 138.842 33.6486 139.088C34.0925 139.335 34.598 139.451 35.1651 139.437C35.7138 139.418 36.2739 139.236 36.8452 138.893C37.4165 138.549 37.8505 138.133 38.1473 137.643C38.4257 137.149 38.5658 136.644 38.5676 136.13C38.5625 135.604 38.4294 135.124 38.1682 134.69C37.9002 134.244 37.5409 133.892 37.0901 133.635C36.628 133.383 36.1225 133.267 35.5737 133.286C35.0135 133.312 34.4421 133.5 33.8593 133.85ZM30.5718 120.227L21.6227 120.18L20.7052 117.345L32.5093 117.834L33.556 121.069L24.2703 128.362L23.3467 125.508L30.5718 120.227ZM23.3621 100.011C23.7605 99.9757 24.1214 99.9703 24.4449 99.995L25.1641 108.063C25.955 107.926 26.5544 107.591 26.9621 107.059C27.3698 106.528 27.5417 105.903 27.4778 105.186C27.3855 104.15 26.8749 103.453 25.946 103.094L25.6778 100.086C26.7687 100.31 27.6997 100.843 28.4708 101.684C29.2286 102.527 29.6661 103.606 29.7833 104.92C29.878 105.983 29.7309 106.96 29.3418 107.851C28.9383 108.731 28.3262 109.448 27.5056 110.003C26.6838 110.545 25.7085 110.866 24.5796 110.966C23.4375 111.068 22.4141 110.925 21.5094 110.537C20.6047 110.149 19.8827 109.558 19.3432 108.763C18.8038 107.967 18.4856 107.025 18.3885 105.936C18.295 104.887 18.4373 103.931 18.8154 103.067C19.1924 102.19 19.7791 101.489 20.5755 100.962C21.3575 100.424 22.2863 100.107 23.3621 100.011ZM22.8227 102.971C22.1067 103.048 21.5588 103.358 21.1788 103.9C20.7855 104.444 20.6214 105.081 20.6865 105.812C20.7481 106.502 21.0127 107.068 21.4803 107.508C21.9334 107.936 22.5366 108.17 23.2898 108.21L22.8227 102.971ZM17.702 84.1947L15.1835 83.6344L16.2304 78.9294L30.4624 82.0961L29.8369 84.9074L18.1233 82.301L17.702 84.1947ZM25.7001 71.1349C24.5293 72.0771 23.2785 72.256 21.9478 71.6718C21.2885 71.3824 20.7627 70.9549 20.3702 70.3895C19.9709 69.8064 19.7599 69.1095 19.7373 68.2987C19.7078 67.4703 19.9074 66.5677 20.3362 65.5911C20.765 64.6144 21.2916 63.8626 21.916 63.3359C22.5336 62.7916 23.1894 62.4752 23.8835 62.3867C24.5708 62.2807 25.2441 62.3724 25.9033 62.6619C26.5748 62.9566 27.0946 63.3814 27.4626 63.9362C27.8184 64.4855 28.0162 65.0966 28.0558 65.7692C28.6436 65.2264 29.3013 64.889 30.0291 64.7571C30.7568 64.6252 31.5053 64.7281 32.2744 65.0657C33.1046 65.4302 33.7372 65.9627 34.1723 66.6634C34.6005 67.3465 34.8186 68.1266 34.8266 69.0039C34.8347 69.8811 34.6377 70.7775 34.2357 71.6932C33.8337 72.6088 33.3071 73.3606 32.6559 73.9484C32.0101 74.524 31.2881 74.8914 30.4901 75.0507C29.6852 75.1925 28.8677 75.0811 28.0375 74.7166C27.2684 74.379 26.6861 73.8976 26.2906 73.2726C25.883 72.6422 25.6862 71.9297 25.7001 71.1349ZM25.1762 65.3132C24.578 65.0506 24.0336 65.03 23.5432 65.2516C23.0581 65.4609 22.6789 65.8769 22.4056 66.4995C22.1376 67.11 22.088 67.6707 22.2569 68.1817C22.4311 68.6804 22.8234 69.0638 23.4338 69.3318C23.9832 69.573 24.5031 69.5828 24.9935 69.3613C25.4893 69.1275 25.8658 68.7176 26.1231 68.1316C26.3804 67.5456 26.4273 66.991 26.2638 66.4678C26.0881 65.9393 25.7256 65.5544 25.1762 65.3132ZM27.991 68.9517C27.6855 69.6475 27.6133 70.293 27.7744 70.8879C27.9409 71.4706 28.3537 71.9067 29.013 72.1962C29.6234 72.4641 30.2151 72.4763 30.788 72.2328C31.3541 71.9716 31.7952 71.4809 32.1114 70.7606C32.4277 70.0403 32.4816 69.3868 32.2731 68.8002C32.0647 68.2136 31.6613 67.789 31.0631 67.5264C30.4161 67.2423 29.8217 67.2362 29.2801 67.5081C28.7262 67.7746 28.2965 68.2558 27.991 68.9517ZM39.8907 50.0904L37.6104 53.1051L40.7049 55.4457L39.1122 57.5513L36.0178 55.2106L33.7375 58.2253L31.7914 56.7534L34.0718 53.7387L30.9773 51.398L32.5699 49.2925L35.6644 51.6331L37.9447 48.6184L39.8907 50.0904ZM57.2312 28.5339L60.321 45.9654L57.8175 47.5819L56.8394 41.6427L47.2509 34.9783L49.8888 33.275L56.49 38.2258L54.7277 30.1504L57.2312 28.5339ZM74.6051 26.6557C74.7426 27.0314 74.8413 27.3786 74.9012 27.6974L67.2948 30.4817C67.6323 31.21 68.1107 31.7022 68.7298 31.9584C69.3489 32.2145 69.9965 32.2188 70.6726 31.9713C71.6493 31.6139 72.1906 30.9401 72.2968 29.9499L75.1327 28.9118C75.1989 30.0235 74.9254 31.0607 74.3123 32.0234C73.6946 32.9737 72.766 33.6756 71.5264 34.1294C70.5248 34.496 69.5431 34.6069 68.5813 34.462C67.6275 34.2999 66.7763 33.8945 66.0276 33.2456C65.2915 32.5922 64.7286 31.7333 64.3391 30.669C63.9449 29.5922 63.818 28.5667 63.9583 27.5924C64.0987 26.6182 64.483 25.7676 65.1115 25.0406C65.7399 24.3136 66.5674 23.7622 67.5941 23.3864C68.5833 23.0244 69.5439 22.9141 70.4761 23.0557C71.4207 23.1926 72.2502 23.5776 72.9647 24.2106C73.6871 24.8265 74.2339 25.6415 74.6051 26.6557ZM71.6068 26.9013C71.3468 26.2298 70.9056 25.7807 70.2831 25.5542C69.6561 25.3152 68.9982 25.3217 68.3096 25.5738C67.6585 25.8121 67.1809 26.2141 66.8768 26.7798C66.5807 27.3283 66.5108 27.9715 66.6673 28.7093L71.6068 26.9013ZM79.7283 25.1143C79.5957 24.0022 79.6965 22.9898 80.0308 22.0771C80.3784 21.1629 80.9018 20.4291 81.6012 19.8757C82.3139 19.3208 83.1402 18.9873 84.0802 18.8752C84.9011 18.7773 85.6357 18.8575 86.2842 19.1159C86.9459 19.3727 87.4922 19.7306 87.9229 20.1895L87.7358 18.6206L90.5359 18.2867L91.8478 29.2887L89.0476 29.6226L88.8558 28.014C88.5599 28.573 88.1148 29.0625 87.5203 29.4825C86.9375 29.8877 86.2357 30.1392 85.4148 30.2371C84.4881 30.3476 83.6123 30.2103 82.7876 29.8252C81.9761 29.4386 81.294 28.8418 80.7412 28.0349C80.2001 27.2132 79.8625 26.2397 79.7283 25.1143ZM88.3917 24.1216C88.3112 23.4464 88.1101 22.8862 87.7885 22.4412C87.4653 21.9829 87.0636 21.6548 86.5835 21.4569C86.1018 21.2458 85.6028 21.1711 85.0864 21.2326C84.5701 21.2942 84.1084 21.4768 83.7015 21.7804C83.2946 22.0841 82.9814 22.4974 82.7617 23.0204C82.5538 23.5286 82.4893 24.1137 82.5682 24.7757C82.6471 25.4377 82.849 26.0044 83.1738 26.476C83.5102 26.9327 83.9127 27.2674 84.3811 27.4801C84.8629 27.6912 85.3553 27.7668 85.8584 27.7068C86.3747 27.6452 86.843 27.4618 87.2631 27.1566C87.6817 26.8381 87.9949 26.4248 88.2029 25.9166C88.4093 25.3951 88.4722 24.7968 88.3917 24.1216ZM101.053 19.6618C101.461 19.1075 101.965 18.6884 102.564 18.4045C103.177 18.1217 103.855 18.0117 104.599 18.0746L104.352 21.0042L103.614 20.9419C102.737 20.8678 102.056 21.0177 101.569 21.3914C101.096 21.7662 100.816 22.4652 100.73 23.4882L100.265 28.9886L97.4753 28.753L98.4077 17.7123L101.198 17.9479L101.053 19.6618ZM112.628 31.1248C111.753 30.8842 111.012 30.5141 110.402 30.0145C109.797 29.502 109.362 28.9192 109.1 28.2661C108.85 27.6165 108.796 26.9586 108.938 26.2923L111.657 27.0407C111.595 27.4662 111.7 27.8617 111.973 28.2272C112.259 28.5963 112.665 28.8533 113.192 28.9984C113.706 29.1399 114.133 29.1468 114.473 29.0189C114.825 28.8946 115.045 28.6718 115.134 28.3504C115.229 28.0033 115.12 27.6967 114.806 27.4305C114.508 27.155 114.002 26.8082 113.288 26.3902C112.544 25.978 111.943 25.5983 111.485 25.2511C111.041 24.9074 110.69 24.4722 110.434 23.9453C110.191 23.422 110.168 22.8004 110.367 22.0805C110.529 21.4892 110.845 20.9953 111.314 20.5988C111.795 20.2058 112.39 19.9546 113.098 19.8452C113.818 19.7393 114.609 19.8049 115.471 20.0419C116.743 20.3922 117.67 20.9931 118.252 21.8447C118.837 22.6833 119.02 23.6532 118.799 24.7543L116.216 24.0431C116.294 23.6082 116.206 23.2245 115.952 22.8917C115.714 22.5497 115.331 22.3062 114.804 22.1611C114.316 22.0266 113.912 22.0122 113.592 22.1179C113.286 22.2271 113.088 22.4424 113 22.7638C112.901 23.1237 113.005 23.4497 113.311 23.7416C113.622 24.0206 114.13 24.3609 114.835 24.7625C115.553 25.1677 116.135 25.5421 116.58 25.8857C117.024 26.2294 117.366 26.6693 117.606 27.2055C117.862 27.7323 117.899 28.351 117.718 29.0616C117.548 29.6787 117.222 30.1837 116.74 30.5766C116.272 30.9731 115.677 31.2243 114.957 31.3302C114.252 31.4268 113.476 31.3583 112.628 31.1248ZM138.25 29.0341L136.29 31.9339L140.184 34.5657L138.941 36.405L135.047 33.7732L132.975 36.8388L137.366 39.8065L136.09 41.6956L129.379 37.1599L137.207 25.5772L143.918 30.1128L142.641 32.0018L138.25 29.0341ZM144.844 49.2526L145.707 45.2166L141.836 46.1806L139.736 44.0374L146.241 42.733L147.624 36.2558L149.835 38.5133L148.973 42.5209L152.844 41.5852L154.943 43.7284L148.453 44.9905L147.056 51.5101L144.844 49.2526ZM159.525 52.0782C160.146 52.1168 160.763 52.3144 161.376 52.671C162.008 53.0319 162.539 53.5579 162.968 54.2489C163.467 55.0532 163.719 55.9013 163.723 56.7931C163.735 57.6962 163.488 58.5633 162.984 59.3942C162.498 60.2294 161.774 60.9459 160.811 61.5437C159.848 62.1414 158.873 62.4798 157.887 62.5588C156.918 62.6421 156.026 62.4818 155.21 62.0779C154.402 61.6854 153.748 61.087 153.249 60.2827C152.82 59.5917 152.581 58.8921 152.534 58.1839C152.494 57.487 152.587 56.8406 152.813 56.2449L146.985 59.8631L145.508 57.4842L159.408 48.8554L160.885 51.2343L159.525 52.0782ZM159.303 59.1138C159.869 58.7622 160.282 58.3409 160.542 57.8498C160.821 57.3631 160.948 56.8603 160.924 56.3415C160.907 55.8341 160.762 55.3595 160.488 54.9177C160.22 54.4872 159.854 54.1497 159.388 53.9052C158.941 53.665 158.434 53.5561 157.867 53.5784C157.307 53.612 156.744 53.8047 156.178 54.1563C155.611 54.5079 155.189 54.9271 154.911 55.4138C154.639 55.9119 154.506 56.4182 154.512 56.9327C154.535 57.4515 154.681 57.9261 154.948 58.3565C155.223 58.7983 155.589 59.1358 156.048 59.369C156.513 59.6135 157.026 59.7189 157.586 59.6853C158.153 59.663 158.725 59.4725 159.303 59.1138ZM167.214 76.5104C166.835 76.6376 166.485 76.7267 166.165 76.7779L163.59 69.098C162.853 69.4155 162.348 69.8802 162.075 70.492C161.802 71.1039 161.78 71.7511 162.009 72.4338C162.339 73.4198 162.998 73.9795 163.985 74.1127L164.945 76.9761C163.832 77.0117 162.802 76.7099 161.857 76.0707C160.924 75.4272 160.248 74.4797 159.828 73.2281C159.489 72.2168 159.405 71.2324 159.576 70.275C159.764 69.326 160.193 68.4862 160.862 67.7556C161.536 67.0376 162.409 66.4985 163.484 66.1383C164.571 65.7738 165.6 65.675 166.57 65.842C167.54 66.009 168.38 66.4165 169.089 67.0646C169.799 67.7127 170.327 68.5551 170.675 69.5917C171.01 70.5904 171.093 71.5537 170.926 72.4816C170.764 73.4221 170.356 74.2408 169.704 74.9376C169.068 75.6429 168.238 76.1671 167.214 76.5104ZM167.051 73.5066C167.73 73.265 168.191 72.8363 168.434 72.2203C168.69 71.6 168.702 70.9423 168.469 70.247C168.248 69.5896 167.859 69.1012 167.302 68.7817C166.762 68.4706 166.121 68.3832 165.379 68.5194L167.051 73.5066ZM172.842 84.7325C173.469 85.0149 173.985 85.4192 174.389 85.9454C174.794 86.4848 175.044 87.1249 175.139 87.8654L172.223 88.2398L172.129 87.5058C172.017 86.633 171.727 85.998 171.259 85.601C170.793 85.2172 170.051 85.0907 169.033 85.2214L163.558 85.9243L163.201 83.1471L174.191 81.7363L174.548 84.5135L172.842 84.7325ZM176.894 96.1717C176.905 95.6785 177.067 95.2686 177.381 94.942C177.708 94.6291 178.105 94.4777 178.571 94.4879C179.038 94.498 179.421 94.6664 179.721 94.993C180.033 95.3333 180.184 95.75 180.173 96.2432C180.163 96.7364 179.994 97.1395 179.667 97.4525C179.353 97.779 178.963 97.9372 178.496 97.9271C178.03 97.9169 177.64 97.7417 177.327 97.4014C177.028 97.0748 176.883 96.6649 176.894 96.1717ZM175.544 97.5226L164.467 97.2811L164.528 94.4817L175.605 94.7233L175.544 97.5226ZM167.847 114.421C167.455 114.343 167.107 114.246 166.804 114.131L168.396 106.189C167.599 106.097 166.929 106.248 166.388 106.643C165.846 107.037 165.505 107.587 165.363 108.293C165.159 109.313 165.451 110.126 166.241 110.734L165.647 113.695C164.664 113.171 163.922 112.397 163.42 111.371C162.932 110.349 162.817 109.19 163.077 107.896C163.286 106.85 163.704 105.955 164.329 105.21C164.965 104.481 165.755 103.966 166.699 103.666C167.641 103.379 168.667 103.346 169.778 103.569C170.903 103.795 171.844 104.221 172.602 104.849C173.36 105.477 173.885 106.249 174.177 107.164C174.47 108.08 174.508 109.073 174.293 110.145C174.086 111.178 173.679 112.055 173.072 112.777C172.463 113.511 171.701 114.018 170.789 114.297C169.886 114.592 168.906 114.634 167.847 114.421ZM169.201 111.735C169.91 111.864 170.523 111.721 171.041 111.309C171.572 110.898 171.91 110.334 172.054 109.615C172.19 108.935 172.097 108.318 171.773 107.763C171.459 107.224 170.947 106.829 170.236 106.578L169.201 111.735ZM168.791 128.189C168.243 129.39 167.418 130.186 166.316 130.577C165.226 130.974 164.002 130.862 162.644 130.242L156.73 127.543L157.893 124.996L163.46 127.537C164.261 127.902 164.965 127.982 165.572 127.775C166.191 127.574 166.659 127.128 166.974 126.437C167.295 125.733 167.332 125.075 167.083 124.464C166.841 123.87 166.32 123.39 165.52 123.025L159.952 120.484L161.114 117.937L171.194 122.537L170.032 125.084L168.776 124.511C169.058 125.05 169.201 125.636 169.206 126.268C169.217 126.918 169.079 127.558 168.791 128.189ZM159.198 135.211C160.106 135.911 160.755 136.707 161.146 137.598C161.547 138.497 161.68 139.416 161.544 140.355C161.419 141.303 161.031 142.199 160.379 143.044C159.54 144.131 158.574 144.817 157.479 145.1C156.387 145.403 155.256 145.297 154.087 144.782L155.932 142.391C156.41 142.558 156.872 142.569 157.319 142.426C157.769 142.301 158.165 142.017 158.507 141.574C158.996 140.941 159.151 140.26 158.971 139.532C158.802 138.813 158.296 138.127 157.451 137.475C156.617 136.832 155.825 136.516 155.076 136.527C154.337 136.546 153.723 136.872 153.234 137.506C152.542 138.403 152.491 139.298 153.082 140.192L151.237 142.583C150.474 141.607 150.09 140.544 150.084 139.395C150.079 138.245 150.491 137.132 151.322 136.055C151.974 135.211 152.737 134.604 153.611 134.235C154.496 133.873 155.419 133.769 156.38 133.92C157.351 134.08 158.29 134.51 159.198 135.211ZM140.991 155.106C140.734 154.798 140.524 154.505 140.36 154.225L146.581 149.037C146.017 148.465 145.401 148.163 144.732 148.131C144.062 148.099 143.451 148.313 142.898 148.775C142.1 149.441 141.817 150.258 142.052 151.226L139.732 153.16C139.295 152.136 139.202 151.067 139.455 149.954C139.715 148.851 140.353 147.877 141.366 147.031C142.185 146.348 143.072 145.912 144.026 145.724C144.979 145.555 145.917 145.649 146.841 146.007C147.754 146.374 148.574 146.993 149.3 147.863C150.034 148.743 150.5 149.666 150.697 150.63C150.893 151.595 150.819 152.525 150.472 153.422C150.126 154.318 149.533 155.116 148.694 155.817C147.885 156.491 147.018 156.919 146.092 157.101C145.157 157.291 144.246 157.208 143.36 156.854C142.472 156.518 141.682 155.935 140.991 155.106ZM143.73 153.862C144.201 154.407 144.768 154.681 145.431 154.684C146.102 154.697 146.719 154.469 147.282 153.999C147.814 153.555 148.128 153.016 148.224 152.38C148.317 151.764 148.166 151.135 147.77 150.493L143.73 153.862ZM129.609 155.496C130.413 155.076 131.208 154.842 131.994 154.792C132.787 154.755 133.502 154.886 134.139 155.185C134.765 155.49 135.253 155.935 135.603 156.519L133.103 157.824C132.858 157.47 132.511 157.252 132.063 157.171C131.602 157.095 131.129 157.184 130.645 157.437C130.172 157.684 129.855 157.969 129.694 158.294C129.52 158.625 129.511 158.939 129.665 159.234C129.832 159.553 130.121 159.703 130.532 159.684C130.937 159.683 131.544 159.592 132.352 159.411C133.177 159.206 133.876 159.075 134.447 159.017C135.007 158.965 135.56 159.045 136.106 159.257C136.641 159.474 137.081 159.914 137.426 160.575C137.71 161.119 137.816 161.696 137.743 162.305C137.658 162.921 137.394 163.51 136.95 164.073C136.495 164.641 135.871 165.132 135.079 165.545C133.909 166.156 132.821 166.348 131.815 166.121C130.816 165.905 130.021 165.32 129.432 164.364L131.808 163.124C132.047 163.496 132.373 163.717 132.786 163.787C133.193 163.875 133.639 163.793 134.123 163.54C134.572 163.306 134.878 163.041 135.04 162.746C135.19 162.457 135.188 162.165 135.033 161.869C134.861 161.538 134.563 161.371 134.139 161.366C133.722 161.373 133.118 161.47 132.328 161.657C131.526 161.85 130.846 161.972 130.286 162.023C129.726 162.075 129.176 161.986 128.635 161.757C128.089 161.546 127.64 161.118 127.289 160.474C126.993 159.907 126.887 159.315 126.972 158.699C127.045 158.09 127.309 157.501 127.765 156.932C128.214 156.382 128.829 155.903 129.609 155.496ZM109.076 177.272L107.761 175.687L110.144 174.284L107.415 173.839L108.095 171.819L110.546 173.171L109.586 170.543L111.63 170.16L111.706 172.954L113.474 170.771L114.909 172.456L112.526 173.858L115.228 174.268L114.564 176.264L112.058 174.943L113.022 177.591L110.958 177.977L110.918 175.157L109.076 177.272Z" fill="white"/>
<rect x="68.6523" y="68.6508" width="56" height="56" rx="28" fill="white"/>
<mask id="mask0_216_2111" style="mask-type:alpha" maskUnits="userSpaceOnUse" x="84" y="83" width="25" height="27">
<g clip-path="url(#clip0_216_2111)">
<g clip-path="url(#clip1_216_2111)">
<path d="M107.902 96.5971C106.707 96.5971 104.919 97.7812 103.417 98.9782C101.484 100.52 99.7951 102.359 98.5057 104.47C97.5401 106.051 96.6132 107.972 96.6132 109.514M85.2969 96.5971C86.4917 96.5971 88.2797 97.7812 89.7813 98.9782C91.7144 100.52 93.4034 102.359 94.6929 104.47C95.6584 106.051 96.5853 107.972 96.5853 109.514M96.5993 109.514V83.6801" stroke="white"/>
</g>
</g>
</mask>
<g mask="url(#mask0_216_2111)">
<g filter="url(#filter0_f_216_2111)">
<rect width="24" height="26" transform="translate(84.6523 83.6508)" fill="#02000F"/>
<g clip-path="url(#clip2_216_2111)">
<g clip-path="url(#clip3_216_2111)">
<path d="M107.902 96.5971C106.707 96.5971 104.919 97.7812 103.417 98.9782C101.484 100.52 99.7951 102.359 98.5057 104.47C97.5401 106.051 96.6132 107.972 96.6132 109.514M85.2969 96.5971C86.4917 96.5971 88.2797 97.7812 89.7813 98.9782C91.7144 100.52 93.4034 102.359 94.6929 104.47C95.6584 106.051 96.5853 107.972 96.5853 109.514M96.5993 109.514V83.6801" stroke="white"/>
</g>
</g>
</g>
</g>
<defs>
<filter id="filter0_f_216_2111" x="83.6523" y="82.6508" width="26" height="28" filterUnits="userSpaceOnUse" color-interpolation-filters="sRGB">
<feFlood flood-opacity="0" result="BackgroundImageFix"/>
<feBlend mode="normal" in="SourceGraphic" in2="BackgroundImageFix" result="shape"/>
<feGaussianBlur stdDeviation="0.5" result="effect1_foregroundBlur_216_2111"/>
</filter>
<clipPath id="clip0_216_2111">
<rect width="24" height="26" fill="white" transform="translate(84.6523 83.6508)"/>
</clipPath>
<clipPath id="clip1_216_2111">
<rect width="24" height="26" fill="white" transform="translate(84.6523 83.6508)"/>
</clipPath>
<clipPath id="clip2_216_2111">
<rect width="24" height="26" fill="white" transform="translate(84.6523 83.6508)"/>
</clipPath>
<clipPath id="clip3_216_2111">
<rect width="24" height="26" fill="white" transform="translate(84.6523 83.6508)"/>
</clipPath>
</defs>
</svg>
