<svg width="30" height="30" viewBox="0 0 30 30" fill="none" xmlns="http://www.w3.org/2000/svg">
<path fill-rule="evenodd" clip-rule="evenodd" d="M15.0006 23.0865C10.5397 23.0865 6.91406 19.4609 6.91406 15C6.91406 10.5391 10.5397 6.91351 15.0006 6.91351C19.4615 6.91351 23.0871 10.5391 23.0871 15C23.0871 19.4549 19.4555 23.0865 15.0006 23.0865ZM12.7138 20.5213C11.6653 20.5213 10.8003 19.7097 10.7233 18.6789C9.76362 18.5367 9.02309 17.7073 9.02309 16.7062C9.02309 16.6114 9.02902 16.5166 9.04086 16.4218C8.62618 16.0486 8.38329 15.5095 8.38329 14.9408C8.38329 14.301 8.69134 13.7026 9.20081 13.3294C9.19488 13.2583 9.18895 13.1813 9.18895 13.1102C9.18895 12.1742 9.84653 11.3685 10.7352 11.1671C10.8833 10.2074 11.7126 9.47277 12.7079 9.47277C13.8098 9.47277 14.7043 10.3673 14.7043 11.4692V18.5308C14.7103 19.6268 13.8157 20.5213 12.7138 20.5213ZM11.4353 18.4438C11.4342 18.4708 11.4342 18.4979 11.4342 18.5249C11.4342 19.2358 12.0088 19.8104 12.7197 19.8104C13.4307 19.8104 14.0053 19.2358 14.0053 18.5249V11.4692C14.0053 10.7583 13.4306 10.1837 12.7197 10.1837C12.0321 10.1837 11.4719 10.7214 11.436 11.4C11.5206 11.5397 11.7517 11.8605 12.1629 12.0083C12.3465 12.0735 12.4413 12.2808 12.3761 12.4645C12.3228 12.6007 12.1807 12.6955 12.0385 12.6955C11.997 12.6955 11.9555 12.6896 11.92 12.6718C11.39 12.4812 11.0638 12.1139 10.8953 11.8684C10.3274 12.0042 9.90576 12.5175 9.90576 13.1161C9.90576 13.1901 9.91215 13.2673 9.92494 13.3429C10.0536 13.4811 10.4235 13.8278 10.8951 13.7797C11.0906 13.7619 11.2624 13.9041 11.2861 14.0996C11.3039 14.2951 11.1617 14.4669 10.9662 14.4906C10.9129 14.4906 10.8596 14.4906 10.8062 14.4906C10.2433 14.4906 9.80645 14.1934 9.55427 13.968C9.26846 14.2092 9.10008 14.5662 9.10008 14.9467C9.10008 15.2965 9.24338 15.6294 9.4909 15.8708C9.81841 15.7416 10.4428 15.5483 10.9958 15.6931C11.1854 15.7405 11.298 15.936 11.2506 16.1256C11.2032 16.3152 11.0077 16.4278 10.8181 16.3803C10.4837 16.2943 10.0106 16.4318 9.7437 16.538C9.73696 16.5945 9.73397 16.6525 9.73397 16.7121C9.73397 17.3639 10.2171 17.9012 10.8455 17.9859C10.9306 17.8047 11.072 17.5996 11.3039 17.4526C11.6356 17.2453 12.0503 17.2157 12.5302 17.3697C12.7197 17.4289 12.8204 17.6303 12.7612 17.814C12.702 18.0036 12.5006 18.1043 12.3169 18.045C12.0444 17.9562 11.8311 17.9562 11.683 18.051C11.5184 18.1545 11.4546 18.3625 11.4353 18.4438ZM17.2814 20.5213C16.1795 20.5213 15.2849 19.6268 15.2849 18.5249V11.4692C15.2849 10.3673 16.1795 9.47276 17.2814 9.47276C18.2825 9.47276 19.1119 10.2074 19.2541 11.1671C20.1427 11.3744 20.8003 12.1742 20.8003 13.1102C20.8003 13.1813 20.7944 13.2583 20.7885 13.3294C21.298 13.7026 21.606 14.301 21.606 14.9408C21.606 15.5036 21.3631 16.0427 20.9484 16.4218C20.9603 16.5166 20.9662 16.6114 20.9662 16.7061C20.9662 17.7073 20.2257 18.5367 19.266 18.6789C19.1949 19.7097 18.3299 20.5213 17.2814 20.5213ZM18.5657 18.4465C18.5454 18.3621 18.4782 18.1553 18.3122 18.051C18.17 17.9621 17.9567 17.9621 17.6842 18.045C17.4947 18.1043 17.2992 18.0036 17.2399 17.814C17.1807 17.6244 17.2814 17.4289 17.471 17.3697C17.9568 17.2157 18.3655 17.2394 18.6973 17.4526C18.9291 17.5996 19.0705 17.8046 19.1556 17.9859C19.784 17.9011 20.2671 17.3639 20.2671 16.7121C20.2671 16.6518 20.262 16.5914 20.2537 16.5311C19.981 16.4231 19.5141 16.288 19.183 16.3744C18.9935 16.4218 18.7979 16.3092 18.7506 16.1197C18.7032 15.9301 18.8157 15.7346 19.0053 15.6872C19.5566 15.5416 20.1867 15.7376 20.5143 15.8668C20.7593 15.6257 20.901 15.2946 20.901 14.9467C20.901 14.5658 20.7324 14.2086 20.4461 13.9674C20.1955 14.1928 19.7584 14.4905 19.1949 14.4905C19.1416 14.4905 19.0823 14.4905 19.029 14.4846C18.8335 14.4668 18.6913 14.2891 18.7091 14.0936C18.7269 13.8981 18.9046 13.7559 19.1001 13.7737C19.5791 13.8221 19.9554 13.4713 20.0772 13.338C20.0893 13.2656 20.0954 13.1924 20.0954 13.1161C20.0954 12.5161 19.6718 11.9971 19.1019 11.866C18.9315 12.1115 18.6047 12.4762 18.0811 12.6659C18.0397 12.6837 17.9982 12.6955 17.9567 12.6955C17.8086 12.6955 17.6724 12.6066 17.625 12.4585C17.5598 12.2749 17.6546 12.0675 17.8382 12.0024C18.2523 11.8551 18.4805 11.5329 18.5646 11.3935C18.5255 10.7179 17.9668 10.1837 17.2814 10.1837C16.5705 10.1837 15.9958 10.7583 15.9958 11.4692V18.5308C15.9958 19.2417 16.5705 19.8163 17.2814 19.8163C17.9923 19.8163 18.5669 19.2417 18.5669 18.5308C18.5669 18.5027 18.5669 18.4747 18.5657 18.4465Z" fill="#00603A"/>
<path fill-rule="evenodd" clip-rule="evenodd" d="M15.0001 3.59005C14.0108 3.59005 13.2051 2.78435 13.2051 1.79502C13.2051 0.805678 14.0108 0 15.0001 0C15.9894 0 16.7951 0.805678 16.7951 1.79502C16.7951 2.78435 15.9894 3.59005 15.0001 3.59005Z" fill="#00603A"/>
<path fill-rule="evenodd" clip-rule="evenodd" d="M21.6003 5.35549C21.2982 5.35549 20.9901 5.27849 20.7058 5.11259C20.2911 4.87563 19.9949 4.48465 19.8705 4.02256C19.7461 3.56046 19.8112 3.07471 20.0482 2.65999C20.2852 2.24531 20.6761 1.9491 21.1382 1.82468C21.6003 1.7003 22.0861 1.76544 22.5008 2.0024C23.3598 2.50003 23.656 3.59601 23.1584 4.455C22.8266 5.03559 22.2224 5.35549 21.6003 5.35549Z" fill="#00603A"/>
<path fill-rule="evenodd" clip-rule="evenodd" d="M26.4402 10.1955C26.2862 10.1955 26.1262 10.1777 25.9722 10.1362C25.5101 10.0118 25.1191 9.7156 24.8822 9.3009C24.6452 8.88622 24.58 8.40043 24.7045 7.93835C24.8289 7.47627 25.1251 7.08527 25.5398 6.8483C25.9545 6.61134 26.4402 6.54617 26.9023 6.67058C27.3644 6.79499 27.7554 7.0912 27.9924 7.5059C28.2293 7.92058 28.2945 8.40636 28.1701 8.86846C28.0457 9.33055 27.7495 9.72153 27.3348 9.95849C27.0563 10.1125 26.7483 10.1955 26.4402 10.1955Z" fill="#00603A"/>
<path fill-rule="evenodd" clip-rule="evenodd" d="M28.2052 16.795C27.2159 16.795 26.4102 15.9893 26.4102 15C26.4102 14.0107 27.2159 13.205 28.2052 13.205C29.1945 13.205 30.0002 14.0107 30.0002 15C30.0002 15.9893 29.1945 16.795 28.2052 16.795Z" fill="#00603A"/>
<path fill-rule="evenodd" clip-rule="evenodd" d="M26.4344 23.3945C26.1322 23.3945 25.8242 23.3175 25.5398 23.1516C24.6808 22.654 24.3846 21.558 24.8822 20.699C25.1192 20.2843 25.5102 19.9881 25.9723 19.8637C26.4344 19.7393 26.9202 19.8044 27.3348 20.0414C28.1938 20.539 28.4901 21.635 27.9924 22.494C27.6607 23.0746 27.0505 23.3945 26.4344 23.3945Z" fill="#00603A"/>
<path fill-rule="evenodd" clip-rule="evenodd" d="M21.6062 28.2287C21.4522 28.2287 21.2923 28.2109 21.1382 28.1694C20.6761 28.045 20.2852 27.7488 20.0482 27.3341C19.8112 26.9194 19.7461 26.4336 19.8705 25.9715C19.9949 25.5095 20.2911 25.1185 20.7058 24.8815C21.5648 24.3839 22.6667 24.6801 23.1584 25.5391C23.3954 25.9538 23.4605 26.4395 23.3361 26.9016C23.2117 27.3637 22.9155 27.7547 22.5008 27.9917C22.2223 28.1516 21.9143 28.2287 21.6062 28.2287Z" fill="#00603A"/>
<path fill-rule="evenodd" clip-rule="evenodd" d="M15.0001 29.9999C14.0108 29.9999 13.2051 29.1942 13.2051 28.2049C13.2051 27.2155 14.0108 26.4099 15.0001 26.4099C15.9894 26.4099 16.7951 27.2155 16.7951 28.2049C16.7951 29.1942 15.9894 29.9999 15.0001 29.9999Z" fill="#00603A"/>
<path fill-rule="evenodd" clip-rule="evenodd" d="M8.39527 28.2287C8.08129 28.2287 7.77915 28.1457 7.50071 27.9858C7.08603 27.7488 6.7898 27.3578 6.66538 26.8957C6.541 26.4336 6.60614 25.9479 6.8431 25.5332C7.08008 25.1185 7.47106 24.8223 7.93315 24.6979C8.39525 24.5735 8.881 24.6386 9.2957 24.8756C9.71042 25.1125 10.0066 25.5035 10.131 25.9656C10.2554 26.4277 10.1903 26.9135 9.9533 27.3282C9.71633 27.7429 9.32535 28.0391 8.86326 28.1635C8.70923 28.2109 8.54928 28.2287 8.39527 28.2287Z" fill="#00603A"/>
<path fill-rule="evenodd" clip-rule="evenodd" d="M3.56722 23.4004C3.41321 23.4004 3.25326 23.3826 3.09923 23.3412C2.63714 23.2168 2.24614 22.9205 2.00918 22.5058C1.51156 21.6469 1.80777 20.545 2.66675 20.0532C3.52577 19.5556 4.62766 19.8518 5.11936 20.7108C5.61699 21.5698 5.32078 22.6717 4.46178 23.1634C4.18334 23.3175 3.87527 23.4004 3.56722 23.4004Z" fill="#00603A"/>
<path fill-rule="evenodd" clip-rule="evenodd" d="M1.79503 16.795C0.805679 16.795 0 15.9893 0 15C0 14.0107 0.805679 13.205 1.79503 13.205C2.78436 13.205 3.59005 14.0107 3.59005 15C3.59005 15.9893 2.78436 16.795 1.79503 16.795Z" fill="#00603A"/>
<path fill-rule="evenodd" clip-rule="evenodd" d="M3.5613 10.1896C3.25917 10.1896 2.95113 10.1126 2.66677 9.94671C1.80777 9.44908 1.51156 8.3531 2.00919 7.49411C2.24615 7.07943 2.63715 6.7832 3.09924 6.6588C3.56132 6.53439 4.04709 6.59955 4.46179 6.83652C4.87647 7.07348 5.17268 7.46446 5.2971 7.92655C5.42152 8.38865 5.35635 8.8744 5.11938 9.28911C4.78762 9.86969 4.18335 10.1896 3.5613 10.1896Z" fill="#00603A"/>
<path fill-rule="evenodd" clip-rule="evenodd" d="M14.9995 7.92296C14.6392 7.92296 14.3454 7.62924 14.3454 7.26893V3.23459C14.3454 2.8743 14.6392 2.58057 14.9995 2.58057C15.3598 2.58057 15.6535 2.8743 15.6535 3.23459V7.26893C15.6535 7.62924 15.3598 7.92296 14.9995 7.92296ZM18.862 8.95969C18.7496 8.95969 18.6406 8.92966 18.542 8.87618C18.2186 8.70077 18.1129 8.2953 18.2953 7.97888L20.3095 4.48362C20.4913 4.16816 20.8903 4.06035 21.205 4.24479C21.5176 4.42804 21.6242 4.82269 21.443 5.13722L19.4288 8.63247C19.3118 8.83543 19.0957 8.95969 18.862 8.95969ZM21.6938 11.7855C21.4605 11.7855 21.2453 11.6614 21.1278 11.4595C20.9444 11.1447 21.0517 10.7465 21.367 10.5648L24.8622 8.55055C25.1768 8.36931 25.5714 8.47596 25.7547 8.78858C25.9391 9.10324 25.8313 9.50224 25.5158 9.68403L22.0206 11.6982C21.9196 11.7564 21.8102 11.7855 21.6938 11.7855ZM26.7649 15.654H22.7305C22.3702 15.654 22.0765 15.3602 22.0765 15C22.0765 14.6397 22.3702 14.3459 22.7305 14.3459H26.7649C27.1252 14.3459 27.4189 14.6397 27.4189 15C27.4189 15.3602 27.1252 15.654 26.7649 15.654ZM25.1831 21.5366C25.0681 21.5366 24.956 21.5068 24.8563 21.4494L21.3611 19.4352C21.0456 19.2534 20.9378 18.8544 21.1223 18.5397C21.3055 18.2271 21.7001 18.1204 22.0147 18.3017L25.5099 20.3159C25.8252 20.4976 25.9326 20.8959 25.7492 21.2107C25.6315 21.4125 25.4164 21.5366 25.1831 21.5366ZM20.8822 25.8376C20.6485 25.8376 20.4324 25.7133 20.3155 25.5104L18.3013 22.0151C18.12 21.7006 18.2267 21.3059 18.5393 21.1227C18.8539 20.9382 19.253 21.046 19.4347 21.3615L21.4489 24.8568C21.63 25.171 21.5232 25.564 21.2122 25.7484C21.1106 25.8086 21 25.8376 20.8822 25.8376ZM14.9995 27.4193C14.6392 27.4193 14.3455 27.1256 14.3455 26.7653V22.7309C14.3455 22.3706 14.6392 22.0769 14.9995 22.0769C15.3598 22.0769 15.6535 22.3706 15.6535 22.7309V26.7653C15.6535 27.1256 15.3598 27.4193 14.9995 27.4193ZM9.11679 25.8376C9.00435 25.8376 8.89536 25.8075 8.79675 25.754C8.47334 25.5787 8.36772 25.1732 8.55007 24.8567L10.5643 21.3615C10.7461 21.046 11.145 20.9382 11.4597 21.1227C11.7723 21.3059 11.879 21.7006 11.6978 22.0151L9.68355 25.5104C9.56682 25.7129 9.35041 25.8376 9.11679 25.8376ZM4.80992 21.5366C4.57664 21.5366 4.36149 21.4125 4.24391 21.2106C4.06053 20.8959 4.16784 20.4976 4.48313 20.3159L7.9784 18.3017C8.29291 18.1204 8.68758 18.2271 8.87081 18.5397C9.05527 18.8544 8.94746 19.2534 8.63199 19.4352L5.13674 21.4494C5.03707 21.5068 4.92492 21.5366 4.80992 21.5366ZM7.26845 15.654H3.2341C2.87381 15.654 2.58008 15.3602 2.58008 15C2.58008 14.6397 2.87381 14.3459 3.2341 14.3459H7.26845C7.62876 14.3459 7.92248 14.6397 7.92248 15C7.92248 15.3602 7.62876 15.654 7.26845 15.654ZM8.29926 11.7855C8.18425 11.7855 8.07214 11.7557 7.97247 11.6982L4.4772 9.68403C4.16175 9.50223 4.05393 9.10326 4.23838 8.78858C4.42163 8.47596 4.81628 8.3693 5.13081 8.55055L8.62606 10.5648C8.94139 10.7465 9.0487 11.1447 8.8653 11.4595C8.74767 11.6614 8.53255 11.7855 8.29926 11.7855ZM11.131 8.95969C10.8973 8.95969 10.6813 8.83543 10.5643 8.63247L8.55007 5.13722C8.36883 4.82271 8.47548 4.42805 8.7881 4.2448C9.10276 4.06035 9.50176 4.16816 9.68355 4.48362L11.6978 7.97888C11.8794 8.29406 11.7731 8.69251 11.4567 8.87306C11.3593 8.9286 11.243 8.95969 11.131 8.95969Z" fill="#00603A"/>
<path fill-rule="evenodd" clip-rule="evenodd" d="M8.40116 5.36135C8.24714 5.36135 8.08719 5.3436 7.93316 5.30211C7.47107 5.1777 7.08009 4.88149 6.84311 4.4668C6.60614 4.05211 6.54099 3.56633 6.66539 3.10424C6.78979 2.64216 7.086 2.25116 7.50072 2.0142C7.9154 1.77723 8.40117 1.71206 8.86327 1.83648C9.32536 1.96088 9.71634 2.25709 9.9533 2.67179C10.1903 3.08647 10.2554 3.57226 10.131 4.03434C10.0066 4.49644 9.71043 4.88743 9.29571 5.12439C9.01726 5.27842 8.7092 5.36135 8.40116 5.36135Z" fill="#00603A"/>
</svg>
