<svg width="24" height="19" viewBox="0 0 24 19" fill="none" xmlns="http://www.w3.org/2000/svg">
<path d="M12.0005 15.2247C14.8579 15.2247 17.1825 12.9001 17.1825 10.0427C17.1825 7.18526 14.8579 4.8606 12.0005 4.8606C9.14307 4.8606 6.81836 7.18526 6.81836 10.0427C6.81836 12.9001 9.14302 15.2247 12.0005 15.2247ZM12.0004 13.7986C11.6108 13.7986 11.295 13.4828 11.295 13.0932C11.295 12.7036 11.6108 12.3878 12.0004 12.3878C12.39 12.3878 12.7058 12.7036 12.7058 13.0932C12.7058 13.4828 12.39 13.7986 12.0004 13.7986ZM9.75491 8.34404C9.91344 7.20821 10.8985 6.3703 12.0469 6.39236C13.2293 6.4162 14.2034 7.35936 14.2647 8.53963C14.2973 9.16783 14.0771 9.76462 13.6447 10.2201C13.3845 10.4941 13.0599 10.6968 12.7058 10.8132V11.4002H11.295V9.5158H12.0004C12.2374 9.5158 12.458 9.42094 12.6215 9.24867C12.7849 9.0766 12.8681 8.85077 12.8557 8.61276C12.8326 8.16763 12.4649 7.81196 12.0184 7.80293C11.5846 7.79484 11.212 8.11059 11.1522 8.53887L11.1439 8.65922H9.73304C9.73308 8.55397 9.74042 8.44792 9.75491 8.34404Z" fill="#00603A"/>
<path d="M21.7075 6.40132L23.1254 4.94043L22.113 3.95777L20.7237 5.38917C19.8267 4.55649 18.8397 3.86827 17.779 3.33751L18.6 1.49964L17.3118 0.924249L16.4823 2.78135C15.2946 2.35114 14.0306 2.10123 12.7055 2.03619V0H11.2947V2.03624C9.96955 2.10128 8.70552 2.35118 7.51787 2.7814L6.68833 0.924343L5.40013 1.49974L6.22106 3.3376C5.16038 3.86832 4.1733 4.55653 3.27637 5.38927L1.88706 3.95786L0.874681 4.94052L2.29263 6.40141C0.781565 8.12406 0.0292517 9.96983 0 10.0426C0.0321204 10.1226 0.913668 12.2857 2.76123 14.1928C3.84918 15.3158 5.08678 16.2114 6.43955 16.8548C8.1305 17.659 10.0013 18.0667 12 18.0667C13.9986 18.0667 15.8694 17.659 17.5604 16.8548C18.9132 16.2114 20.1508 15.3158 21.2387 14.1928C23.0863 12.2857 23.9679 10.1226 24 10.0426C23.9708 9.96983 23.2185 8.12406 21.7075 6.40132ZM12 16.6355C8.36471 16.6355 5.40714 13.678 5.40714 10.0426C5.40714 6.40729 8.36471 3.44972 12 3.44972C15.6354 3.44972 18.593 6.40729 18.593 10.0426C18.5929 13.678 15.6353 16.6355 12 16.6355Z" fill="#00603A"/>
</svg>
