<svg width="25" height="15" viewBox="0 0 25 15" fill="none" xmlns="http://www.w3.org/2000/svg">
<path fill-rule="evenodd" clip-rule="evenodd" d="M17.3446 0.262116C17.7867 0.648031 17.8322 1.31923 17.4462 1.76128L6.3153 14.5113C6.11352 14.7424 5.8217 14.875 5.5149 14.875C5.20809 14.875 4.91627 14.7424 4.7145 14.5113L0.262116 9.41128C-0.123799 8.96923 -0.0782945 8.29803 0.363754 7.91211C0.805802 7.5262 1.477 7.5717 1.86291 8.01375L5.5149 12.1969L15.8454 0.363754C16.2314 -0.0782945 16.9026 -0.123799 17.3446 0.262116Z" fill="#003366"/>
<path fill-rule="evenodd" clip-rule="evenodd" d="M24.4622 0.381739C24.8871 0.786436 24.9035 1.45897 24.4988 1.88389L12.3556 14.6339C12.141 14.8592 11.8384 14.9792 11.5277 14.962C11.217 14.9449 10.9294 14.7924 10.7409 14.5448L10.1341 13.7479C9.77863 13.2811 9.86891 12.6144 10.3358 12.2589C10.7368 11.9535 11.2854 11.9771 11.6574 12.2858L22.9601 0.418355C23.3648 -0.0065652 24.0373 -0.0229588 24.4622 0.381739Z" fill="#003366"/>
</svg>
