<svg width="24" height="25" viewBox="0 0 24 25" fill="none" xmlns="http://www.w3.org/2000/svg">
<path d="M18.7518 3.84904H15.6228C15.3737 3.84904 15.1699 3.64526 15.1699 3.39621V0.267151L18.7518 3.84904Z" fill="#00603A"/>
<path d="M15.6228 4.75472C14.8733 4.75472 14.2643 4.14566 14.2643 3.39623V0H4.52841C3.77898 0 3.16992 0.609057 3.16992 1.35849V12.6792H10.6846C10.9654 12.6792 11.2167 12.5592 11.3933 12.3396L13.6575 9.50943C14.348 8.64679 15.3782 8.15094 16.4854 8.15094H19.019V4.75472H15.6228ZM5.8869 3.84906H12.4529C12.702 3.84906 12.9058 4.05283 12.9058 4.30189C12.9058 4.55094 12.702 4.75472 12.4529 4.75472H5.8869C5.63785 4.75472 5.43407 4.55094 5.43407 4.30189C5.43407 4.05283 5.63785 3.84906 5.8869 3.84906ZM11.0944 10.1887H5.8869C5.63785 10.1887 5.43407 9.98491 5.43407 9.73585C5.43407 9.48679 5.63785 9.28302 5.8869 9.28302H11.0944C11.3435 9.28302 11.5473 9.48679 11.5473 9.73585C11.5473 9.98491 11.3435 10.1887 11.0944 10.1887ZM16.302 7.4717H5.8869C5.63785 7.4717 5.43407 7.26792 5.43407 7.01887C5.43407 6.76981 5.63785 6.56604 5.8869 6.56604H16.302C16.5511 6.56604 16.7548 6.76981 16.7548 7.01887C16.7548 7.26792 16.5511 7.4717 16.302 7.4717Z" fill="#00603A"/>
<path d="M20.2842 15.2898L21.1899 16.8611L19.7001 17.7215C19.5597 17.803 19.4737 17.9524 19.4737 18.1132C19.4737 18.2739 19.5597 18.4234 19.7001 18.5049L21.1899 19.3653L20.2842 20.9366L18.7922 20.0762C18.6518 19.9947 18.4797 19.9947 18.3393 20.0762C18.1989 20.1577 18.1129 20.3072 18.1129 20.4679V22.1887H16.3016V20.4679C16.3016 20.3072 16.2156 20.1577 16.0752 20.0762C16.005 20.0355 15.928 20.0151 15.8488 20.0151C15.7695 20.0151 15.6925 20.0355 15.6223 20.0762L14.1303 20.9366L13.2246 19.3653L14.7144 18.5049C14.8548 18.4234 14.9408 18.2739 14.9408 18.1132C14.9408 17.9524 14.8548 17.803 14.7144 17.7215L13.2246 16.8611L14.1303 15.2898L15.6223 16.1502C15.7627 16.2317 15.9348 16.2317 16.0752 16.1502C16.2156 16.0687 16.3016 15.9192 16.3016 15.7585V14.0377H18.1129V15.7585C18.1129 15.9192 18.1989 16.0687 18.3393 16.1502C18.4797 16.2317 18.6518 16.2317 18.7922 16.1502L20.2842 15.2898Z" fill="#00603A"/>
<path d="M22.6415 9.05658H16.4853C15.6543 9.05658 14.8823 9.4279 14.3638 10.0754L12.0996 12.9056C11.7532 13.3381 11.2392 13.5849 10.6845 13.5849H1.35849C0.609057 13.5849 0 14.1939 0 14.9434V23.5471C0 24.2966 0.609057 24.9056 1.35849 24.9056H22.6415C23.3909 24.9056 24 24.2966 24 23.5471V10.4151C24 9.66564 23.3909 9.05658 22.6415 9.05658ZM9.96226 19.9245H8.44302L7.43094 22.1502C7.35623 22.3132 7.19547 22.4151 7.01887 22.4151C7.00755 22.4151 6.99396 22.4151 6.98264 22.4128C6.79245 22.3992 6.6317 22.2656 6.58189 22.0822L5.56981 18.3736L4.94717 19.8724C4.87698 20.04 4.7117 20.1509 4.5283 20.1509H2.71698C2.46792 20.1509 2.26415 19.9471 2.26415 19.6981C2.26415 19.449 2.46792 19.2453 2.71698 19.2453H4.22717L5.24151 16.8068C5.31623 16.6279 5.49509 16.517 5.68981 16.5283C5.88226 16.5419 6.04528 16.6754 6.09736 16.8611L7.12528 20.6332L7.73887 19.2837C7.81132 19.123 7.97434 19.0188 8.15094 19.0188H9.96226C10.2113 19.0188 10.4151 19.2226 10.4151 19.4717C10.4151 19.7207 10.2113 19.9245 9.96226 19.9245ZM21.643 18.5819C22.0755 18.8309 22.2226 19.3856 21.9736 19.8181L21.0679 21.3894C20.8189 21.8219 20.2642 21.9713 19.8317 21.72L19.0189 21.2513V22.1887C19.0189 22.689 18.6136 23.0943 18.1132 23.0943H16.3019C15.8015 23.0943 15.3962 22.689 15.3962 22.1887V21.2513L14.5834 21.72C14.1509 21.969 13.5962 21.8219 13.3472 21.3894L12.4415 19.8181C12.1925 19.3856 12.3396 18.8309 12.7721 18.5819L13.5826 18.1132L12.7721 17.6445C12.3396 17.3954 12.1925 16.8407 12.4415 16.4083L13.3472 14.837C13.5962 14.4045 14.1509 14.2551 14.5834 14.5064L15.3962 14.9751V14.0377C15.3962 13.5373 15.8015 13.1321 16.3019 13.1321H18.1132C18.6136 13.1321 19.0189 13.5373 19.0189 14.0377V14.9751L19.8317 14.5064C20.2642 14.2573 20.8189 14.4045 21.0679 14.837L21.9736 16.4083C22.2226 16.8407 22.0755 17.3954 21.643 17.6445L20.8325 18.1132L21.643 18.5819Z" fill="#00603A"/>
</svg>
