<svg width="24" height="29" viewBox="0 0 24 29" fill="none" xmlns="http://www.w3.org/2000/svg">
<path fill-rule="evenodd" clip-rule="evenodd" d="M20.7927 9.49208C20.3251 4.16984 15.7668 0 10.4168 0C4.67304 0 0 4.67304 0 10.4168C0 13.6237 1.44528 16.6055 3.96474 18.5957C4.67391 19.1562 5.06499 19.9627 5.06499 20.8666V26.8415C5.06499 26.8797 5.09019 26.9075 5.12756 26.9128L15.0707 28.1312C15.0968 28.1338 15.1072 28.1312 15.1272 28.113C15.1472 28.0956 15.1515 28.086 15.1515 28.0599V23.3356C15.1515 22.7212 15.6512 22.2215 16.2657 22.2215H19.5508C20.0453 22.2215 20.4477 21.8191 20.4477 21.3246V16.2648C20.4477 15.6495 20.9474 15.1498 21.5618 15.1498H23.8745C23.9257 15.1498 23.9579 15.1307 23.9822 15.0855C24.0074 15.0403 24.0057 15.0029 23.9779 14.9595L21.1699 10.5941C20.9483 10.2499 20.8292 9.89968 20.7927 9.49208ZM15.1446 6.06791V7.74523C15.1446 8.03376 14.9108 8.26668 14.6231 8.26668H13.7836V9.89533H14.7422C14.9655 9.16791 15.6434 8.6369 16.4438 8.6369C17.425 8.6369 18.2237 9.43559 18.2237 10.4168C18.2237 11.398 17.425 12.1967 16.4438 12.1967C15.6434 12.1967 14.9655 11.6656 14.7422 10.9382H13.7836V12.5669H14.6231C14.9108 12.5669 15.1446 12.7998 15.1446 13.0883V14.7656C15.6634 14.9734 16.031 15.4809 16.031 16.0727C16.031 16.8488 15.4001 17.4806 14.6231 17.4806C13.847 17.4806 13.2152 16.8488 13.2152 16.0727C13.2152 15.4809 13.5828 14.9734 14.1017 14.7656V13.6098H13.2621C12.9736 13.6098 12.7407 13.376 12.7407 13.0883V7.74523C12.7407 7.45756 12.9736 7.22378 13.2621 7.22378H14.1017V6.06791C13.5828 5.8602 13.2152 5.35352 13.2152 4.76081C13.2152 3.98473 13.847 3.35291 14.6231 3.35291C15.4001 3.35291 16.031 3.98473 16.031 4.76081C16.031 5.35352 15.6634 5.8602 15.1446 6.06791ZM10.9382 6.09137V14.7422C11.6656 14.9655 12.1967 15.6443 12.1967 16.4438C12.1967 17.425 11.398 18.2237 10.4168 18.2237C9.43559 18.2237 8.6369 17.425 8.6369 16.4438C8.6369 15.6443 9.16704 14.9655 9.89533 14.7422V6.09137C9.16704 5.86802 8.6369 5.19014 8.6369 4.38972C8.6369 3.40853 9.43559 2.60984 10.4168 2.60984C11.398 2.60984 12.1967 3.40853 12.1967 4.38972C12.1967 5.18927 11.6656 5.86802 10.9382 6.09137ZM6.73188 14.7656C7.25072 14.9734 7.61834 15.4809 7.61834 16.0727C7.61834 16.8488 6.98652 17.4806 6.21044 17.4806C5.43348 17.4806 4.80166 16.8488 4.80166 16.0727C4.80166 15.4809 5.17015 14.9734 5.68899 14.7656V13.0883C5.68899 12.7998 5.9219 12.5669 6.21044 12.5669H7.04997V10.9382H6.09137C5.86802 11.6656 5.18927 12.1967 4.38972 12.1967C3.40853 12.1967 2.60984 11.398 2.60984 10.4168C2.60984 9.43559 3.40853 8.6369 4.38972 8.6369C5.18927 8.6369 5.86802 9.16791 6.09137 9.89533H7.04997V8.26668H6.21044C5.9219 8.26668 5.68899 8.03376 5.68899 7.74523V6.06791C5.17015 5.8602 4.80166 5.35352 4.80166 4.76081C4.80166 3.98473 5.43348 3.35291 6.21044 3.35291C6.98652 3.35291 7.61834 3.98473 7.61834 4.76081C7.61834 5.35352 7.25072 5.8602 6.73188 6.06791V7.22378H7.57141C7.85908 7.22378 8.09286 7.45756 8.09286 7.74523V13.0883C8.09286 13.376 7.85908 13.6098 7.57141 13.6098H6.73188V14.7656Z" fill="#00603A"/>
<path fill-rule="evenodd" clip-rule="evenodd" d="M14.9877 4.76079C14.9877 4.56003 14.8244 4.39577 14.6227 4.39577C14.4211 4.39577 14.2577 4.56003 14.2577 4.76079C14.2577 4.96241 14.4211 5.12667 14.6227 5.12667C14.8244 5.12667 14.9877 4.96241 14.9877 4.76079ZM5.84416 4.76079C5.84416 4.96241 6.00842 5.12667 6.21004 5.12667C6.4108 5.12667 6.57506 4.96241 6.57506 4.76079C6.57506 4.56003 6.4108 4.39577 6.21004 4.39577C6.00842 4.39577 5.84416 4.56003 5.84416 4.76079ZM4.38932 11.1537C4.79518 11.1537 5.1263 10.8235 5.1263 10.4167C5.1263 10.0109 4.79518 9.67977 4.38932 9.67977C3.98259 9.67977 3.65234 10.0109 3.65234 10.4167C3.65234 10.8235 3.98259 11.1537 4.38932 11.1537ZM6.21004 16.4377C6.4108 16.4377 6.57506 16.2743 6.57506 16.0727C6.57506 15.8711 6.4108 15.7077 6.21004 15.7077C6.00842 15.7077 5.84416 15.8711 5.84416 16.0727C5.84416 16.2743 6.00842 16.4377 6.21004 16.4377ZM11.1534 16.4438C11.1534 16.0371 10.8222 15.7068 10.4164 15.7068C10.0097 15.7068 9.67941 16.0371 9.67941 16.4438C9.67941 16.8505 10.0097 17.1808 10.4164 17.1808C10.8222 17.1808 11.1534 16.8505 11.1534 16.4438ZM14.9877 16.0727C14.9877 15.8711 14.8244 15.7077 14.6227 15.7077C14.4211 15.7077 14.2577 15.8711 14.2577 16.0727C14.2577 16.2743 14.4211 16.4377 14.6227 16.4377C14.8244 16.4377 14.9877 16.2743 14.9877 16.0727ZM16.4434 9.67977C16.0367 9.67977 15.7065 10.0109 15.7065 10.4167C15.7065 10.8235 16.0367 11.1537 16.4434 11.1537C16.8493 11.1537 17.1804 10.8235 17.1804 10.4167C17.1804 10.0109 16.8493 9.67977 16.4434 9.67977ZM11.1534 4.38969C11.1534 3.98383 10.8222 3.65271 10.4164 3.65271C10.0097 3.65271 9.67941 3.98383 9.67941 4.38969C9.67941 4.79642 10.0097 5.12667 10.4164 5.12667C10.8222 5.12667 11.1534 4.79642 11.1534 4.38969Z" fill="#00603A"/>
</svg>
