<svg width="135" height="40" viewBox="0 0 135 40" fill="none" xmlns="http://www.w3.org/2000/svg">
<g clip-path="url(#clip0_216_688)">
<path fill-rule="evenodd" clip-rule="evenodd" d="M10.7566 1.72057e-06H124.249C124.655 1.72057e-06 125.067 -0.000128279 125.472 0.00187172C125.753 0.00346346 126.039 0.00766047 126.322 0.0118031C126.386 0.0127355 126.449 0.0136652 126.512 0.0145617C127.269 0.0220095 128.023 0.0811045 128.769 0.191322C129.518 0.304242 130.243 0.515569 130.921 0.818322C132.278 1.43603 133.383 2.4152 134.079 3.61812C134.419 4.2175 134.655 4.85928 134.777 5.52144C134.903 6.18324 134.973 6.85242 134.987 7.52344C134.991 7.83008 134.991 8.1377 134.991 8.44434C135 8.80664 135 9.16992 135 9.53613V30.4648C135 30.834 135 31.1953 134.991 31.5586C134.991 31.8691 134.991 32.1699 134.987 32.4805C134.973 33.1515 134.903 33.8206 134.777 34.4824C134.655 35.1449 134.42 35.7871 134.079 36.3867C133.733 36.9835 133.283 37.5282 132.746 38.001C132.213 38.4778 131.597 38.8758 130.921 39.1797C130.243 39.4833 129.518 39.6958 128.769 39.8105C128.023 39.9198 127.268 39.9789 126.512 39.9873C126.169 39.9941 125.816 39.998 125.472 39.998C125.067 40 124.655 40 124.249 40H10.7566C10.343 40 9.93419 40 9.5216 39.998C9.17621 39.998 8.83358 39.9941 8.48488 39.9873C7.72738 39.9785 6.9717 39.9194 6.22416 39.8105C5.47772 39.6966 4.75481 39.484 4.07967 39.1797C3.40371 38.876 2.78717 38.478 2.25357 38.001C1.71505 37.5301 1.26616 36.9849 0.924356 36.3867C0.581124 35.7875 0.343339 35.1453 0.219258 34.4824C0.0936522 33.8207 0.0260614 33.1514 0.0170916 32.4805C0.00993901 32.2683 0.00715699 32.0607 0.00435296 31.8514C0.0030527 31.7544 0.00174771 31.657 0 31.5586V8.44434C0.00176842 8.34604 0.00308357 8.24765 0.00439918 8.14922C0.0071877 7.94059 0.00997831 7.7318 0.0170916 7.52348C0.0260586 6.85252 0.0936495 6.18319 0.219258 5.52148C0.343683 4.85894 0.581453 4.21711 0.924356 3.61816C1.26632 3.01802 1.71514 2.47064 2.25357 1.99707C2.7892 1.52217 3.40534 1.12447 4.07967 0.818412C4.75482 0.514917 5.4778 0.303534 6.22416 0.191412C6.97157 0.081678 7.72733 0.0226035 8.48488 0.0147017C8.55727 0.0136865 8.6294 0.0126317 8.70135 0.0115795C8.97596 0.00756356 9.24792 0.00358651 9.5216 0.00200172C9.9342 1.72062e-06 10.3429 1.72057e-06 10.7566 1.72057e-06ZM8.40804 39.1173C8.74966 39.1241 9.08566 39.128 9.42998 39.128L124.35 39.13L125.576 39.128C125.912 39.128 126.259 39.1241 126.59 39.1173C127.297 39.1097 128.004 39.0551 128.702 38.9542C129.358 38.8557 129.993 38.6703 130.587 38.4043C131.173 38.1407 131.707 37.7954 132.169 37.3815C132.631 36.9758 133.018 36.5081 133.316 35.9956C133.615 35.4698 133.821 34.9064 133.927 34.3252C134.042 33.7122 134.106 33.0926 134.12 32.4713C134.124 32.1646 134.124 31.8667 134.124 31.5414C134.133 31.1839 134.133 30.8294 134.133 30.466V9.53295C134.133 9.17301 134.133 8.81601 134.124 8.44093C134.124 8.13813 134.124 7.83386 134.121 7.55061C134.107 6.91801 134.042 6.28713 133.924 5.663C133.818 5.0894 133.614 4.53335 133.32 4.01374C132.718 2.97461 131.763 2.12826 130.59 1.5933C129.995 1.32872 129.359 1.14404 128.702 1.04533C128.008 0.944474 127.306 0.890111 126.602 0.882711L125.57 0.870008H9.43053L8.41082 0.882221C7.70067 0.890008 6.99218 0.94486 6.29129 1.04631C5.6412 1.1438 5.01136 1.3272 4.42286 1.59037C3.83742 1.85582 3.30266 2.20091 2.83807 2.61305C2.37296 3.02132 1.98554 3.4935 1.69085 4.01129C1.39165 4.53452 1.18454 5.09514 1.07668 5.67374C0.960772 6.2928 0.898236 6.91875 0.889618 7.5462C0.883007 7.74938 0.873016 8.44093 0.873016 8.44093V31.5463C0.873016 31.5463 0.882396 32.2487 0.889561 32.4596C0.898562 33.0881 0.961463 33.715 1.07772 34.335C1.18538 34.912 1.39233 35.471 1.69137 35.9925C1.98715 36.5107 2.37673 36.9825 2.84466 37.3893C3.30591 37.801 3.83897 38.1443 4.42342 38.4062C5.01327 38.6702 5.6443 38.8549 6.29571 38.9542C6.9943 39.0546 7.70034 39.1091 8.40804 39.1173Z" fill="#A6A6A6"/>
<path d="M9.43001 39.1281C9.08569 39.1281 8.74969 39.1242 8.40807 39.1174C7.70037 39.1093 6.99433 39.0547 6.29574 38.9543C5.64433 38.855 5.0133 38.6703 4.42345 38.4063C3.839 38.1444 3.30594 37.8011 2.84469 37.3895C2.37676 36.9826 1.98718 36.5108 1.6914 35.9927C1.39236 35.4711 1.18541 34.9121 1.07775 34.3351C0.961494 33.7151 0.898592 33.0882 0.889592 32.4597C0.882427 32.2488 0.873047 31.5464 0.873047 31.5464V8.44104C0.873047 8.44104 0.883037 7.74949 0.889648 7.54631C0.898266 6.91886 0.960802 6.2929 1.07671 5.67385C1.18457 5.09525 1.39168 4.53463 1.69088 4.0114C1.98557 3.49361 2.37299 3.02143 2.8381 2.61316C3.30269 2.20102 3.83745 1.85593 4.42289 1.59048C5.01139 1.32731 5.64123 1.14391 6.29132 1.04642C6.99221 0.944969 7.7007 0.890117 8.41085 0.88233L9.43057 0.870117H125.57L126.602 0.88282C127.306 0.890221 128.008 0.944583 128.702 1.04544C129.359 1.14415 129.995 1.32883 130.59 1.59341C131.763 2.12837 132.718 2.97472 133.32 4.01384C133.614 4.53346 133.818 5.08951 133.924 5.66311C134.042 6.28724 134.107 6.91812 134.121 7.55071C134.124 7.83397 134.124 8.13824 134.124 8.44104C134.133 8.81612 134.133 9.17312 134.133 9.53306V30.4661C134.133 30.8295 134.133 31.1841 134.124 31.5415C134.124 31.8668 134.124 32.1648 134.12 32.4714C134.107 33.0927 134.042 33.7124 133.927 34.3253C133.821 34.9065 133.615 35.4699 133.316 35.9957C133.018 36.5082 132.631 36.9759 132.169 37.3817C131.707 37.7955 131.173 38.1409 130.587 38.4044C129.994 38.6704 129.358 38.8558 128.702 38.9543C128.004 39.0553 127.297 39.1098 126.59 39.1174C126.259 39.1242 125.912 39.1281 125.576 39.1281L124.35 39.1301L9.43001 39.1281Z" fill="black"/>
<path d="M32.7973 20.3008C32.8081 19.4662 33.0298 18.6478 33.4418 17.9218C33.8538 17.1959 34.4428 16.5859 35.1539 16.1488C34.7021 15.5036 34.1062 14.9727 33.4134 14.5981C32.7205 14.2236 31.9499 14.0157 31.1627 13.9911C29.4835 13.8148 27.8555 14.9959 26.9998 14.9959C26.1275 14.9959 24.81 14.0086 23.3913 14.0378C22.4736 14.0674 21.5793 14.3343 20.7954 14.8123C20.0115 15.2904 19.3649 15.9633 18.9184 16.7656C16.9844 20.1141 18.427 25.0351 20.2796 27.7417C21.2065 29.0671 22.2898 30.5475 23.7072 30.495C25.0943 30.4375 25.6123 29.6105 27.2866 29.6105C28.9454 29.6105 29.4314 30.495 30.8776 30.4616C32.366 30.4375 33.3038 29.1304 34.1981 27.7925C34.8641 26.8481 35.3766 25.8044 35.7166 24.7C34.8518 24.3343 34.1139 23.7221 33.5948 22.9398C33.0757 22.1575 32.7983 21.2397 32.7973 20.3008V20.3008Z" fill="white"/>
<path d="M30.0649 12.2108C30.8764 11.2366 31.2763 9.98445 31.1794 8.72021C29.9396 8.85044 28.7943 9.44299 27.9719 10.3798C27.5697 10.8375 27.2617 11.3699 27.0655 11.9467C26.8692 12.5235 26.7886 13.1333 26.8281 13.7412C27.4483 13.7476 28.0618 13.6132 28.6225 13.3481C29.1831 13.083 29.6763 12.6942 30.0649 12.2108Z" fill="white"/>
<path d="M50.3301 27.1397H45.5967L44.46 30.4962H42.4551L46.9385 18.0782H49.0215L53.5049 30.4962H51.4658L50.3301 27.1397ZM46.0869 25.5909H49.8389L47.9893 20.1436H47.9375L46.0869 25.5909Z" fill="white"/>
<path d="M63.1875 25.9698C63.1875 28.7833 61.6816 30.5909 59.4092 30.5909C58.8335 30.621 58.261 30.4884 57.7572 30.2082C57.2534 29.9281 56.8387 29.5118 56.5606 29.0069H56.5175V33.4913H54.6591V21.4424H56.458V22.9483H56.4922C56.7831 22.4458 57.2049 22.0316 57.7125 21.7498C58.2201 21.4679 58.7947 21.329 59.375 21.3477C61.6728 21.3477 63.1875 23.1641 63.1875 25.9698ZM61.2773 25.9698C61.2773 24.1368 60.3301 22.9317 58.8848 22.9317C57.4648 22.9317 56.5098 24.1622 56.5098 25.9698C56.5098 27.794 57.4648 29.0157 58.8848 29.0157C60.3301 29.0157 61.2773 27.8194 61.2773 25.9698Z" fill="white"/>
<path d="M73.1523 25.9698C73.1523 28.7833 71.6465 30.5909 69.374 30.5909C68.7984 30.621 68.2259 30.4884 67.7221 30.2082C67.2183 29.9281 66.8036 29.5118 66.5254 29.0069H66.4824V33.4913H64.624V21.4424H66.4228V22.9483H66.457C66.7479 22.4458 67.1697 22.0316 67.6773 21.7498C68.1849 21.468 68.7595 21.329 69.3398 21.3477C71.6377 21.3477 73.1523 23.1641 73.1523 25.9698ZM71.2422 25.9698C71.2422 24.1368 70.2949 22.9317 68.8496 22.9317C67.4297 22.9317 66.4746 24.1622 66.4746 25.9698C66.4746 27.794 67.4297 29.0157 68.8496 29.0157C70.2949 29.0157 71.2422 27.8194 71.2422 25.9698Z" fill="white"/>
<path d="M79.7383 27.0362C79.876 28.2676 81.0723 29.0762 82.707 29.0762C84.2734 29.0762 85.4004 28.2676 85.4004 27.1572C85.4004 26.1934 84.7207 25.6162 83.1113 25.2207L81.502 24.833C79.2217 24.2822 78.1631 23.2158 78.1631 21.4854C78.1631 19.3428 80.0303 17.8711 82.6816 17.8711C85.3056 17.8711 87.1045 19.3428 87.165 21.4854H85.289C85.1767 20.2461 84.1523 19.4981 82.6553 19.4981C81.1582 19.4981 80.1338 20.2549 80.1338 21.3565C80.1338 22.2344 80.7881 22.751 82.3886 23.1465L83.7568 23.4824C86.3047 24.0849 87.3633 25.1084 87.3633 26.9248C87.3633 29.248 85.5127 30.7031 82.5693 30.7031C79.8154 30.7031 77.956 29.2822 77.8359 27.0361L79.7383 27.0362Z" fill="white"/>
<path d="M91.374 19.2999V21.4424H93.0957V22.9141H91.374V27.9053C91.374 28.6807 91.7187 29.042 92.4756 29.042C92.68 29.0385 92.884 29.0241 93.0869 28.999V30.4619C92.7466 30.5255 92.4008 30.5543 92.0547 30.5479C90.2217 30.5479 89.5068 29.8594 89.5068 28.1035V22.9141H88.1904V21.4424H89.5068V19.2999H91.374Z" fill="white"/>
<path d="M94.0928 25.9698C94.0928 23.1212 95.7705 21.3311 98.3868 21.3311C101.012 21.3311 102.682 23.1211 102.682 25.9698C102.682 28.8262 101.021 30.6085 98.3868 30.6085C95.7539 30.6085 94.0928 28.8262 94.0928 25.9698ZM100.788 25.9698C100.788 24.0157 99.8926 22.8624 98.3867 22.8624C96.8809 22.8624 95.9864 24.0245 95.9864 25.9698C95.9864 27.9317 96.8809 29.0762 98.3867 29.0762C99.8926 29.0762 100.788 27.9317 100.788 25.9698Z" fill="white"/>
<path d="M104.214 21.4424H105.986V22.9834H106.029C106.149 22.5021 106.431 22.0768 106.828 21.7789C107.224 21.481 107.711 21.3288 108.207 21.3477C108.421 21.3469 108.635 21.3702 108.844 21.417V23.1553C108.573 23.0727 108.291 23.0348 108.009 23.043C107.739 23.0321 107.47 23.0797 107.22 23.1825C106.97 23.2854 106.745 23.4412 106.561 23.6391C106.377 23.8369 106.238 24.0723 106.154 24.329C106.07 24.5856 106.042 24.8575 106.072 25.126V30.4961H104.214L104.214 21.4424Z" fill="white"/>
<path d="M117.412 27.837C117.162 29.4805 115.562 30.6084 113.514 30.6084C110.88 30.6084 109.245 28.8438 109.245 26.0127C109.245 23.1729 110.889 21.3311 113.436 21.3311C115.94 21.3311 117.516 23.0518 117.516 25.7969V26.4336H111.121V26.5459C111.092 26.8791 111.133 27.2148 111.243 27.5307C111.354 27.8465 111.53 28.1353 111.76 28.3778C111.99 28.6204 112.27 28.8111 112.58 28.9374C112.889 29.0637 113.222 29.1227 113.557 29.1104C113.996 29.1515 114.437 29.0498 114.813 28.8204C115.19 28.591 115.483 28.246 115.647 27.837L117.412 27.837ZM111.13 25.1348H115.656C115.673 24.8352 115.628 24.5354 115.523 24.2542C115.418 23.973 115.256 23.7165 115.048 23.5007C114.839 23.2849 114.589 23.1146 114.311 23.0004C114.034 22.8861 113.736 22.8305 113.436 22.837C113.133 22.8352 112.833 22.8933 112.553 23.008C112.273 23.1228 112.018 23.2919 111.804 23.5055C111.59 23.7191 111.42 23.9731 111.304 24.2527C111.188 24.5324 111.129 24.8322 111.13 25.1348Z" fill="white"/>
<path d="M45.8545 8.73101C46.2441 8.70305 46.6351 8.76191 46.9992 8.90334C47.3633 9.04478 47.6915 9.26526 47.9601 9.54888C48.2286 9.83251 48.4309 10.1722 48.5523 10.5435C48.6737 10.9147 48.7112 11.3083 48.6621 11.6959C48.6621 13.6021 47.6318 14.6979 45.8545 14.6979H43.6992V8.73101H45.8545ZM44.626 13.854H45.751C46.0294 13.8707 46.308 13.825 46.5665 13.7204C46.8251 13.6158 47.057 13.4548 47.2455 13.2493C47.434 13.0437 47.5743 12.7987 47.6562 12.5321C47.738 12.2655 47.7594 11.9839 47.7187 11.708C47.7564 11.4332 47.7329 11.1534 47.6498 10.8887C47.5667 10.6241 47.426 10.3811 47.238 10.1771C47.0499 9.97321 46.8191 9.81341 46.562 9.70917C46.3049 9.60493 46.028 9.55885 45.751 9.57422H44.626V13.854Z" fill="white"/>
<path d="M49.709 12.4444C49.6807 12.1484 49.7145 11.8499 49.8084 11.5678C49.9022 11.2857 50.054 11.0264 50.2539 10.8064C50.4538 10.5864 50.6976 10.4107 50.9694 10.2904C51.2413 10.1701 51.5352 10.108 51.8325 10.108C52.1298 10.108 52.4238 10.1701 52.6956 10.2904C52.9675 10.4107 53.2112 10.5864 53.4111 10.8064C53.6111 11.0264 53.7628 11.2857 53.8567 11.5678C53.9505 11.8499 53.9844 12.1484 53.956 12.4444C53.9849 12.7406 53.9514 13.0396 53.8579 13.3221C53.7643 13.6046 53.6126 13.8644 53.4126 14.0848C53.2126 14.3053 52.9687 14.4814 52.6966 14.6019C52.4245 14.7225 52.1301 14.7847 51.8325 14.7847C51.5349 14.7847 51.2406 14.7225 50.9684 14.6019C50.6963 14.4814 50.4524 14.3053 50.2524 14.0848C50.0524 13.8644 49.9008 13.6046 49.8072 13.3221C49.7136 13.0396 49.6801 12.7406 49.709 12.4444ZM53.042 12.4444C53.042 11.4683 52.6035 10.8975 51.834 10.8975C51.0615 10.8975 50.627 11.4683 50.627 12.4444C50.627 13.4283 51.0615 13.9947 51.834 13.9947C52.6035 13.9946 53.042 13.4243 53.042 12.4444Z" fill="white"/>
<path d="M59.6016 14.6978H58.6797L57.749 11.3814H57.6787L56.752 14.6978H55.8389L54.5977 10.1948H55.499L56.3057 13.6308H56.3721L57.2979 10.1948H58.1504L59.0762 13.6308H59.1465L59.9492 10.1948H60.8379L59.6016 14.6978Z" fill="white"/>
<path d="M61.8818 10.1948H62.7373V10.9102H62.8037C62.9164 10.6532 63.1064 10.4379 63.3472 10.2941C63.5881 10.1503 63.8678 10.0852 64.1475 10.1079C64.3666 10.0914 64.5866 10.1245 64.7912 10.2046C64.9958 10.2847 65.1797 10.4098 65.3294 10.5706C65.4791 10.7315 65.5906 10.9239 65.6558 11.1337C65.7211 11.3436 65.7382 11.5654 65.706 11.7827V14.6977H64.8174V12.0059C64.8174 11.2822 64.5029 10.9224 63.8457 10.9224C63.6969 10.9154 63.5484 10.9408 63.4104 10.9966C63.2723 11.0524 63.148 11.1374 63.0459 11.2458C62.9437 11.3542 62.8662 11.4834 62.8187 11.6245C62.7712 11.7657 62.7547 11.9154 62.7705 12.0635V14.6978H61.8818L61.8818 10.1948Z" fill="white"/>
<path d="M67.1221 8.43701H68.0107V14.6978H67.1221V8.43701Z" fill="white"/>
<path d="M69.2461 12.4444C69.2178 12.1484 69.2517 11.8498 69.3455 11.5677C69.4394 11.2857 69.5912 11.0263 69.7911 10.8063C69.9911 10.5863 70.2348 10.4106 70.5067 10.2903C70.7786 10.17 71.0726 10.1079 71.3699 10.1079C71.6672 10.1079 71.9612 10.17 72.233 10.2903C72.5049 10.4106 72.7486 10.5863 72.9486 10.8063C73.1486 11.0263 73.3003 11.2857 73.3942 11.5677C73.4881 11.8498 73.5219 12.1484 73.4936 12.4444C73.5225 12.7406 73.489 13.0396 73.3954 13.3221C73.3017 13.6046 73.15 13.8644 72.95 14.0848C72.75 14.3052 72.5061 14.4814 72.234 14.6019C71.9618 14.7224 71.6675 14.7847 71.3699 14.7847C71.0722 14.7847 70.7779 14.7224 70.5058 14.6019C70.2336 14.4814 69.9897 14.3052 69.7897 14.0848C69.5897 13.8644 69.438 13.6046 69.3444 13.3221C69.2508 13.0396 69.2173 12.7406 69.2461 12.4444ZM72.5791 12.4444C72.5791 11.4683 72.1406 10.8975 71.3711 10.8975C70.5986 10.8975 70.1641 11.4683 70.1641 12.4444C70.1641 13.4283 70.5987 13.9947 71.3711 13.9947C72.1406 13.9946 72.5791 13.4243 72.5791 12.4444Z" fill="white"/>
<path d="M74.4292 13.4243C74.4292 12.6138 75.0327 12.1465 76.104 12.0801L77.3237 12.0098V11.6211C77.3237 11.1455 77.0093 10.877 76.4019 10.877C75.9058 10.877 75.562 11.0591 75.4634 11.3775H74.603C74.6938 10.604 75.4214 10.1079 76.4429 10.1079C77.5718 10.1079 78.2085 10.6699 78.2085 11.6211V14.6978H77.353V14.065H77.2827C77.14 14.292 76.9396 14.477 76.702 14.6012C76.4643 14.7254 76.198 14.7843 75.9302 14.772C75.7411 14.7916 75.5501 14.7715 75.3693 14.7128C75.1886 14.6541 75.0221 14.5581 74.8807 14.4312C74.7393 14.3042 74.626 14.149 74.5483 13.9756C74.4705 13.8022 74.4299 13.6144 74.4292 13.4243ZM77.3237 13.0396V12.6631L76.2241 12.7334C75.604 12.7749 75.3227 12.9859 75.3227 13.3828C75.3227 13.7881 75.6743 14.0239 76.1577 14.0239C76.2994 14.0383 76.4425 14.024 76.5785 13.9819C76.7145 13.9398 76.8406 13.8708 76.9494 13.7789C77.0582 13.6871 77.1474 13.5743 77.2117 13.4473C77.276 13.3203 77.3141 13.1816 77.3237 13.0396Z" fill="white"/>
<path d="M79.3765 12.4444C79.3765 11.0215 80.1079 10.1201 81.2456 10.1201C81.527 10.1072 81.8063 10.1746 82.0508 10.3145C82.2954 10.4544 82.495 10.661 82.6265 10.9101H82.6929V8.43701H83.5815V14.6978H82.73V13.9863H82.6597C82.5181 14.2338 82.3114 14.4378 82.0622 14.5763C81.8129 14.7148 81.5306 14.7825 81.2456 14.772C80.1001 14.772 79.3765 13.8706 79.3765 12.4444ZM80.2945 12.4444C80.2945 13.3994 80.7447 13.9741 81.4976 13.9741C82.2466 13.9741 82.7095 13.3911 82.7095 12.4483C82.7095 11.5098 82.2417 10.9185 81.4976 10.9185C80.7495 10.9185 80.2945 11.4971 80.2945 12.4444Z" fill="white"/>
<path d="M87.2583 12.4444C87.23 12.1484 87.2638 11.8499 87.3577 11.5678C87.4515 11.2857 87.6033 11.0264 87.8032 10.8064C88.0032 10.5864 88.2469 10.4107 88.5187 10.2904C88.7906 10.1701 89.0846 10.108 89.3818 10.108C89.6791 10.108 89.9731 10.1701 90.2449 10.2904C90.5168 10.4107 90.7605 10.5864 90.9604 10.8064C91.1604 11.0264 91.3121 11.2857 91.406 11.5678C91.4998 11.8499 91.5337 12.1484 91.5054 12.4444C91.5342 12.7406 91.5008 13.0396 91.4072 13.3221C91.3136 13.6046 91.1619 13.8644 90.9619 14.0848C90.7619 14.3053 90.518 14.4814 90.2459 14.6019C89.9738 14.7225 89.6795 14.7847 89.3818 14.7847C89.0842 14.7847 88.7899 14.7225 88.5177 14.6019C88.2456 14.4814 88.0017 14.3053 87.8017 14.0848C87.6017 13.8644 87.4501 13.6046 87.3565 13.3221C87.2629 13.0396 87.2295 12.7406 87.2583 12.4444ZM90.5913 12.4444C90.5913 11.4683 90.1528 10.8975 89.3833 10.8975C88.6108 10.8975 88.1763 11.4683 88.1763 12.4444C88.1763 13.4283 88.6109 13.9947 89.3833 13.9947C90.1528 13.9946 90.5913 13.4243 90.5913 12.4444Z" fill="white"/>
<path d="M92.6977 10.1948H93.5532V10.9102H93.6196C93.7323 10.6532 93.9223 10.4379 94.1632 10.2941C94.404 10.1503 94.6838 10.0852 94.9634 10.1079C95.1825 10.0914 95.4025 10.1245 95.6071 10.2046C95.8117 10.2847 95.9956 10.4098 96.1453 10.5706C96.295 10.7315 96.4066 10.9239 96.4718 11.1337C96.537 11.3436 96.5541 11.5654 96.522 11.7827V14.6977H95.6333V12.0059C95.6333 11.2822 95.3189 10.9224 94.6616 10.9224C94.5129 10.9154 94.3644 10.9408 94.2263 10.9966C94.0882 11.0524 93.9639 11.1374 93.8618 11.2458C93.7596 11.3542 93.6822 11.4834 93.6346 11.6245C93.5871 11.7657 93.5707 11.9154 93.5864 12.0635V14.6978H92.6977V10.1948Z" fill="white"/>
<path d="M101.543 9.07374V10.2153H102.519V10.9639H101.543V13.2793C101.543 13.751 101.738 13.9575 102.18 13.9575C102.293 13.9572 102.407 13.9503 102.519 13.937V14.6773C102.359 14.7058 102.198 14.721 102.036 14.7227C101.047 14.7227 100.654 14.375 100.654 13.5068V10.9638H99.939V10.2153H100.654V9.07374H101.543Z" fill="white"/>
<path d="M103.733 8.43701H104.614V10.9185H104.684C104.802 10.6591 104.997 10.4425 105.243 10.2982C105.489 10.1539 105.773 10.0888 106.057 10.1118C106.275 10.1 106.493 10.1364 106.695 10.2184C106.897 10.3004 107.079 10.4261 107.227 10.5864C107.375 10.7468 107.486 10.9378 107.552 11.146C107.618 11.3541 107.637 11.5742 107.608 11.7905V14.6978H106.718V12.0098C106.718 11.2905 106.383 10.9263 105.755 10.9263C105.603 10.9137 105.449 10.9347 105.305 10.9878C105.161 11.0408 105.031 11.1247 104.923 11.2334C104.815 11.3421 104.732 11.4732 104.68 11.6173C104.628 11.7614 104.608 11.9152 104.622 12.0679V14.6977H103.733L103.733 8.43701Z" fill="white"/>
<path d="M112.79 13.4819C112.669 13.8935 112.407 14.2495 112.051 14.4876C111.694 14.7258 111.265 14.8309 110.838 14.7847C110.542 14.7925 110.247 14.7357 109.974 14.6182C109.702 14.5006 109.458 14.3252 109.26 14.1041C109.062 13.8829 108.915 13.6214 108.828 13.3376C108.742 13.0537 108.718 12.7544 108.758 12.4605C108.719 12.1656 108.743 11.8656 108.83 11.581C108.916 11.2963 109.063 11.0335 109.26 10.8105C109.456 10.5874 109.699 10.4092 109.971 10.288C110.242 10.1668 110.537 10.1054 110.834 10.1079C112.087 10.1079 112.843 10.9639 112.843 12.3779V12.688H109.664V12.7378C109.65 12.9031 109.67 13.0694 109.725 13.2261C109.779 13.3829 109.865 13.5266 109.978 13.6481C110.091 13.7695 110.228 13.866 110.38 13.9314C110.533 13.9968 110.697 14.0297 110.863 14.0278C111.075 14.0533 111.291 14.0151 111.481 13.9178C111.672 13.8206 111.83 13.6689 111.934 13.4819L112.79 13.4819ZM109.664 12.0308H111.938C111.949 11.8796 111.929 11.7278 111.878 11.5851C111.827 11.4424 111.746 11.3119 111.642 11.2021C111.538 11.0922 111.411 11.0054 111.272 10.9472C111.132 10.8891 110.981 10.8608 110.83 10.8643C110.676 10.8623 110.523 10.8912 110.381 10.9491C110.239 11.0071 110.109 11.0929 110.001 11.2017C109.892 11.3104 109.806 11.4397 109.748 11.5821C109.69 11.7245 109.662 11.8771 109.664 12.0308Z" fill="white"/>
</g>
<defs>
<clipPath id="clip0_216_688">
<rect width="135" height="40" fill="white"/>
</clipPath>
</defs>
</svg>
