<svg width="24" height="20" viewBox="0 0 24 20" fill="none" xmlns="http://www.w3.org/2000/svg">
<path d="M23.8332 10.3699C23.5946 11.1993 23.1176 11.9182 22.4909 12.3933C21.9904 12.7733 21.4221 12.9721 20.8632 12.9721C20.6528 12.9721 20.447 12.9444 20.2435 12.8878C19.5045 12.6795 18.9058 12.1015 18.6019 11.3013C18.3236 10.5719 18.3049 9.71365 18.5434 8.88399C18.7843 8.05458 19.2613 7.33575 19.8857 6.8606C20.5733 6.33872 21.3918 6.15835 22.1331 6.36613C22.8721 6.57436 23.4731 7.15244 23.7771 7.95263C24.053 8.6821 24.074 9.54025 23.8332 10.3699ZM8.1975 8.2735C9.07682 8.2735 9.91637 7.79143 10.501 6.9503C11.0318 6.18768 11.3241 5.18878 11.3241 4.13712C11.3241 3.08452 11.0318 2.08562 10.501 1.323C9.91632 0.482113 9.07677 0 8.1975 0C7.31583 0 6.47633 0.482064 5.89167 1.323C5.36318 2.08562 5.07085 3.08452 5.07085 4.13712C5.07085 5.18878 5.36318 6.18768 5.89167 6.9503C6.47633 7.79143 7.31588 8.2735 8.1975 8.2735ZM15.8025 8.2735C16.6842 8.2735 17.5237 7.79143 18.1084 6.9503C18.6369 6.18768 18.9292 5.18878 18.9292 4.13712C18.9292 3.08452 18.6369 2.08562 18.1084 1.323C17.5237 0.482113 16.6842 0 15.8025 0C14.9232 0 14.0837 0.482064 13.4991 1.323C12.9682 2.08562 12.6759 3.08452 12.6759 4.13712C12.6759 5.18878 12.9682 6.18768 13.4991 6.9503C14.0837 7.79143 14.9232 8.2735 15.8025 8.2735ZM5.45669 8.88453C5.21584 8.05468 4.73878 7.33585 4.11434 6.86065C3.42681 6.33877 2.60833 6.1584 1.86697 6.36618C1.12567 6.57441 0.526965 7.15249 0.222934 7.95268C-0.0530141 8.6821 -0.0740265 9.5403 0.166818 10.37C0.405372 11.1994 0.882431 11.9182 1.50911 12.3933C2.00958 12.7734 2.57785 12.9721 3.13677 12.9721C3.3449 12.9721 3.55303 12.9445 3.75414 12.8878C4.49545 12.6796 5.09415 12.1015 5.39813 11.3013C5.67652 10.5719 5.69524 9.7137 5.45669 8.88453ZM16.5883 10.907C15.3067 9.58036 13.6791 8.85026 12 8.85026C10.3209 8.85026 8.69093 9.58036 7.41406 10.907C6.19331 12.1722 5.34211 13.9278 5.01468 15.8512C4.80655 17.0781 5.18537 18.259 6.05768 19.0907C6.96504 19.9563 8.15069 20.2191 9.31065 19.8128C10.1689 19.511 11.0739 19.3581 12 19.3581C12.9261 19.3581 13.8311 19.5111 14.6894 19.8128C15.0472 19.9381 15.4073 20 15.7605 20C16.5532 20 17.3133 19.6895 17.94 19.0907C18.8146 18.259 19.1934 17.0781 18.9853 15.8512C18.6579 13.9277 17.8067 12.1722 16.5883 10.907Z" fill="#00603A"/>
</svg>
