<svg width="142" height="142" viewBox="0 0 142 142" fill="none" xmlns="http://www.w3.org/2000/svg">
<rect x="0.5" y="0.5" width="141" height="141" rx="70.5" stroke="white"/>
<rect x="0.5" y="0.5" width="141" height="141" rx="70.5" stroke="white"/>
<rect x="0.5" y="0.5" width="141" height="141" rx="70.5" stroke="white"/>
<path d="M67.25 82.5C66.5938 82.4687 66.0625 82.25 65.6562 81.8438C65.2188 81.4063 65 80.875 65 80.25V63.75C65 63.125 65.2188 62.5937 65.6562 62.1562C66.0625 61.75 66.5938 61.5313 67.25 61.5C67.6563 61.5 68.0469 61.6094 68.4219 61.8281L81.9219 70.0781C82.6094 70.5469 82.9687 71.1875 83 72C82.9687 72.8125 82.6094 73.4531 81.9219 73.9219L68.4219 82.1719C68.0469 82.3906 67.6563 82.5 67.25 82.5Z" fill="white"/>
</svg>
