<svg width="271" height="61" viewBox="0 0 271 61" fill="none" xmlns="http://www.w3.org/2000/svg">
<path d="M100.48 34.1418L79.1094 14.9606V35.4446H69.3108V6.51428C69.3108 1.8775 72.1245 0 75.2009 0C76.5037 0 77.8066 0.312091 79.5256 1.8775L100.896 21.0587V0.574644H110.75V29.4505C110.75 34.0873 107.936 36.0193 104.81 36.0193C103.458 36.0193 102.15 35.7072 100.485 34.1418H100.48Z" fill="white"/>
<path d="M162.398 20.2215C162.398 30.7484 155.151 36.0143 140.661 36.0143C123.877 36.0143 116.635 30.7484 116.635 20.2215V0.574646H127.369V20.2265C127.369 25.3884 129.559 27.0528 140.661 27.0528C148.948 27.0528 151.554 25.1258 151.554 20.2265V0.574646H162.398V20.2265V20.2215Z" fill="white"/>
<path d="M217.96 35.4446H203.525L195.757 26.2206H179.182V35.4446H168.392V17.6208H198.73C202.063 17.6208 204.669 16.1098 204.669 13.7122C204.669 11.0024 202.43 9.6451 198.73 9.6451H168.392L175.427 0.574646H197.838C205.759 0.574646 215.766 3.07633 215.766 13.0335C215.766 18.453 212.377 22.9362 206.646 24.0855C207.845 24.9722 209.147 26.2206 211.545 28.6727L217.955 35.4496L217.96 35.4446Z" fill="white"/>
<path d="M270.446 17.9824C270.446 30.4413 261.896 36.0193 244.959 36.0193C228.021 36.0193 219.471 30.4413 219.471 17.9824C219.471 5.52352 227.967 0 244.959 0C261.95 0 270.446 5.52352 270.446 17.9824ZM259.711 17.9824C259.711 10.4773 255.802 9.07046 244.959 9.07046C234.115 9.07046 230.206 10.4773 230.206 17.9824C230.206 25.4874 234.115 26.9488 244.959 26.9488C255.802 26.9488 259.711 25.4874 259.711 17.9824Z" fill="white"/>
<path d="M75.3297 44.8817L82.4632 55.4036L89.9038 44.8817H95.6849L85.5395 59.218C84.8509 60.1444 83.88 60.9965 82.3641 60.9965C80.8482 60.9965 79.9219 60.2138 79.2333 59.218L69.3009 44.8817H75.3198H75.3297Z" fill="white"/>
<path d="M115.857 56.6619L112.706 60.7389H97.4436V44.8817H115.812L112.637 49.0032H102.373V50.9006H114.936L112.117 54.502H102.378V56.6569H115.862L115.857 56.6619Z" fill="white"/>
<path d="M137.233 44.8817L134.057 49.0032H128.395V60.7339H123.491V49.0032H116.05L119.226 44.8817H137.238H137.233Z" fill="white"/>
<path d="M11.2281 55.9486C7.59854 52.319 7.48879 45.7341 10.7891 41.8616C12.4275 39.9331 14.8576 38.7964 16.5509 36.915C18.3382 34.9239 19.4279 32.2115 21.2387 30.1812C25.6052 25.266 33.46 25.1876 37.9205 30.0244C39.8255 32.0939 40.8837 34.822 42.7651 36.915C44.1213 38.428 45.8381 39.3217 47.304 40.6387C54.7513 47.2706 50.0164 59.7428 39.8019 58.951C36.776 58.7158 34.7065 56.7482 32.0019 56.0427C26.6478 54.6394 24.3352 58.3866 19.7023 58.9353C16.645 59.2959 13.4074 58.1279 11.2359 55.9564L11.2281 55.9486ZM39.849 55.784C39.8568 55.2039 39.9509 53.6831 39.8019 53.2284C39.7 52.907 38.6653 51.8095 38.3987 51.3705C37.9989 50.7277 37.8892 50.7669 38.2968 50.1006C38.383 49.9594 39.0729 49.0344 39.1356 48.9952C39.3786 48.8384 39.6765 49.0736 39.9195 49.1285C40.1155 49.1677 40.4212 49.105 40.5388 49.1755C40.6486 49.2382 41.6441 51.2451 41.6598 51.3627C41.6912 51.7311 40.821 53.0089 40.7662 53.6909C40.7113 54.3259 41.017 54.7413 41.0719 55.3214C41.1032 55.6429 41.0719 57.6183 41.1738 57.7202C41.2052 57.7516 41.6598 57.6967 41.7852 57.7202C41.6755 56.8815 41.7617 55.9329 41.6833 55.1176C41.6363 54.6394 41.3384 54.1456 41.3698 53.6909C41.3776 53.5576 41.9264 52.2563 41.9891 52.2093C42.1223 52.1074 42.2164 52.2955 42.2713 52.3896C42.8435 53.2833 43.1806 55.5723 43.2198 56.6541C43.2277 56.9128 43.0866 57.148 43.1179 57.4145C43.1963 57.4929 43.9253 57.2656 44.0351 57.1637C44.3016 56.9206 43.9332 56.7011 43.8548 56.4189C43.651 55.6821 43.6275 54.8119 43.5256 54.0515C44.4976 54.5219 46.2614 54.3729 46.5828 55.5801C46.7239 55.6899 47.4687 54.9373 47.2962 54.7649C46.7945 54.8668 46.6299 54.4513 46.3085 54.271C45.4775 53.8006 44.3408 53.7615 43.4707 53.3381C43.2512 52.6718 41.1895 49.3245 41.2679 48.9168C41.2679 48.8855 41.6598 48.5406 41.7225 48.5406C41.8715 48.5406 44.4035 49.5205 44.529 49.6224C44.8974 49.9046 45.1247 51.3862 45.5167 51.8095C45.1718 53.2597 47.0689 52.7345 46.4809 51.8565C46.3712 51.6841 46.1046 51.6214 45.94 51.3783C45.8381 51.2216 45.3834 50.0535 45.454 49.9751C45.9635 50.1476 46.771 50.2887 46.9905 50.8374C47.3276 51.6527 47.3354 52.664 48.1036 53.393C48.4878 53.7536 48.7543 53.0167 48.6994 52.8051C48.6289 52.5229 47.5235 51.833 47.7979 51.104C47.9155 50.9785 48.6994 51.7781 48.817 51.8722C48.9189 51.9506 48.9659 52.1074 49.1306 51.9741C49.8439 51.4175 48.3153 50.7355 48.0096 50.4376C48.0017 50.1397 49.4833 49.7556 49.6401 49.6224C49.8204 49.4734 49.7263 49.1598 49.742 48.956C49.5225 48.7209 47.5863 49.9594 47.3511 49.9673C47.1629 49.9751 45.9714 49.4891 45.7048 49.3715C45.6421 49.3402 45.4853 49.395 45.5637 49.2147C45.6578 48.9952 46.9513 47.8742 47.2257 47.7174C48.0723 47.2314 48.7935 47.3804 49.4677 47.106C49.742 46.9884 49.5539 46.5337 49.4755 46.5102C49.3187 46.4632 48.4094 46.5964 48.1899 46.6435C46.7631 46.9492 45.8616 48.1172 44.7955 48.9639C44.6544 48.9795 42.2948 48.0937 42.1929 47.9996C42.0518 47.8585 42.0361 47.2784 42.138 47.1217C42.3026 46.8708 46.4496 45.6949 47.0532 45.397C47.892 45.4754 48.331 46.275 49.3344 46.0007C49.4755 45.2716 48.4799 45.5538 48.1115 45.0286C48.4172 44.6758 49.1149 44.8013 48.7151 44.2212C48.4564 43.8449 47.7979 44.4015 47.4295 44.5426C45.94 45.1148 44.2076 45.7812 42.6868 46.228C42.3967 46.3142 41.9028 46.5416 41.7304 46.1966C41.6049 45.9536 42.6632 44.7464 42.8122 44.4171L46.9826 42.2143C47.1002 42.0419 46.7475 41.6107 46.528 41.6107C46.1752 41.6029 43.063 43.6175 42.4437 43.8527C42.0518 44.1976 41.3698 45.5381 41.166 45.6401C40.9465 45.7498 40.3115 45.5068 39.8411 45.6401C39.4178 45.7498 38.9161 46.4005 38.8534 46.4161C38.6261 46.471 37.5834 45.7655 37.3561 45.5773C37.2542 45.4833 37.1444 45.4754 37.1836 45.2873C37.8108 44.958 38.6731 45.6009 39.1591 45.2873C39.5432 45.0443 39.3629 43.8684 38.6104 44.0957C38.2576 44.2055 38.2419 44.6131 37.9519 44.668C37.7324 44.7072 37.0739 44.6915 36.8309 44.668C36.729 44.6523 35.9921 44.4563 35.8588 44.4093C35.7648 44.3779 34.7378 43.7665 34.7378 43.7038C34.824 43.5548 34.9573 43.5783 35.0827 43.547C36.1489 43.2491 39.261 42.8493 40.288 43.0453C40.6407 43.1158 40.7034 43.5783 41.26 43.4059C41.8166 43.2334 41.8323 42.3398 41.26 42.1673C40.7818 42.0262 40.6956 42.3868 40.288 42.4338C39.7157 42.5044 39.0729 42.1751 38.4458 42.4338C38.1792 42.4103 38.8142 41.6421 38.9083 41.5715C39.6608 40.9757 40.5467 41.501 41.2992 41.5245C41.6598 41.5323 41.9969 41.3834 42.3105 41.4147C43.1885 41.5166 43.5804 42.034 44.6857 41.5323C44.9993 41.3912 45.9557 40.8268 45.258 40.6151C44.7955 40.474 44.5525 41.0228 44.0508 41.1012C43.7294 41.1482 42.5692 41.1404 42.9533 40.6935C43.1493 40.474 43.9097 40.0272 44.2076 39.8782C43.5256 38.7024 42.53 40.5759 41.7852 40.7719C40.8289 41.0228 40.0293 40.2388 38.8612 40.8111C38.1322 41.1717 37.607 42.3633 37.1915 42.5044C36.8544 42.622 34.3851 43.0453 34.048 43.0374C33.9069 43.0374 33.7736 42.9982 33.656 42.9199L29.8226 40.7798C30.0186 40.4819 29.8305 39.6431 29.9402 39.4785C30.097 39.2354 34.6829 37.6127 35.2944 37.2364C36.3919 37.7852 38.2811 39.1414 39.4884 39.2354C39.9822 39.2746 40.4134 38.9767 40.7975 38.9532C41.0248 38.9375 41.2052 39.0473 41.4011 39.0551C42.4829 39.0865 42.4202 37.5108 41.2992 37.7225C40.9386 37.793 40.9229 38.1536 40.6642 38.3104C40.3272 38.5142 39.6687 38.5769 39.2767 38.5064C38.8847 38.4358 36.972 37.4795 36.58 37.2286C36.4154 37.1189 36.2665 37.0091 36.141 36.8523C36.5879 36.6485 37.3561 35.9351 37.7716 35.8254C38.1165 35.7313 38.4222 36.0449 38.8534 35.794C39.261 35.551 39.018 35.0885 39.1199 34.7357C39.1591 34.5946 39.3629 34.5162 39.3943 34.3908C39.41 34.3359 39.3237 33.8656 39.3081 33.8499C39.1042 33.6775 38.6809 34.3438 38.4536 34.4692C38.2576 34.5711 37.9832 34.579 37.85 34.6573C37.701 34.7514 37.5756 35.4334 37.168 35.3786C37.1288 34.6025 37.4423 33.9205 37.9284 33.3404C38.0616 33.1836 38.4928 32.9092 38.5006 32.87C38.5163 32.7603 38.289 32.3213 38.2263 32.3134C37.8813 32.2586 37.0661 33.3247 36.9014 33.6461C36.533 34.3673 36.6271 34.9474 36.4232 35.6137C36.2351 36.2487 35.0671 36.5231 34.5105 36.8131C34.8789 35.943 34.9495 34.5633 35.4041 33.7794C35.4669 33.6775 36.094 32.917 36.141 32.8857C36.3997 32.7367 36.7603 32.9327 36.9093 32.431C37.0425 31.9763 36.7682 31.6001 36.29 31.6079C35.4982 31.6236 35.8745 32.2194 35.702 32.5094C35.5688 32.7446 34.9181 33.1914 34.6829 33.6853C34.1812 34.7436 34.2596 36.2173 33.4444 37.1894C32.9583 37.3305 29.7678 38.8748 29.6031 38.7494C29.5875 38.7337 29.5012 38.4202 29.5483 38.3496C30.1519 37.4716 30.928 36.6799 31.4218 35.7235C31.657 35.2688 31.9 34.2497 32.1509 33.9283C32.3782 33.6304 34.0166 33.2698 34.5418 32.7211C35.3101 31.9215 34.9965 30.4869 36.0313 30.0244C36.0862 29.7971 35.0435 29.068 34.9103 29.1621C34.7143 29.5227 34.9181 29.8441 34.8711 30.1812C34.8319 30.4634 34.3067 31.8823 34.142 32.1174C33.9696 32.3683 32.488 33.1679 32.3625 33.0425C32.3233 31.3414 33.6247 30.2047 34.1969 28.7152C34.1734 28.5898 33.6403 28.4174 33.5933 28.4566C33.5306 28.5036 33.0446 29.6795 32.8878 29.8519L32.3625 30.5966C31.8687 29.5854 32.5428 28.9739 32.7702 28.0489C32.5977 28.0959 32.339 27.9392 32.2214 27.9627C32.049 28.0019 31.5865 29.3032 31.5551 29.5384C31.4689 30.338 31.9706 30.8867 31.9627 31.459C31.9471 32.1175 31.2572 34.5241 30.9593 35.1512C30.8025 35.4726 29.172 37.8087 28.9995 37.8949C28.8271 37.9812 28.294 37.6206 28.0118 37.5578C27.7766 37.503 27.4474 37.5892 27.2671 37.4873C27.0084 37.3384 26.7183 35.8881 26.7654 35.551C26.8359 35.0807 27.7217 32.6505 27.9648 32.1566C28.4429 31.1767 29.7521 31.4119 30.4341 30.6437C30.9436 30.0714 30.7398 29.1856 30.9593 28.6212C31.0299 28.433 31.4297 28.3782 31.4297 27.9705C31.4297 27.461 30.4419 27.6726 30.1284 27.6334C29.9716 28.0332 30.3244 28.4095 30.3322 28.6917C30.3322 28.9504 30.1754 29.7108 30.05 29.9538C29.7991 30.432 29.1014 30.675 28.5997 30.8005C29.0152 29.7343 29.4934 28.8407 29.3131 27.6413H28.5997C29.0466 28.9739 27.9883 29.8833 27.7845 31.1062C27.5101 31.3649 27.0476 29.8049 27.0162 29.6795C26.8673 29.068 26.8594 28.676 26.9692 28.0489C26.7889 27.9627 25.7933 28.2998 25.7463 28.3625C25.5268 28.6996 26.1931 28.825 26.2323 28.8877C26.2715 28.9504 26.444 30.0949 26.5302 30.3772C26.6713 30.824 27.2279 31.7647 27.2436 32.1018C27.2671 32.5173 26.4675 34.1713 26.3028 34.6887L24.4136 29.1778C24.0922 29.1778 23.7943 29.2718 23.7943 29.6324C23.7943 29.9617 24.6566 31.796 24.5155 31.9293C24.1236 31.8588 23.3396 31.7177 23.0104 31.5452C22.7674 31.4198 22.7125 31.0748 22.3989 31.0278C21.9599 30.9573 21.5758 31.5138 21.7326 31.898C21.9678 32.4781 22.4068 32.1096 22.8066 32.1488C23.0261 32.1723 24.8212 32.8622 24.931 32.9954L26.5615 37.7381C26.3342 37.7852 26.099 37.9341 25.8952 37.7381L23.3945 35.0336C23.222 34.7828 23.3632 34.4379 23.1672 34.187C22.9869 33.9597 22.5636 33.991 22.3284 33.8578C21.9756 33.6539 21.325 32.5329 21.0976 32.431C20.8468 32.3213 20.6194 32.7916 20.6586 32.9641C20.7057 33.1601 22.0462 34.2105 21.8737 34.3595C21.4504 34.5476 20.0785 33.9205 19.8904 33.944C19.8434 33.944 19.3495 34.7279 19.6944 34.7514C20.251 34.822 21.1839 34.8298 21.6934 34.9944C21.9207 35.065 22.0305 35.4021 22.2421 35.4648C22.4773 35.5275 22.7909 35.4177 22.9869 35.5353L25.3857 38.3496C25.5111 38.4515 25.1583 39.3138 25.1191 39.353C24.978 39.4706 22.8301 39.0708 22.5165 38.9689C22.0227 38.8121 21.8972 38.671 21.5837 38.2712C21.3563 37.989 20.7057 36.915 20.5959 36.6015C20.5175 36.3741 20.7527 36.1076 20.5959 35.794C20.4313 35.4491 19.8669 35.4021 19.6395 35.7548C19.2711 36.3193 19.8512 36.4525 20.0785 36.821C20.2745 37.1267 20.69 37.9341 20.8625 38.2869C20.9252 38.4123 20.9957 38.4986 20.9565 38.6475C19.6631 38.8121 19.3965 37.0013 18.3696 36.5152C17.5151 37.1972 18.934 37.6441 19.0202 38.3418C18.1814 38.3888 17.1232 37.6206 16.5744 38.4986C16.5744 38.7337 19.3652 39.1335 19.7336 39.1649C19.8669 39.2825 18.887 40.2153 18.6361 40.2702C18.1344 40.38 17.084 39.8391 16.6371 39.5568C16.4411 39.4314 16.1981 39.063 16.01 39.063C15.9473 39.063 15.3515 39.502 15.3437 39.5412C15.1869 40.3172 16.1197 40.0899 16.5823 40.231C17.1075 40.3878 17.8208 41.0071 18.4558 40.9914C19.5298 40.9679 20.2196 39.3687 20.7841 39.3844C21.2936 39.6274 24.8918 40.0272 25.0407 40.1918C25.0721 40.231 25.174 41.109 25.127 41.1796C23.5591 42.1595 22.0932 43.3353 20.5018 44.2604C19.9766 43.9546 19.2711 44.4877 18.8791 44.4642C18.691 44.4563 16.5587 43.2726 16.3628 43.0923C15.8375 42.5906 15.7513 41.5637 15.0379 41.0541C14.4657 40.6465 13.6818 40.4505 13.3133 41.2031C14.301 41.2266 15.0771 41.7753 15.3515 42.7317C15.2966 42.7787 14.011 42.5749 13.9012 42.5279C13.6504 42.4181 13.8307 42.0105 13.0781 42.1438C12.4118 42.2614 12.4353 43.6254 13.4623 43.4451C13.6974 43.4059 13.7523 43.1629 13.9483 43.1629C14.3402 43.155 15.4769 43.4372 15.861 43.594C16.1041 43.6959 18.1187 44.8169 18.205 44.9188C18.3382 45.0756 18.2677 45.5381 18.1579 45.6871C18.0325 45.8517 16.3628 45.8047 16.01 45.789C15.3358 45.7733 14.5989 45.6087 13.8934 45.6636C12.9605 44.8326 12.3569 43.7273 11.0243 43.4294C10.3815 44.2525 11.2751 44.1506 11.8317 44.5582C12.0277 44.7072 12.7724 45.4362 12.9057 45.6244C12.9684 45.7106 13.0468 45.7263 13.0076 45.8831C12.5607 45.8752 11.6749 46.4005 11.3222 46.3848C11.1419 46.3769 11.0008 46.1574 10.7969 46.1026C9.44075 45.7812 9.3702 47.7723 10.6088 47.7253C11.3065 47.6939 11.2594 47.1295 11.4397 46.9962C11.769 46.7611 13.2428 46.6435 13.7131 46.3377C14.4265 46.5729 17.7189 46.181 18.1109 46.4396C18.205 46.5024 18.4166 47.1765 18.3617 47.3098C17.6092 47.8037 16.4176 49.4577 15.6729 49.7321C15.4377 49.8183 13.4309 50.0535 13.1957 50.0222C12.7567 49.9594 11.7925 49.3558 11.2908 49.1755C11.0007 49.0736 9.90326 48.7052 9.6916 48.7601C9.45643 48.8149 9.53482 49.2774 9.52698 49.4577C9.94246 49.2696 12.5843 50.3671 12.5843 50.5317C12.1453 51.0883 11.7141 51.7154 11.1575 52.1701C10.648 52.5856 10.0992 52.4053 10.5461 53.2362C10.6715 53.3303 11.6122 52.711 11.769 52.5777C12.2707 52.1623 12.9527 50.9393 13.3055 50.7512C13.7445 50.5082 14.6225 50.6023 15.132 50.4925C15.1634 50.8218 14.9909 51.1118 14.8733 51.4097C14.3794 52.6953 13.9013 53.832 12.5216 54.3651C12.2001 54.4905 11.9023 54.4121 11.6671 54.6316C11.8631 54.8119 12.0042 55.1568 12.2237 55.2979C12.7019 55.6037 12.498 55.2195 12.7332 54.9844C13.1487 54.5532 13.9796 54.4827 14.5676 53.6595C15.1555 52.8364 15.4691 51.0883 15.9943 50.3984C16.253 50.0692 17.0291 49.5596 17.3819 49.2304C17.6641 48.9717 18.6048 47.8899 18.8086 47.7958C19.0359 47.6939 19.4828 47.8585 19.373 48.1564L16.8409 55.6272C16.5901 56.0191 15.7278 55.9486 15.2966 56.223C15.0693 56.3719 14.5833 56.9755 14.9909 57.1088C15.5161 57.2812 15.4064 56.905 15.6964 56.7247C15.814 56.6541 16.496 56.4581 16.5509 56.513C16.5744 56.7011 16.1746 57.4537 16.2452 57.5321C16.2687 57.5556 16.9272 57.6575 16.9585 57.634C17.084 57.5243 17.7346 54.7414 18.0325 54.3729C18.1579 54.5532 18.5029 54.7649 18.5969 54.9295C18.7302 55.1647 18.7459 56.466 18.691 56.7717C18.6361 57.0539 18.3617 57.1088 18.3069 57.3048C18.2755 57.4067 18.2598 57.8222 18.2834 57.8457C18.3304 57.9005 19.5611 57.7908 19.6082 57.7438C19.6552 57.6889 19.5925 57.2656 19.5455 57.1558C19.4749 56.9912 19.3103 57.0461 19.3103 57.0304V55.6037C19.6866 55.7134 20.3294 56.2543 20.5332 56.5679C20.8938 57.1245 20.5489 57.6497 21.4504 57.3361C21.325 55.4155 19.1378 55.0863 18.2834 53.6125L20.0707 48.0545C21.7953 47.8742 22.4695 45.9615 21.2466 44.7385C21.811 44.4328 25.4013 41.6969 25.6679 41.744C25.7306 41.7518 26.3577 42.2065 26.2323 42.3711L24.6645 47.545C23.6218 48.2583 22.689 49.2382 21.7091 49.9908C21.2936 50.3122 21.0663 50.3122 20.7057 50.516C19.8904 50.9707 20.5254 52.0682 21.3563 51.6762C21.6699 51.5273 21.5993 50.9942 21.811 50.6963C21.9756 50.4612 23.7159 49.1128 24.0608 48.8698C24.1471 48.8149 24.3195 48.6581 24.4136 48.713C23.9511 49.7791 23.9041 51.4097 23.4259 52.4131C23.324 52.6248 22.9163 52.515 22.8066 53.0167C22.6811 53.5733 23.0104 53.7144 22.9869 54.1064C22.9869 54.2161 22.7203 55.0236 22.6655 55.1176C22.5165 55.3606 22.1324 55.4312 22.0148 55.7996C21.7169 56.7403 22.8928 57.0696 23.2769 56.3405C23.5043 55.9094 23.1985 55.7526 23.222 55.3685C23.2299 55.2117 23.4494 54.4905 23.5278 54.3416C23.7238 53.9888 24.296 54.028 24.4058 53.4792C24.5155 52.9619 24.1157 52.8521 24.1236 52.4993C24.1236 52.2798 24.6723 50.32 24.782 50.2887C24.9388 50.3906 25.9422 50.9002 25.9579 50.9707C26.0677 51.4097 25.5033 52.515 25.4405 53.0951C25.4092 53.393 25.5033 55.149 25.6444 55.2823C25.7227 55.3606 26.2088 55.2117 26.3577 55.1803C25.8247 53.8869 26.0912 52.758 26.5615 51.5116C27.2122 51.7154 27.2749 52.6169 27.1652 53.1892C27.126 53.4087 26.9221 53.5341 26.8829 53.7223C26.7105 54.4827 27.7217 54.757 27.9961 54.1142C28.1921 53.6674 27.8472 53.5184 27.7845 53.1814C27.7217 52.8443 27.8237 52.4131 27.7845 52.0603C27.6669 51.0413 25.7384 50.0849 24.9232 49.5988L27.0397 42.4181C27.2906 42.473 28.0275 42.3398 28.1764 42.4417C28.3175 42.5279 29.4307 44.9816 29.6188 45.3422C28.7487 47.1844 28.4821 48.6738 28.8349 50.7042C28.9603 51.4254 29.5483 52.5385 29.5875 52.9932C29.6188 53.2989 29.0779 54.4278 29.2112 54.5611C29.3523 54.5375 29.7443 54.6081 29.8148 54.5532C29.8697 54.5062 30.2224 53.1892 30.2224 53.0716C30.2303 52.6718 29.7051 51.5116 29.5875 50.9707C29.3131 49.7635 29.1955 48.7757 29.5169 47.5685C29.5561 47.4195 29.9559 46.079 30.2303 46.2985C30.3636 46.8551 31.0142 47.5136 31.0534 48.0859C31.1004 48.8384 30.779 49.9594 30.7398 50.7355C30.6693 52.2955 32.096 52.6561 32.4253 53.7379C32.5507 54.1299 32.2606 54.4435 32.4174 54.757C32.6604 55.2509 33.6247 55.102 33.3895 54.2161C33.366 54.1221 33.17 54.1064 33.0994 53.9731C32.9348 53.6439 32.8799 53.2597 32.6526 52.8835C32.3704 52.421 31.4297 51.5508 31.3591 51.104C31.3121 50.8139 31.4924 49.4969 31.5473 49.0893C31.6178 48.5249 32.049 49.6616 32.143 49.8183C32.6056 50.6179 33.6247 51.982 33.8677 52.7816C33.9304 52.9932 34.1656 53.7301 34.1891 53.8869C34.3615 54.7649 33.9069 54.7257 33.6874 55.4077C34.048 55.6037 34.6986 56.1289 34.9573 55.5645C35.1376 55.1647 34.8632 55.0784 34.8084 54.7962C34.6359 53.9339 34.8946 54.2475 35.3179 54.0907C36.0862 53.8085 36.3997 52.9697 35.8823 52.2955C35.3101 51.5508 34.5026 52.0995 34.2439 51.9036C33.7893 51.5586 33.0367 49.7478 32.6683 49.1912C33.7736 49.5283 35.0122 49.638 35.9843 50.2652C36.8544 50.3906 36.8544 49.2539 36.1646 49.1598C35.9294 49.1285 35.6628 49.2696 35.2944 49.2226C34.3223 49.0893 33.1151 48.4151 32.1117 48.2191L28.9368 42.3084C28.7565 42.0654 29.368 41.501 29.5561 41.4931C29.7443 41.4853 32.7153 43.1785 32.8172 43.3353C33.0759 43.743 33.2954 45.0913 33.5384 45.6714C33.7187 46.1026 34.1342 46.5337 34.2439 46.8003C34.3537 47.0668 34.2361 47.4509 34.5105 47.6547C34.9495 47.984 35.6001 47.5607 35.5296 47.0589C35.4747 46.6748 34.9965 46.5964 34.7613 46.3926C34.2753 45.9771 33.8833 44.6915 33.7971 44.0487C33.8677 43.9703 35.2474 44.7856 35.3336 44.911C35.5374 45.2011 35.3336 45.7576 35.7412 46.032C36.2821 46.4005 36.5644 45.9536 36.8622 46.032C36.9955 46.0634 38.4928 47.0276 38.5477 47.1138C38.6731 47.3255 38.5712 48.0545 38.7828 48.3759C38.3438 49.0109 37.3404 49.9281 37.3639 50.7355C37.3875 51.4724 38.6339 52.5464 38.579 52.8599C37.9519 53.7693 37.0739 54.3102 36.7917 55.4547C36.6192 56.1446 36.3684 57.1793 37.3718 57.1088C37.3169 56.074 37.3404 55.345 37.9832 54.514C38.1243 54.3259 39.0259 53.3695 39.2062 53.542C39.1513 54.4121 39.3316 55.3528 39.1042 56.1916C38.8142 56.4895 38.6731 56.7325 38.6888 57.1637C38.7044 57.7516 38.8377 57.5007 39.1042 57.6183C39.2218 57.6732 39.3081 57.783 39.4805 57.7986C40.0606 57.8613 40.0685 57.2107 39.9195 56.7952C39.8882 56.7011 39.8333 56.6384 39.8176 56.5914C39.8019 56.5522 39.7235 56.513 39.7157 56.4895C39.6608 56.223 39.8098 55.9799 39.8176 55.7761L39.849 55.784Z" fill="#003366"/>
<path d="M39.9507 56.8033L39.8487 56.5992C39.8644 56.6463 39.9193 56.7091 39.9507 56.8033Z" fill="#003366"/>
<path d="M19.8353 2.05414C23.6687 1.53676 25.5971 4.99384 26.4046 8.18439C26.9141 10.1991 27.604 13.1388 27.894 15.1613C29.2972 24.9289 17.2484 27.9862 13.4934 19.1593C11.8158 15.2083 12.4273 10.5597 14.442 6.85173C15.4767 4.93897 17.5228 2.36771 19.8353 2.05414ZM18.0245 10.9046C17.9539 10.6459 17.7971 10.2147 17.8363 9.96389L18.9338 6.69494C19.6394 6.29515 20.7055 6.25595 21.0582 5.43283C21.2777 4.93113 21.1837 4.45294 21.3013 4.0453C21.3483 3.87284 21.5756 3.79444 21.6383 3.66902C22.0538 2.79103 20.337 2.64992 20.5879 3.59063C20.6192 3.69253 20.7525 3.78661 20.7682 3.92771C20.8152 4.34319 20.5879 5.24469 20.2116 5.50339C20.1019 5.58178 19.1455 6.09133 19.2474 5.76208C19.3179 5.53474 19.6002 5.17414 19.7021 4.89193C19.9529 4.20992 20.0391 3.78661 19.8588 3.05756C19.0279 3.05756 19.4591 3.74741 19.3023 4.39022C19.1847 4.89193 18.6124 5.51907 18.6281 6.11484C18.4556 6.27947 18.2126 5.69937 18.1734 5.6053C17.9853 5.15062 17.9696 4.64108 17.8128 4.17856C17.1386 4.31967 17.3581 4.79002 17.4757 5.27605C17.5933 5.76208 18.095 6.59303 18.1264 6.98499C18.1734 7.65133 17.5933 8.38821 17.609 9.07806C17.3738 9.11725 17.4444 9.06238 17.3817 8.94479C17.1308 8.49796 16.4958 6.1462 16.2293 6.01293C15.9863 5.89535 15.7746 6.73414 15.9784 6.93012C15.6962 6.7655 15.4297 6.87525 15.3827 7.20449C15.3356 7.51022 16.1196 7.4867 16.3312 7.75323C16.5899 8.07464 17.1935 10.1677 17.3581 10.7086C17.3895 10.8105 17.5071 10.8811 17.5149 10.9046C17.6247 11.273 17.9069 12.1981 17.2092 11.8766C16.684 11.0692 15.6649 10.301 15.171 9.53273C15.0534 9.35243 14.8888 8.49012 14.5596 8.76449C14.5125 8.80369 14.2773 9.72871 14.2538 9.88549L14.8261 9.97956C15.0534 10.5205 16.731 11.9864 16.7937 12.4097C16.8094 12.5351 16.5899 13.1544 16.5037 13.2093C16.441 13.2563 15.8217 13.178 15.6806 13.1466C14.9907 13.0212 14.246 12.7468 13.5405 12.637C13.5718 12.7938 13.4856 13.2642 13.5483 13.3426C13.611 13.421 15.2886 13.6013 15.5787 13.6561C16.4018 13.8208 16.5664 13.7032 16.5899 14.6596L13.7678 16.5331C13.6972 16.6507 13.7678 17.3249 14.003 17.223L16.88 15.0907C17.3503 15.3416 17.4993 15.3651 17.3973 15.9217C17.2798 16.5645 16.5429 19.2612 16.2999 19.7942C16.2293 19.9353 15.5238 20.3587 15.5003 20.3978C15.3592 20.633 15.657 21.1582 15.9941 20.6879C15.8295 21.1739 15.9941 21.3464 16.4018 21.6051L18.095 15.6865C18.3772 15.7257 18.7849 15.6003 19.0044 15.7962C19.0984 15.8746 20.0391 17.8423 20.0548 18.0147C20.1097 18.5086 19.5374 19.4179 19.4042 19.9745C19.2552 20.6095 19.2944 21.3072 19.3728 21.9578C19.3963 22.1538 19.6002 23.2827 19.6785 23.3375C19.7726 23.4003 20.0391 23.3375 20.1724 23.3532C19.8745 21.7775 19.6158 20.3195 20.4781 18.8692L21.1915 20.194C21.4032 20.6879 21.1288 21.3464 21.0896 21.8795C21.0504 22.4125 21.1131 22.9377 21.0896 23.463H21.5443L21.7089 21.221L22.6731 22.9534L23.2375 23.0553C23.4257 22.8672 22.6496 21.6678 22.5242 21.4248C22.6261 21.3464 24.0998 21.997 24.4213 22.0284C24.8916 22.0754 25.3698 21.7462 24.8132 21.5267C24.0998 21.2445 22.9632 21.0955 22.289 20.6879C22.1009 20.5703 21.9206 20.2254 21.8108 20.2019C21.85 20.0686 21.7403 19.9824 21.7089 19.8961C21.607 19.6061 21.5051 19.5042 21.4032 19.2847C20.8387 18.101 20.2508 16.9251 19.6864 15.7414C19.655 15.2397 19.9843 15.0202 20.4625 15.1848C20.6349 15.2475 22.6182 16.3607 22.7045 16.4547C22.8848 16.6507 23.2375 18.1245 23.4257 18.54C23.5825 18.8927 23.9274 19.2141 24.0058 19.3944C24.1469 19.708 23.9509 20.2332 24.4369 20.2881C24.923 20.343 25.2836 19.7707 24.8759 19.4336C24.7191 19.3004 24.5153 19.3004 24.3664 19.1279C24.1782 18.8927 23.4884 17.3484 23.6452 17.1524C23.8412 17.3092 24.7583 17.7639 24.8446 17.8971C24.9778 18.101 24.8759 18.6497 25.2836 18.8378C25.6912 19.026 25.9891 18.7516 26.2321 18.8065C26.4046 18.8457 26.4751 19.1514 26.7103 19.0965C26.7495 18.7673 26.726 18.54 26.5065 18.2813C26.9455 18.3597 26.8044 18.1323 26.8122 17.7717C26.2791 18.0226 26.2321 17.6149 25.9029 17.513C25.409 17.3562 24.7819 17.513 24.4683 16.8545C24.8054 16.6586 26.922 16.635 27.016 16.5488C27.0552 16.5096 26.9847 15.7022 27.016 15.5297C26.6633 15.5846 26.7417 15.8903 26.3105 15.9922C25.5423 16.1725 24.5075 16.1255 23.7157 16.3136L20.3919 14.5028L20.5017 13.2955C21.8735 13.0212 23.2767 12.0569 24.5937 11.7199C25.4874 11.4925 25.4717 12.1432 26.2086 12.3627C26.3105 11.8218 26.0596 11.618 25.699 11.2887C25.6363 11.0143 25.9499 11.1868 26.0048 11.1319C26.0832 11.0457 25.8872 10.5753 25.9029 10.4186C25.8166 10.3402 24.578 11.2338 24.2723 11.1319C24.6486 10.497 24.6564 9.73655 24.9073 9.06238C25.0954 8.56067 25.5031 8.41173 25.3463 7.86298C25.3228 7.76891 25.2992 7.58077 25.1425 7.65916C25.0719 7.69836 24.5467 8.41173 24.4918 8.53715C24.241 9.07806 24.1782 9.83846 23.9431 10.4421C23.4962 11.5866 23.2767 11.5317 22.2341 11.9942C21.5835 12.2764 20.8779 12.5587 20.1959 12.7625C19.9686 12.5273 21.5364 10.6773 21.7403 10.2853C21.9284 9.91685 22.1479 8.99183 22.3282 8.75665C22.3987 8.66258 23.849 8.18439 24.1704 7.91786C24.6721 7.51806 25.1895 6.37354 24.484 5.93454C24.2253 6.96932 23.7079 7.86298 22.5477 7.97273C22.4928 7.91786 22.7045 6.56168 22.7515 6.44409C22.8377 6.20108 23.5746 5.40932 23.7157 5.00952C23.849 4.63324 23.5825 4.13937 23.363 4.30399C23.3081 4.34319 22.8926 5.32309 22.775 5.49555C22.4693 5.97374 22.4223 5.01736 22.4536 4.7665C22.5085 4.28047 23.2062 3.61414 22.4771 3.49656C22.2028 3.44952 21.8343 4.71163 21.8343 4.97032C21.8186 5.53474 22.1714 5.90319 22.242 6.24027C22.3752 6.84389 21.3875 9.72871 21.0034 10.3558C20.8858 10.544 19.9529 11.7826 19.8588 11.861C19.5218 12.1118 18.7457 11.5788 18.2753 11.7512C18.3145 11.4455 18.1421 11.2025 18.0715 10.9359L18.0245 10.9046ZM17.9226 22.7339C18.1107 22.5458 16.731 21.6913 16.4958 21.7148C16.4566 21.9422 16.8094 22.0833 16.974 22.2087C17.0995 22.3028 17.8363 22.828 17.9226 22.7339ZM18.0715 22.7339V22.8358C18.1342 22.8045 18.1342 22.7653 18.0715 22.7339Z" fill="#003366"/>
<path d="M18.0718 22.7339C18.1351 22.7656 18.1351 22.8052 18.0718 22.8368V22.7339Z" fill="#003366"/>
<path d="M37.7873 2.05416C40.3664 1.70924 42.185 3.04974 43.6667 4.99386C46.9591 9.31325 48.0409 16.1098 44.9131 20.8055C40.8054 26.9593 31.6962 24.7251 31.2807 17.27C31.1631 15.1221 32.4096 10.0188 33.021 7.79245C33.6325 5.56612 35.2003 2.40693 37.7873 2.05416ZM34.0401 20.0843C34.0401 20.3038 34.048 20.4841 33.9931 20.7036C33.8912 21.1269 33.4522 21.2915 34.1734 21.6129C34.9808 20.782 34.2361 19.6767 35.8667 19.5748V21.3621C35.8667 21.4405 35.4355 21.5737 35.3728 21.7932C35.0749 22.7496 36.337 22.8907 36.5408 22.2322C36.6349 21.9265 36.384 21.7697 36.3684 21.464C36.3605 21.2523 36.4781 21.0485 36.4781 20.8525C36.486 19.7472 36.3448 18.8849 37.2464 18.0539C37.5678 18.5792 38.6496 19.4493 38.7201 20.0529C38.7515 20.3273 38.2655 22.3812 38.14 22.7261C38.0303 23.024 37.7637 23.1416 37.8029 23.463H38.9239C38.728 23.1259 38.9867 21.0564 39.1278 20.9153C39.3786 20.6566 39.3473 21.5267 39.5981 21.6208C39.9744 21.754 40.4056 21.4248 40.2017 21.0172C40.1547 20.9231 39.7079 20.6174 39.5354 20.3508C39.3159 20.0137 39.2062 19.5434 38.9631 19.1828C38.7436 18.8457 37.6383 17.7639 37.6148 17.4817C37.7089 17.1446 38.5712 15.5689 38.7828 15.5219C38.8377 15.5062 39.653 15.5689 39.6843 15.6081C39.8019 15.7335 40.4447 17.5758 40.5075 17.858C40.6486 18.4929 40.2409 18.1951 40.092 18.6732C39.7706 19.6923 40.4839 19.6218 40.6564 19.9824C40.8602 20.4214 40.7034 21.2602 40.7897 21.7619C40.8524 22.146 41.166 22.4517 41.1738 22.8594C42.1067 22.7339 41.4952 21.9892 41.4246 21.4326C41.3933 21.2131 41.3698 20.586 41.3698 20.3587C41.3698 20.0686 41.3698 19.8726 41.6363 19.6923L42.4437 20.7193C42.6632 20.9153 42.5221 21.7854 42.7651 21.8324C43.259 21.9265 43.1885 20.9623 43.2277 20.9153C43.2512 20.8917 43.7607 20.9309 43.8862 20.7114C44.2468 20.0921 43.4393 20.3665 43.0709 20.296C42.6711 20.2176 42.0439 19.0809 41.7931 18.7203C41.6677 18.5321 41.4246 18.4067 41.2992 18.1951C41.1738 17.9834 40.3742 15.6316 40.3664 15.4435C40.3664 15.2946 40.6878 14.9026 40.7426 14.8948C40.97 14.8556 42.4673 15.5768 42.6162 15.7571C42.7965 15.9844 42.969 16.737 43.1336 17.074C43.259 17.3249 44.0978 18.9163 44.184 18.9868C44.6466 19.3553 45.2345 18.7516 44.866 18.3048C44.6936 18.0931 44.3408 18.2342 44.1919 18.0618C44.0743 17.9285 43.4472 16.3372 43.5334 16.2274C43.9175 16.3058 45.211 17.2935 45.4775 17.1054C45.5873 17.027 45.6265 16.6586 45.5559 16.5488C45.501 16.4704 44.0351 15.8825 43.8391 15.6708C44.4035 15.2475 45.0777 15.028 45.7754 15.2083V14.495C45.4305 14.15 43.5255 15.224 43.0866 15.1848C42.9141 15.1691 41.1268 14.2441 41.0954 14.1344C41.0719 14.0403 41.1895 13.8051 41.1895 13.6326C41.1895 13.4523 41.0484 13.1858 41.1189 13.0682C41.1738 12.9742 42.9376 12.1824 43.0866 12.1667C43.4628 12.1354 45.454 13.178 45.6578 12.9663C45.9479 12.0883 44.4349 12.2608 44.1292 11.9472C43.9881 11.7983 44.1684 11.7669 44.2624 11.7199C44.4584 11.6101 45.4148 11.375 45.454 11.3279C45.501 11.273 45.3834 10.74 45.3521 10.7243C45.2658 10.6616 43.698 11.3279 43.4158 11.3358C43.3139 11.2495 44.8269 9.28189 44.8347 9.14863C44.8347 9.03104 44.6779 8.58421 44.5838 8.58421C44.2859 8.74099 44.0508 9.65034 43.7764 9.28973C43.6823 9.16431 43.4001 8.18441 43.408 8.01195C43.4236 7.61215 43.9175 7.48672 43.5647 7.04773C43.2747 6.69496 42.7024 6.742 42.6162 7.22019C42.5457 7.61999 42.8122 7.60431 42.8827 7.83164C42.9376 8.01195 42.8906 8.2628 42.9454 8.4823C43.0317 8.79587 43.4236 9.88551 43.4158 10.058C43.408 10.2304 42.6789 11.469 42.53 11.6258C42.4202 11.7434 41.0013 12.4411 40.8994 12.4568C40.6878 12.4724 40.0606 12.0099 40.0371 11.7826C39.9979 11.4063 41.0092 9.39948 41.1189 8.67828C41.1895 8.20793 41.0954 6.82823 41.2914 6.55386C41.4638 6.31868 43.1258 5.84833 42.7887 5.31526C42.4986 4.86059 41.5814 5.96592 41.166 5.91888C41.1189 5.182 41.8009 3.95125 40.8602 3.67687C40.8053 4.12371 40.6956 4.60974 40.6564 5.05657C40.5388 6.36572 40.7662 8.42742 40.2566 9.55627C40.2017 9.67385 40.3036 9.73657 40.0449 9.69737C39.9509 9.12511 39.0102 8.05114 38.9396 7.58079C38.8926 7.26722 39.4805 6.49898 39.41 5.99727C39.3394 5.49557 38.6339 4.99386 38.6104 4.64109C38.5869 4.18642 39.8098 3.52009 39.7314 3.12029C39.7 2.96351 39.2767 2.90863 39.1356 2.98703C39.0337 3.0419 38.5006 3.88069 38.2498 3.9826C38.046 4.06883 38.1008 3.85718 38.1087 3.73959C38.1322 3.39466 38.4458 2.77537 37.8578 2.97919C37.654 3.04974 37.5913 3.52793 37.5834 3.73175C37.5364 5.07225 39.5119 5.68371 38.4536 7.04773C38.3438 7.07124 37.607 6.42059 37.5051 6.26381C37.3796 6.08351 36.6741 4.6019 36.6192 4.39808C36.5565 4.15506 36.5643 3.92773 36.5722 3.68471C36.4468 3.54361 35.7804 4.35104 35.655 4.45295C35.5688 4.66461 35.9921 4.55486 36.2116 4.81356C36.5957 5.26823 36.7133 6.23245 37.1366 6.742C37.411 7.07124 37.9362 7.31426 38.2419 7.67486C38.4693 7.94139 39.8254 10.3559 39.8254 10.5754C39.8254 10.6381 39.457 11.6964 39.41 11.7356C39.3708 11.7669 38.4458 11.8688 38.3595 11.8531C38.1949 11.8296 36.5095 10.1834 36.4938 10.058C36.4703 9.94039 36.5879 9.77576 36.5565 9.58762C36.5173 9.36813 36.29 9.17998 36.2586 8.85074C36.2273 8.49798 36.3762 8.2236 36.3449 7.863C36.2978 7.36913 35.9529 7.11044 35.8745 6.78903C35.8118 6.50682 35.9607 6.04431 35.6472 5.88753C35.2238 5.67587 34.9024 5.95808 34.9181 6.39707C34.9416 6.86742 35.3022 6.72632 35.4825 6.96149C35.7961 7.37697 35.8118 8.41174 35.6393 8.89777C35.4669 9.0232 34.5026 7.40833 34.4242 7.32994C34.1028 7.03205 33.9617 7.65134 34.0245 7.9022C34.0793 8.1217 35.3179 9.33677 35.1298 9.50923C34.5732 9.55627 34.142 9.54059 33.7501 9.10159C33.2484 9.77576 34.0009 10.0266 34.581 10.0815C34.7378 10.0972 34.9181 9.98742 35.0592 10.0109C35.1455 10.0266 35.2082 10.348 35.459 10.4499C35.6942 10.544 35.9372 10.4891 36.1489 10.5754C36.3135 10.6459 37.7951 12.2765 37.7716 12.3941C37.7559 12.4646 37.4737 12.739 37.411 12.8722C36.7603 12.5744 35.7099 12.6057 35.0984 12.3313C34.6046 12.1118 34.1342 10.8654 33.2876 10.9281C33.0916 11.6258 33.2405 11.3279 33.6482 11.6415C33.7266 11.6964 34.1107 12.057 34.0009 12.151H32.9818V12.6606L34.1028 12.8095C33.8755 13.0212 33.5855 13.2956 33.3268 13.4602C32.9505 13.6954 32.4958 13.5072 32.5742 14.2911C33.4757 14.4714 34.5654 12.9663 35.169 12.9663C35.3258 12.9663 37.0739 13.3661 37.1601 13.4288C37.3326 13.5543 37.4188 14.2363 37.3718 14.4322C37.3483 14.542 35.5374 15.5454 35.4355 15.5768C35.1219 15.663 34.4243 15.1221 33.7579 15.2162C33.6168 15.2397 32.2685 15.953 32.2136 16.0236C32.1352 16.1333 32.049 16.6821 32.3155 16.6429C32.6918 16.588 33.4365 15.9138 33.8677 15.8433C34.2048 15.7884 34.4791 16.0471 34.8084 16.0314C34.8789 16.102 34.3772 16.6978 34.2988 16.7918C33.9617 17.1838 33.1935 18.0539 32.7702 18.2264C32.6448 18.2813 32.3782 18.2578 32.3625 18.2734C32.292 18.344 32.4801 18.8379 32.4645 18.9868C33.9774 18.6968 34.6751 16.9094 35.7334 16.0863C35.9059 15.953 37.411 15.0515 37.5364 15.0202C37.7324 14.981 38.0303 15.0751 38.0616 15.271C38.093 15.467 36.2037 18.2499 36.0313 18.7281C35.7491 19.026 34.4478 19.4415 33.9853 19.5904C33.852 19.6375 33.0132 19.6923 32.9583 19.951C32.8486 20.5468 33.6795 20.194 33.9853 20.1L34.0401 20.0843Z" fill="#003366"/>
<path d="M53.7008 16.6429C55.3391 16.5175 56.7502 17.5679 57.6203 18.8849C60.8971 23.8236 59.4077 34.2968 52.9247 35.9665C47.9625 37.2443 44.4505 33.0033 44.7406 28.2919C44.9444 24.9916 46.6063 23.3924 48.4563 20.9936C49.9066 19.1122 50.9727 16.8546 53.7008 16.6507V16.6429ZM56.3739 28.3468C56.1466 28.4252 55.0021 28.6682 54.8139 28.6369C54.7277 28.6212 53.3166 27.7667 53.3088 27.6726C53.3088 27.6178 53.4969 26.6692 53.5283 26.6222C53.638 26.4889 56.5307 25.5561 56.8521 25.509C57.44 25.4306 57.7536 25.5717 58.3024 25.6893V24.874L56.7737 24.976C56.7737 23.9961 58.4043 24.2861 58.2004 23.2435L57.2833 23.5492C57.1422 23.416 57.8555 22.5615 57.8947 22.3733C57.9339 22.1774 57.9496 21.7149 57.6439 21.7149C57.5498 21.7149 56.8443 23.1808 56.758 23.3768C56.6013 23.7217 56.3112 24.8662 56.1387 25.0543C56.0055 25.1955 53.4891 26.0499 53.2774 26.0029C53.2069 25.9872 52.9639 25.6031 53.0501 25.4933C53.7086 24.8113 54.1084 23.2513 54.6885 22.632C54.8766 22.4361 55.2059 22.4047 55.4019 22.2244C55.6214 22.0127 55.5978 21.7305 55.7546 21.5581C55.8722 21.4405 56.3974 21.1661 56.6169 20.9936C57.0402 20.6487 57.4714 20.4449 57.1814 19.8726C56.8991 19.6845 56.0133 20.8917 55.7076 20.8996C55.5116 20.8996 55.4019 20.6409 55.2451 20.5468C55.1196 20.4684 54.8688 20.5076 54.7826 20.3979C54.7198 20.3116 54.7042 18.6184 54.7355 18.3989C54.8139 17.8737 55.2686 17.7404 54.1789 17.6385C53.2304 17.5522 53.9281 17.9756 54.0692 18.2578C54.2573 18.6105 54.3044 20.0373 54.226 20.4449C54.1868 20.6566 53.9908 20.7585 53.9124 20.9466C53.5596 21.8716 54.2338 22.146 54.2103 22.3655L52.5797 25.1719C52.4073 25.219 52.1564 25.2268 52.031 25.0857C51.9683 25.0152 51.5842 23.4081 51.5999 23.314C51.6234 23.1337 51.8429 23.0005 51.8821 22.7888C51.9369 22.4831 51.7645 22.2636 51.8585 21.9579C51.8821 21.8716 52.4386 20.7898 52.5092 20.6644C52.713 20.3352 53.2853 19.8648 53.3637 19.4807C53.4656 19.0025 53.1128 18.2421 53.105 17.7404C52.1486 17.709 52.8855 18.54 52.8071 19.222C52.7679 19.5512 52.3916 20.2489 52.2191 19.5983C52.1172 19.2142 52.0859 18.7516 52.0859 18.3518C51.0746 18.3675 51.9213 20.0294 51.8899 20.6487C51.8899 20.7898 51.5058 21.6757 51.4587 21.707C51.3882 21.754 51.153 21.7462 51.0825 21.707C50.9257 21.6129 50.5964 20.1392 50.4005 19.8883C49.5381 20.3665 50.7375 21.6678 50.5102 22.1303C50.3299 22.4909 49.6871 22.2714 49.4362 22.0833C49.2167 21.9187 49.2246 21.464 48.9424 21.8952C48.4171 22.6791 49.9615 22.7496 50.3377 22.9299C50.5024 23.0083 50.518 23.1651 50.6356 23.267C50.7219 23.3454 50.9022 23.3297 51.0119 23.4708C51.1138 23.5963 51.4195 25.1171 51.3647 25.1955C51.3412 25.2268 50.7689 25.4228 50.62 25.5247C50.4553 25.6344 50.5102 25.8539 50.3221 25.8069C50.2123 25.7834 48.4171 24.8505 48.3387 24.7721C48.1741 24.6075 47.8057 23.0162 47.4451 23.7844C47.2491 24.2077 47.837 24.6389 47.6881 24.8897C47.5313 25.1641 46.0811 25.3993 46.277 26.1283C46.7474 26.2302 47.9625 25.2817 48.2447 25.3366C48.3623 25.3601 50.0085 26.3008 50.0399 26.4027C50.0869 26.5438 49.9536 27.1082 49.8439 27.2023C49.7341 27.2964 48.668 27.5864 48.4171 27.6648C48.2447 27.7118 48.033 27.657 47.9076 27.8686C47.6175 27.8137 47.2413 27.8529 46.8885 27.7667C46.7552 27.7353 46.5357 27.4923 46.2143 27.461C45.7205 27.4218 45.744 27.6413 45.7675 28.0646C47.6646 28.2527 45.8459 28.4722 45.7126 28.6761C45.6107 28.825 45.6813 29.1072 45.6656 29.2953L46.9904 28.7858C46.959 28.9034 46.7004 29.554 46.6612 29.5854C46.5984 29.6324 46.5201 29.5854 46.473 29.6011C46.3868 29.6324 46.2065 29.554 46.1124 29.6951C45.8851 30.0401 46.0889 30.6594 46.6768 30.4164C46.716 30.4007 46.8336 30.4556 46.865 30.4085C46.9199 30.3301 46.8415 30.0166 46.9355 29.8049C46.9669 29.7265 47.8449 28.4801 47.9076 28.433C48.1271 28.2763 50.0007 27.6962 50.1496 27.8059C50.4397 28.0097 50.0869 28.433 49.9379 28.629C49.7184 28.9112 47.8684 30.8083 47.6489 30.9337C47.3197 31.1219 46.2065 31.0513 46.1595 31.4903C46.0889 32.1723 46.8963 31.4825 47.2883 31.6471C47.3432 32.4232 46.426 32.9484 47.3902 33.4815C47.6959 32.4702 47.8449 31.0748 48.9188 30.628C49.0756 31.3649 49.6165 31.9999 49.6322 32.7681C49.5146 32.8073 48.6758 34.4849 48.7542 34.6025C49.2089 35.308 49.4754 33.701 49.7812 33.4815C50.1261 33.4893 49.7812 34.0851 50.0242 34.2497C50.3456 34.4771 50.8238 34.1321 50.7297 33.7558C50.6827 33.5755 50.2593 33.3247 50.1339 32.7681C50.0947 32.6035 50.1496 32.384 50.0869 32.1488C49.8909 31.4668 49.5225 30.8553 49.3343 30.1733C49.7263 29.8363 50.4945 28.582 50.9806 28.582C51.0903 28.582 51.5607 28.6996 51.6155 28.778C51.7018 28.9034 51.6939 31.0905 51.6155 31.2316C51.4823 31.4511 51.0746 31.4119 51.0511 31.9999C51.0276 32.5329 51.4039 32.5956 51.4666 32.9171C51.4979 33.0974 51.5058 33.9126 51.4666 34.0851C51.4274 34.2576 50.9962 34.8377 50.957 35.0493C50.9178 35.261 50.9884 35.1826 51.1138 35.2061C51.7331 35.308 51.5685 34.9709 51.7802 34.4927C52.1486 34.7906 52.078 35.261 52.6973 35.1042C52.9012 34.9004 52.1878 34.14 51.984 34.0851C51.9369 33.4109 51.9291 33.0111 52.4465 32.5486C53.395 32.9954 53.7321 33.4188 53.7243 34.4927C54.4141 34.5868 54.2573 34.0616 54.1319 33.5755C54.2417 33.4736 55.1432 34.2576 55.2607 33.5207C55.2921 33.3169 55.1824 33.3796 55.0569 33.3169C54.2495 32.8935 53.3245 32.7289 52.666 31.9293C52.1486 31.2943 52.3289 30.6986 52.2975 29.9538C52.2819 29.6168 52.0545 28.9896 52.2427 28.6761C52.2897 28.5977 52.9247 28.2527 53.0579 28.2606C53.1442 28.2684 54.0065 28.8799 54.077 28.9818C54.2887 29.2797 54.2965 30.1969 54.4376 30.6594C54.5474 31.02 54.7669 31.3022 54.8923 31.6314C54.9629 31.8117 54.908 32.0234 54.955 32.1802C55.1118 32.6192 55.9898 32.5016 55.9506 31.8039C55.9192 31.2003 55.3548 31.4511 55.2294 31.2708C55.0177 30.9729 54.8296 29.8911 54.8296 29.4992C54.908 29.4051 56.6326 30.777 56.8756 30.871C56.9775 30.9102 57.0638 30.9494 57.1735 30.9259L57.2676 30.3301L55.543 29.2953C55.5116 29.0445 55.543 29.1307 55.6841 29.0837C55.8487 29.021 56.2955 28.8955 56.4601 28.8877C57.0089 28.8642 57.2676 29.2797 57.785 29.2953C58.0672 28.7388 57.5341 28.8328 57.3773 28.433C57.44 28.1508 58.318 28.3311 58.1769 27.7275C58.0515 27.1631 56.664 28.2763 56.3504 28.3782L56.3739 28.3468Z" fill="#003366"/>
<path d="M12.451 23.1024C13.6268 24.7486 14.4029 26.0107 14.5519 28.19C14.8889 32.9719 11.3221 37.2678 6.28936 35.943C-0.1231 34.2419 -1.60471 23.7138 1.71911 18.8222C3.60052 16.0549 6.62644 15.9295 8.89197 18.344C10.013 19.5434 11.4554 21.7227 12.4431 23.1024H12.451ZM6.19529 32.0155L7.26142 28.6447C7.38684 28.4957 7.76312 28.4957 7.92775 28.5977C8.33539 28.8485 9.11147 31.4276 9.04875 31.9528C9.0174 32.1958 8.3589 33.1993 8.17076 33.4344C7.94343 33.7166 6.71267 34.673 7.01056 35.0728C7.02624 35.0963 7.33197 35.1904 7.4182 35.1355C7.65338 34.9866 8.31971 33.2933 8.23348 35.1826L8.80574 35.0885C8.95468 34.8768 8.58624 34.0772 8.64112 33.7166C8.64895 33.6618 9.11147 32.7759 9.15066 32.7367C9.32312 32.5878 9.32312 32.7681 9.35448 32.8857C9.54262 33.5363 9.69157 34.2183 9.86403 34.8768L10.3657 34.7671L9.45639 30.5966C9.80915 30.7769 10.5539 30.7378 10.8282 31.0043C10.8988 31.0748 11.7219 32.6348 11.7533 32.7289C11.8238 32.9641 11.8003 33.2071 11.8003 33.4501C11.9336 33.6069 12.3491 32.9876 12.3882 32.8622C12.5058 32.4545 12.2471 32.5721 12.0825 32.3056C11.9806 32.141 11.5103 31.2003 11.5965 31.1062C12.059 31.0827 12.6313 31.6549 12.9762 31.7176C13.18 31.7568 13.2506 31.3962 13.2192 31.2708C13.1643 31.0827 12.5058 30.824 12.3099 30.7456C11.5573 30.4712 9.94242 30.2596 9.36232 29.9146C9.11147 29.7657 8.39026 28.4252 8.48433 28.2449C8.50785 28.1979 9.06443 27.4531 9.11147 27.4453C9.22905 27.4139 11.2516 27.9313 11.4554 28.0332C11.6906 28.1587 12.1687 28.9112 12.2628 29.1699C12.3177 29.3345 12.2001 29.5305 12.3099 29.703C12.5294 30.0479 13.376 29.9538 13.2427 29.2169C13.1565 28.7544 12.4196 29.021 12.5294 28.4487C12.8429 28.4879 13.8385 29.2797 13.6504 28.5036C13.5484 28.0959 12.1452 27.7432 11.7141 27.6334C11.5495 27.4531 12.4902 27.0063 12.6313 26.9671C12.8743 26.9044 13.1016 26.9122 13.3525 26.9201L13.2349 26.3243C12.7724 26.0342 11.3927 27.1866 10.8361 27.2258C10.6636 27.2415 9.56614 27.0063 9.40936 26.9357C9.18202 26.826 9.00172 26.387 9.11147 26.2145C9.1585 26.1361 10.5696 25.266 10.695 25.2425C11.1261 25.1484 12.2628 25.7128 12.8429 25.5012C12.8272 24.7878 11.9414 24.9995 11.4162 24.8897C11.3221 24.5918 12.0276 24.2861 12.0355 24.2155C12.0668 24.0274 11.8081 23.6119 11.667 23.463C11.4711 23.4159 11.2986 24.0352 11.1105 24.2312C10.8831 24.4664 8.939 25.7285 8.72735 25.6893C8.69599 25.6893 8.20996 25.3287 8.19428 25.2974C8.13941 25.2111 8.71167 23.4787 8.81358 23.3611C8.93116 23.22 9.16634 23.2435 9.30745 23.1416C9.44855 23.0397 9.48775 22.8202 9.64453 22.7653C9.79348 22.7104 10.7812 22.6791 10.695 22.2949C10.5696 21.707 9.66805 22.5066 9.41719 22.146C9.13498 21.7462 9.98946 20.7193 9.22121 20.4057C9.00956 20.3195 9.08795 20.5468 9.05659 20.6487C8.9782 20.9152 8.80574 22.0754 8.35106 21.7932C8.24132 21.7227 7.84936 20.9388 7.83368 20.7663C7.79448 20.2568 8.20996 19.5042 8.12373 19.0652C8.12373 19.0417 7.95911 18.6968 7.93559 18.6811C7.57498 18.4302 7.60634 19.8491 7.379 20.0059C6.42262 19.5199 7.59066 18.1794 6.75971 17.9677C6.55589 17.9128 6.53237 18.4067 6.51669 18.54C6.36775 20.0373 6.68132 19.7315 7.2379 20.7506C7.56714 21.3542 7.79448 22.1225 7.97478 22.7653C8.02182 22.9221 8.2178 23.0318 8.22564 23.22C8.22564 23.3219 7.67689 25.023 7.5985 25.0935C7.57498 25.1092 7.10463 25.2033 7.06544 25.1954C6.86162 25.1484 6.77539 24.6545 6.68916 24.4821C6.60292 24.3096 6.51669 24.1293 6.41478 23.9177C6.28936 23.6433 5.7171 22.5536 5.69358 22.3812C5.64654 22.0598 6.21881 21.7854 5.90524 21.0564C5.80333 20.829 5.52896 20.7428 5.47408 20.4684C5.42705 20.2176 5.44273 18.6654 5.52112 18.4851C5.62303 18.2656 6.0385 18.1402 5.87388 17.6698L4.44715 17.7717C4.36876 18.148 4.81559 18.3283 4.85479 18.5321C4.88614 18.7124 4.90966 20.4371 4.83911 20.5154C4.80775 20.5468 4.58041 20.539 4.47067 20.6017C4.21197 20.7506 4.1571 21.0015 3.82785 20.8917C3.72594 20.8604 2.98906 20.2724 2.91067 20.1705C2.78524 20.0059 2.66765 19.5355 2.5579 19.5042C2.43248 19.4728 1.94645 20.2176 1.99348 20.3665C2.47951 20.6801 3.43589 21.2053 3.82785 21.6051C4.03951 21.8168 4.08655 22.1617 4.39227 22.3655C4.65881 22.538 5.05861 22.5223 5.20755 22.6712C5.28594 22.7496 6.02283 24.4586 6.12473 24.7173C6.19529 24.8976 6.39911 25.3757 6.33639 25.5325C6.30504 25.6109 5.90524 26.0499 5.81901 26.0578C5.61519 26.0813 4.32172 25.752 4.18062 25.6423C3.92976 25.4541 3.45941 24.0901 3.27127 23.6982C3.14584 23.4395 2.82444 23.1416 2.76172 22.9848C2.62846 22.6634 2.82444 22.1617 2.24434 22.1617C1.7975 22.1617 1.72695 22.5223 1.82886 22.8907C1.92293 23.2278 2.18162 23.0867 2.36976 23.22C2.40896 23.2513 2.84011 23.9804 2.80876 24.0039C2.14243 24.1372 1.52313 23.2121 1.22524 23.0867C1.02142 23.0005 1.0763 23.2278 1.06846 23.3454C1.00574 24.6781 3.46725 24.2155 3.42021 25.5325C3.27911 25.6658 0.856799 24.9603 0.872478 25.1798C0.927352 25.9166 1.16253 25.7207 1.78966 25.8383C1.66424 26.4184 0.739211 26.5673 1.0763 27.265C1.29579 27.4766 2.34625 26.1048 2.42464 26.0734C3.09881 25.7912 4.83911 26.583 5.60735 26.6457L5.67006 27.3747C5.11348 27.4845 4.06303 28.4409 3.46725 28.4957C3.3575 28.5036 2.27569 28.4173 2.15027 28.3938C1.92293 28.3546 1.82886 27.8764 1.28795 28.0881C1.35067 29.1934 1.33499 28.7936 1.96212 28.8093C2.21298 28.8171 2.45599 28.9426 2.71469 28.9034C2.64413 29.1934 1.6564 29.4364 1.59368 29.5227C1.55449 29.5776 1.74263 30.1028 1.85238 30.1263L3.32614 29.4129C3.25559 30.142 2.93418 30.8083 2.4168 31.3179C2.62846 32.1802 2.78524 31.8666 3.16152 31.3414C3.32614 31.114 3.51428 30.8318 3.61619 30.5731C3.78082 30.1577 3.87489 29.1621 4.06303 28.9347C4.29036 28.6525 5.59167 28.1351 5.97579 27.8843C6.14041 28.237 6.59509 28.1979 6.59509 28.6447C6.59509 28.7858 6.10122 30.4163 6.02283 30.5339C5.78765 30.8867 4.80775 30.9181 4.39227 31.2473C3.8984 31.6393 3.9376 32.4781 3.31831 32.7289C3.90624 33.9283 4.23549 32.1488 4.74504 31.702C4.98805 31.4903 5.34082 31.357 5.67006 31.3492C5.76413 31.4433 5.05077 33.1444 4.93318 33.4109C4.85479 33.5834 4.54122 33.9126 4.56474 34.038C4.65097 34.5554 5.23891 34.1008 5.30946 34.1164C5.50544 34.1478 6.05418 35.2531 6.39127 34.9239C6.57157 34.7514 6.00715 33.9126 5.88172 33.748C5.80333 33.6461 5.59951 33.6304 5.57599 33.5285C5.50544 33.2541 5.66222 32.6819 5.88172 32.4781C6.14825 34.2027 7.38684 32.8465 6.18745 32.0704L6.19529 32.0155Z" fill="#003366"/>
</svg>
